<?xml version="1.0" standalone="no"?>
<!DOCTYPE svg PUBLIC "-//W3C//DTD SVG 20010904//EN"
 "http://www.w3.org/TR/2001/REC-SVG-20010904/DTD/svg10.dtd">
<svg version="1.0" xmlns="http://www.w3.org/2000/svg"
 width="700.000000pt" height="700.000000pt" viewBox="0 0 700.000000 700.000000"
 preserveAspectRatio="xMidYMid meet">
<metadata>
Created by potrace 1.14, written by Peter Selinger 2001-2017
</metadata>
<g transform="translate(0.000000,700.000000) scale(0.100000,-0.100000)"
fill="#000000" stroke="none">
<path d="M2010 4155 c-42 -8 -135 -32 -207 -55 -179 -55 -220 -54 -364 5 -60
25 -133 48 -162 51 -141 16 -406 -106 -476 -219 -23 -38 -125 -308 -180 -479
-72 -222 -76 -320 -21 -435 51 -104 144 -165 276 -182 127 -16 247 14 342 83
67 50 105 104 191 272 34 67 80 142 102 167 73 84 220 134 365 125 35 -2 69
-9 76 -16 6 -6 15 -64 20 -134 13 -208 43 -300 122 -386 67 -73 123 -95 247
-100 118 -5 188 10 270 56 l46 25 35 -26 c55 -42 143 -60 277 -55 170 6 229
38 338 186 41 54 60 72 78 72 17 0 50 -28 116 -95 109 -111 185 -156 300 -175
97 -17 308 -8 372 14 45 16 53 16 115 0 175 -44 342 27 409 172 29 63 40 131
49 286 l6 118 28 -20 c48 -35 70 -83 91 -202 25 -141 60 -217 131 -285 73 -68
141 -93 256 -93 95 1 142 14 202 55 90 63 128 174 150 439 5 65 12 121 15 125
15 14 46 -54 95 -208 62 -195 96 -267 154 -325 51 -52 113 -75 216 -83 147
-11 253 45 312 164 30 62 33 75 32 158 0 78 -5 106 -41 210 -90 266 -165 406
-281 527 -226 237 -538 324 -819 229 -51 -17 -124 -46 -162 -66 -39 -19 -84
-35 -101 -35 -17 0 -65 17 -108 39 -172 86 -303 116 -473 109 -71 -3 -122 -11
-161 -25 l-57 -21 -53 21 c-47 19 -72 22 -218 22 -235 0 -302 -25 -459 -169
-46 -42 -86 -76 -91 -76 -4 0 -25 30 -46 66 -59 101 -131 153 -239 173 -79 15
-156 14 -239 -4 -84 -18 -141 -50 -194 -110 l-39 -45 -42 39 c-51 47 -146 99
-215 117 -66 18 -286 17 -386 -1z m369 -66 c71 -15 168 -77 220 -140 55 -67
78 -70 104 -14 27 57 81 110 141 137 44 19 68 22 171 23 106 0 126 -3 167 -23
59 -29 100 -75 141 -158 30 -61 33 -64 68 -64 44 0 89 29 180 115 111 104 201
135 395 135 97 0 127 -4 192 -26 l76 -25 60 23 c53 20 79 23 196 23 163 0 217
-13 380 -90 145 -69 172 -70 285 -16 144 70 220 92 330 98 277 14 546 -141
698 -402 70 -120 173 -399 184 -496 12 -113 -36 -217 -119 -261 -61 -33 -213
-33 -274 -1 -83 44 -112 94 -184 323 -28 91 -62 184 -76 206 -40 70 -118 84
-148 26 -8 -16 -20 -87 -26 -158 -31 -346 -85 -425 -289 -423 -182 2 -272 94
-312 320 -11 61 -29 129 -39 150 -29 55 -81 104 -135 125 -77 29 -78 26 -91
-182 -12 -214 -27 -268 -90 -330 -73 -73 -207 -94 -328 -50 -36 12 -44 12 -85
-6 -36 -16 -75 -22 -176 -25 -230 -9 -306 18 -442 158 -99 102 -125 119 -181
119 -42 0 -60 -15 -124 -105 -89 -123 -152 -156 -298 -157 -124 0 -197 20
-245 67 -40 40 -64 44 -91 14 -54 -59 -178 -92 -300 -78 -85 9 -116 23 -165
76 -72 75 -97 154 -108 345 -8 144 -24 185 -81 205 -49 17 -158 16 -248 -3
-183 -37 -250 -96 -367 -322 -88 -171 -139 -234 -221 -275 -145 -73 -341 -47
-429 56 -80 93 -82 202 -11 425 49 151 144 410 169 459 28 54 99 106 208 152
91 39 113 45 179 45 63 1 86 -4 145 -31 156 -70 250 -81 361 -43 78 27 237 70
294 80 69 12 283 11 339 -1z"/>
<path d="M2066 3990 c-66 -11 -169 -39 -277 -75 -147 -50 -235 -44 -421 32
-79 31 -97 35 -149 30 -73 -6 -237 -83 -263 -121 -9 -14 -37 -81 -62 -148
-155 -413 -182 -540 -131 -616 37 -57 85 -77 182 -77 70 1 87 4 134 30 67 37
93 72 184 250 59 115 83 152 137 206 112 112 248 162 440 163 130 0 180 -14
229 -63 51 -51 68 -108 80 -271 12 -163 24 -202 76 -256 35 -37 47 -43 100
-50 76 -9 157 7 201 41 19 15 48 53 65 86 49 97 112 105 138 18 34 -116 59
-136 179 -146 133 -10 183 15 265 130 82 113 135 145 228 134 74 -9 120 -39
210 -136 113 -123 139 -134 325 -139 127 -3 147 -2 189 17 56 25 107 27 165 6
88 -31 186 -14 228 40 32 40 39 81 50 270 10 189 20 222 75 255 42 26 89 25
158 -3 142 -59 211 -161 239 -354 13 -91 50 -174 88 -202 73 -52 184 -51 237
2 37 37 49 88 70 309 10 108 18 146 36 180 60 107 186 126 280 41 53 -48 76
-96 138 -288 61 -188 84 -234 131 -257 43 -22 140 -24 179 -4 93 49 88 157
-19 425 -73 181 -111 244 -204 336 -144 143 -275 200 -456 200 -120 0 -154 -9
-324 -87 -93 -44 -117 -50 -171 -50 -56 0 -76 6 -167 50 -154 75 -217 94 -338
99 -95 5 -113 3 -183 -21 -96 -32 -112 -32 -206 0 -70 24 -85 26 -196 21 -154
-6 -194 -20 -287 -104 -138 -124 -225 -165 -307 -143 -50 13 -77 41 -107 108
-48 110 -91 136 -219 136 -70 0 -100 -5 -137 -21 -44 -20 -51 -29 -85 -99 -40
-82 -75 -114 -126 -114 -45 0 -82 25 -117 79 -39 62 -90 108 -149 134 -36 16
-71 21 -161 23 -63 2 -141 -1 -174 -6z m2049 -232 c3 -13 6 -126 7 -253 l3
-230 -33 -3 c-38 -4 -53 5 -154 88 -88 73 -118 113 -118 158 0 55 26 88 128
165 141 107 158 114 167 75z"/>
</g>
</svg>
