<svg width="100%" height="auto" viewBox="0 0 1251 1227" fill="none" xmlns="http://www.w3.org/2000/svg">
  <g fill="none" stroke="currentcolor" stroke-width="3" stroke-miterlimit="0" stroke-linecap="square">
    <path d="M646.3 1190.34L625.459 1211.18L604.617 1190.34" />
    <path d="M625.459 791.706V1211.18" />
    <path d="M646.3 515.193L625.459 536.035L604.617 515.193" />
    <path d="M625.459 81.5872V536.035" />
    <path d="M811.501 42.7773L797.84 16.6603L823.957 2.99934" />
    <path d="M1232.94 482.004C1221.71 430.142 1203.25 377.802 1177.46 328.034C1151.66 278.266 1118.53 231.069 1079.53 189.358C1040.53 147.648 995.667 111.423 947.741 82.3479C899.816 53.2719 848.833 31.3449 797.84 16.6599" />
    <path d="M1248.55 457.001L1232.94 482.004L1207.94 466.397" />
    <path d="M938.628 634.764L917.786 613.923L938.628 593.081" />
    <path d="M917.786 613.922H1123.15" />
    <path d="M823.941 1224.88L797.84 1211.18L811.535 1185.08" />
    <path d="M1232.94 745.84C1221.71 797.702 1203.25 850.042 1177.46 899.81C1151.66 949.578 1118.53 996.775 1079.53 1038.48C1040.53 1080.19 995.667 1116.42 947.741 1145.5C899.816 1174.57 848.833 1196.5 797.84 1211.18" />
    <path d="M1207.94 761.451L1232.94 745.84L1248.55 770.84" />
    <path d="M453.078 16.6599C402.086 31.3449 351.103 53.2709 303.178 82.3479C255.253 111.423 210.386 147.648 171.386 189.358C132.386 231.069 99.2536 278.265 73.4586 328.034C47.6636 377.802 29.2075 430.141 17.9775 482.004" />
    <path d="M439.416 42.7773L453.077 16.6603L426.96 2.99934" />
    <path d="M2.37012 457.001L17.9771 482.004L42.9801 466.397" />
    <path d="M333.131 613.922H127.763" />
    <path d="M312.289 634.764L333.13 613.923L312.289 593.081" />
    <path d="M42.9772 761.451L17.9772 745.84L2.36621 770.84" />
    <path d="M453.078 1211.18C402.086 1196.5 351.103 1174.57 303.178 1145.5C255.253 1116.42 210.386 1080.2 171.386 1038.48C132.386 996.775 99.2536 949.579 73.4586 899.81C47.6636 850.042 29.2075 797.703 17.9775 745.84" />
    <path d="M426.977 1224.88L453.077 1211.18L439.383 1185.08" />
  </g>
</svg>
