<svg width="1252" height="1227" viewBox="0 0 1252 1227" fill="none" xmlns="http://www.w3.org/2000/svg">
<path d="M646.934 1190.34L626.093 1211.18M626.093 1211.18L605.251 1190.34M626.093 1211.18L626.093 791.705M646.934 515.194L626.093 536.036M626.093 536.036L605.251 515.194M626.093 536.036L626.093 81.5879M812.135 42.778L798.474 16.661M798.474 16.661L824.591 3M798.474 16.661C849.467 31.346 900.45 53.2726 948.375 82.3486C996.301 111.424 1041.17 147.649 1080.17 189.359C1119.17 231.07 1152.3 278.267 1178.09 328.035C1203.89 377.803 1222.34 430.143 1233.57 482.005M1233.57 482.005L1249.18 457.002M1233.57 482.005L1208.57 466.398M939.262 634.763L918.42 613.922M918.42 613.922L939.262 593.08M918.42 613.922L1123.79 613.921M824.575 1224.88L798.474 1211.18M798.474 1211.18L812.169 1185.08M798.474 1211.18C849.467 1196.5 900.45 1174.57 948.375 1145.5C996.301 1116.42 1041.17 1080.19 1080.17 1038.48C1119.17 996.775 1152.3 949.578 1178.09 899.81C1203.89 850.042 1222.34 797.702 1233.57 745.84M1233.57 745.84L1208.57 761.451M1233.57 745.84L1249.19 770.84M453.711 16.6606C402.719 31.3456 351.736 53.2716 303.811 82.3486C255.886 111.424 211.019 147.649 172.019 189.359C133.019 231.07 99.8873 278.266 74.0923 328.035C48.2973 377.803 29.8413 430.142 18.6113 482.005M453.711 16.6606L440.05 42.778M453.711 16.6606L427.594 3M18.6113 482.005L3.00391 457.002M18.6113 482.005L43.6139 466.398M333.764 613.921H128.396M312.923 634.763L333.764 613.922L312.923 593.08M43.611 761.451L18.611 745.84M18.611 745.84L3 770.84M18.611 745.84C29.841 797.703 48.2973 850.042 74.0923 899.81C99.8873 949.579 133.019 996.775 172.019 1038.48C211.019 1080.2 255.886 1116.42 303.811 1145.5C351.736 1174.57 402.719 1196.5 453.711 1211.18M427.61 1224.88L453.71 1211.18L440.016 1185.08" stroke="#F2F2F2" stroke-width="3" stroke-miterlimit="0" stroke-linecap="square"/>
</svg>
