<svg title="boats" width="517" height="524" viewBox="0 0 517 524" fill="none" xmlns="http://www.w3.org/2000/svg">
<path fill-rule="evenodd" clip-rule="evenodd" d="M252.123 199.146C244.528 186.295 236.339 174.761 229.876 161.349C220.895 142.712 215.247 120.449 217.569 99.089C220.081 75.9814 231.92 53.9298 248.321 37.7182C268.491 17.7814 295.561 6.67684 323.27 2.54683C356.069 -2.34208 389.764 2.54207 420.41 15.5268C452.526 29.1342 481.294 51.638 499.511 81.0335C509.746 97.5494 516.651 116.241 516.712 136.114C516.757 150.525 513.204 165.556 503.732 175.892C495.504 184.87 482.807 190.304 470.655 190.965C455.031 191.814 440.307 184.774 425.015 180.916C409.519 177.006 393.44 176.364 377.702 178.823C362.377 181.216 347.373 186.55 334.575 195.152C327.488 199.915 321.078 205.68 315.433 212.05C324.05 221.598 329.138 235.279 328.855 248.136C343.738 246.984 357.701 244.718 372.588 244.83C393.275 244.984 415.748 249.728 433.897 261.229C453.531 273.67 468.106 294.017 475.427 315.886C484.43 342.779 482.464 371.972 473.957 398.663C463.886 430.259 444.649 458.35 419.484 480.134C393.112 502.962 360.231 518.864 325.816 522.257C306.479 524.163 286.658 522.121 268.793 513.415C255.838 507.103 243.912 497.288 238.811 484.23C234.379 472.886 235.098 459.094 239.863 447.895C245.988 433.497 258.798 423.384 269.002 411.359C279.343 399.173 287.007 385.024 291.738 369.814C296.345 355.003 298.172 339.185 296.092 323.905C294.941 315.444 292.593 307.149 289.363 299.275C274.825 303.532 257.058 300.503 244.752 291.669C237.386 304.653 231.458 317.496 223.041 329.776C211.346 346.842 194.848 362.821 175.165 371.438C153.873 380.759 128.854 381.466 106.63 375.308C79.2991 367.736 56.195 349.783 38.8225 327.806C18.2579 301.79 5.72481 270.135 1.73479 237.091C-2.44661 202.463 2.75426 166.311 19.1841 135.88C28.4153 118.783 41.1911 103.492 58.3978 93.5471C70.8743 86.3364 85.6803 81.9367 99.3587 85.0085C111.242 87.6771 122.274 95.9849 128.895 106.197C137.408 119.325 138.63 135.6 142.894 150.783C147.215 166.17 154.66 180.436 164.626 192.863C174.329 204.964 186.422 215.322 200.253 222.142C207.911 225.918 216.102 228.609 224.436 230.335C228.723 217.067 239.458 204.976 252.123 199.146ZM264.026 225.81C269.965 222.748 277.288 222.372 282.674 224.253C288.152 225.845 293.899 230.4 296.961 236.338C300.023 242.277 300.399 249.6 298.518 254.987C296.926 260.465 292.371 266.212 286.433 269.274C280.494 272.335 273.17 272.711 267.784 270.831C262.306 269.238 256.559 264.684 253.497 258.745C250.436 252.806 250.059 245.483 251.94 240.097C253.533 234.619 258.087 228.872 264.026 225.81ZM480.845 107.822L482.944 112.851C476.797 105.521 470.589 99.9392 463.988 94.8173C437.54 74.2954 404.788 61.1532 371.872 55.8775C391.204 65.6501 409.197 78.6299 424.211 94.3986C437.102 107.938 447.798 123.533 447.813 130.535C444.865 127.951 432.206 117.168 418.449 107.525C395.667 91.5537 369.875 78.7044 342.628 74.8338C336.719 73.9942 330.741 73.577 324.772 73.4602C333.371 77.0996 341.7 81.3524 349.771 86.097C362.658 93.6724 374.887 102.502 385.484 113.019C393.586 121.06 400.734 130.088 403.374 138.098C391.934 129.941 376.008 121.602 359.386 114.942C338.154 106.435 315.788 100.669 293.18 97.635C304.022 102.187 314.458 107.766 324.223 114.393C340.822 125.658 355.481 139.95 358.32 149.657C355.186 147.405 341.852 140.262 327.794 134.996C310.908 128.671 292.978 125.053 275.049 124.008C285.553 127.718 295.634 132.848 304.718 139.391C315.605 147.235 325.06 157.108 327.845 165.136C321.642 161.623 314.993 158.83 308.069 156.994C297.892 154.295 287.121 153.662 276.708 154.831C280.379 158.393 286.847 166.006 293.572 179.314C286.834 177.498 279.748 176.687 272.774 176.934L270.077 172.612L266.342 166.644L264.556 163.75L262.595 160.501L258.148 152.613L256.595 149.569L254.752 145.638C253.452 142.719 252.279 139.745 251.241 136.723C250.206 133.709 249.306 130.648 248.563 127.548C247.841 124.537 247.265 121.491 246.865 118.42C246.482 115.49 246.258 112.537 246.229 109.582C246.201 106.77 246.349 103.954 246.704 101.165C247.085 98.171 247.704 95.2069 248.519 92.3004L249.939 87.8374L251.681 83.4215C252.968 80.4487 254.449 77.5612 256.1 74.7749C257.778 71.9442 259.631 69.218 261.64 66.612C263.637 64.0225 265.788 61.5518 268.082 59.2233C270.811 56.455 273.743 53.8877 276.836 51.534C280.051 49.0875 283.441 46.872 286.955 44.8786C290.58 42.8223 294.338 41.0025 298.187 39.4038C302.149 37.7586 306.206 36.3477 310.326 35.1521C314.526 33.933 318.791 32.9377 323.094 32.1502L329.997 31.0674L337.826 30.2627C343.07 29.871 348.335 29.7707 353.59 29.9519C359.104 30.1421 364.607 30.6422 370.067 31.4381C375.338 32.2064 380.568 33.2506 385.733 34.5562C390.908 35.8648 396.017 37.4359 401.035 39.2551C407.625 41.6436 414.059 44.4596 420.283 47.6812C425.28 50.2674 430.142 53.1149 434.833 56.2214C439.467 59.2902 443.934 62.6117 448.194 66.1826C452.376 69.6887 456.358 73.4353 460.089 77.4176C463.744 81.3181 467.159 85.4446 470.281 89.7836L474.687 96.3699L476.942 100.173C478.351 102.665 479.66 105.216 480.845 107.822ZM309.999 493.693L304.56 493.36C313.849 491.074 321.596 487.962 329.103 484.295C359.182 469.603 385.417 445.998 404.662 418.779C387.368 431.823 367.786 442.251 347.014 448.776C329.178 454.379 310.465 457.104 304.174 454.032C307.793 452.525 323.051 445.915 337.772 437.819C362.15 424.41 385.054 406.923 400.539 384.174C403.898 379.239 406.907 374.057 409.643 368.751C402.586 374.865 395.097 380.466 387.28 385.62C374.8 393.847 361.484 400.932 347.372 405.807C336.583 409.535 325.329 411.971 316.975 410.81C329.339 404.137 343.846 393.518 357.151 381.534C374.146 366.227 389.181 348.692 401.871 329.738C393.006 337.463 383.397 344.371 373.145 350.214C355.716 360.147 336.425 367.004 326.461 365.274C329.864 363.454 342.153 354.634 353.077 344.337C366.199 331.969 377.35 317.469 386.192 301.837C378.231 309.63 369.182 316.418 359.304 321.687C347.465 328.001 334.435 332.135 326.001 331.096C331.889 327.077 337.327 322.34 342.027 316.935C348.936 308.99 354.252 299.601 357.794 289.738C352.978 291.464 343.293 293.914 328.383 294.083C332.984 288.836 336.836 282.833 339.688 276.464L344.757 275.948L351.76 275.227L355.145 274.9L358.926 274.572L367.966 274.057L371.383 274.005L375.724 274.084C378.917 274.204 382.104 274.462 385.273 274.862C388.435 275.262 391.58 275.804 394.689 276.503C397.71 277.182 400.699 278.009 403.631 279.003C406.431 279.951 409.179 281.052 411.845 282.328C414.382 283.543 416.843 284.917 419.19 286.465C421.71 288.127 424.097 289.989 426.347 292.002L429.727 295.244L432.923 298.754C435.024 301.22 436.963 303.822 438.736 306.533C440.537 309.286 442.167 312.151 443.621 315.104C445.065 318.037 446.334 321.057 447.413 324.143C448.695 327.812 449.707 331.576 450.456 335.39C451.234 339.354 451.729 343.374 451.969 347.407C452.216 351.567 452.193 355.743 451.931 359.902C451.662 364.183 451.139 368.447 450.397 372.672C449.639 376.98 448.652 381.246 447.463 385.455L445.391 392.129L442.662 399.511C440.702 404.391 438.471 409.161 435.992 413.798C433.391 418.663 430.516 423.382 427.395 427.932C424.381 432.325 421.138 436.559 417.69 440.619C414.234 444.688 410.572 448.58 406.726 452.283C401.678 457.145 396.314 461.679 390.678 465.845C386.154 469.19 381.455 472.299 376.599 475.14C371.801 477.947 366.851 480.493 361.768 482.742C356.777 484.95 351.659 486.872 346.439 488.466C341.327 490.027 336.118 491.274 330.847 492.163L322.993 493.215L318.586 493.562C315.727 493.728 312.861 493.778 309.999 493.693ZM51.7098 138.738L55.0264 134.415C51.728 143.394 49.9765 151.557 48.8193 159.831C44.1824 192.985 49.0838 227.933 60.89 259.108C59.7447 237.476 62.0482 215.411 68.2529 194.541C73.5804 176.621 81.7839 159.582 87.8489 156.084C87.0745 159.927 84.0231 176.273 82.5051 193.005C79.9912 220.714 81.6831 249.48 91.8861 275.038C94.0991 280.582 96.7125 285.975 99.5817 291.21C98.4588 281.94 98.0022 272.6 98.1005 263.238C98.2575 248.29 99.8292 233.289 103.677 218.863C106.619 207.834 110.892 197.141 116.526 190.864C115.145 204.846 115.838 222.811 118.334 240.542C121.523 263.192 127.653 285.461 136.273 306.58C134.825 294.91 134.47 283.082 135.358 271.315C136.867 251.311 141.969 231.483 148.975 224.189C148.581 228.029 149.022 243.149 151.451 257.963C154.369 275.757 160.155 293.109 168.171 309.18C166.161 298.223 165.593 286.926 166.748 275.79C168.132 262.444 171.991 249.329 177.568 242.918C177.608 250.047 178.495 257.204 180.348 264.123C183.072 274.294 187.884 283.951 194.08 292.401C195.343 287.444 198.726 278.045 206.923 265.588C208.7 272.337 211.524 278.887 215.21 284.812L212.803 289.303L209.485 295.513L207.864 298.502L206.022 301.82L201.393 309.603L199.526 312.465L197.034 316.02C195.149 318.599 193.154 321.098 191.049 323.502C188.95 325.9 186.742 328.203 184.424 330.391C182.172 332.516 179.816 334.531 177.352 336.407C175 338.197 172.551 339.861 170.002 341.357C167.577 342.781 165.061 344.053 162.465 345.134C159.679 346.293 156.8 347.232 153.873 347.971L149.296 348.961L144.598 349.648C141.38 350.011 138.138 350.164 134.899 350.118C131.609 350.072 128.323 349.822 125.062 349.376C121.823 348.933 118.609 348.297 115.447 347.465C111.688 346.477 108.002 345.212 104.422 343.7C100.699 342.129 97.0907 340.291 93.6126 338.235C90.0248 336.114 86.5761 333.761 83.2739 331.218C79.8754 328.601 76.6322 325.783 73.5449 322.806C70.3969 319.769 67.4111 316.565 64.5867 313.225L60.2117 307.776L55.6174 301.387C52.6679 297.033 49.9604 292.516 47.5022 287.868C44.9228 282.991 42.6177 277.969 40.5908 272.837C38.6339 267.883 36.9363 262.827 35.4986 257.698C34.0578 252.558 32.878 247.344 31.9581 242.086C30.7504 235.182 29.9906 228.2 29.687 221.198C29.4432 215.577 29.4935 209.943 29.8532 204.328C30.2085 198.781 30.866 193.253 31.8433 187.781C32.8029 182.409 34.071 177.091 35.6679 171.872C37.2319 166.761 39.1114 161.745 41.3213 156.878L44.8409 149.778L47.0173 145.93C48.4777 143.467 50.0385 141.063 51.7098 138.738Z" fill="currentcolor" stroke="currentcolor" stroke-width="0.48" stroke-miterlimit="0" stroke-linecap="round"/>
</svg>
