<svg xmlns="http://www.w3.org/2000/svg" fill="none" viewBox="0 0 517 524" id="boats" role="img">
  <path fill="currentcolor" fill-rule="evenodd" d="M252.123 199.146c-7.595-12.851-15.784-24.385-22.247-37.797-8.981-18.637-14.629-40.9-12.307-62.26 2.512-23.108 14.351-45.16 30.752-61.37 20.17-19.938 47.24-31.042 74.949-35.172 32.799-4.89 66.494-.005 97.14 12.98 32.116 13.607 60.884 36.111 79.101 65.507 10.235 16.515 17.14 35.207 17.201 55.08.045 14.411-3.508 29.442-12.98 39.778-8.228 8.978-20.925 14.412-33.077 15.073-15.624.849-30.348-6.191-45.64-10.049-15.496-3.91-31.575-4.552-47.313-2.093-15.325 2.393-30.329 7.727-43.127 16.329-7.087 4.763-13.497 10.528-19.142 16.898 8.617 9.548 13.705 23.229 13.422 36.086 14.883-1.152 28.846-3.418 43.733-3.306 20.687.154 43.16 4.898 61.309 16.399 19.634 12.441 34.209 32.788 41.53 54.657 9.003 26.893 7.037 56.086-1.47 82.777-10.071 31.596-29.308 59.687-54.473 81.471-26.372 22.828-59.253 38.73-93.668 42.123-19.337 1.906-39.158-.136-57.023-8.842-12.955-6.312-24.881-16.127-29.982-29.185-4.432-11.344-3.713-25.136 1.052-36.335 6.125-14.398 18.935-24.511 29.139-36.536 10.341-12.186 18.005-26.335 22.736-41.545 4.607-14.811 6.434-30.629 4.354-45.909-1.151-8.461-3.499-16.756-6.729-24.63-14.538 4.257-32.305 1.228-44.611-7.606-7.366 12.984-13.294 25.827-21.711 38.107-11.695 17.066-28.193 33.045-47.876 41.662-21.292 9.321-46.311 10.028-68.535 3.87-27.33-7.572-50.435-25.525-67.808-47.502-20.564-26.016-33.097-57.671-37.087-90.715-4.182-34.628 1.02-70.78 17.45-101.211 9.23-17.097 22.006-32.388 39.213-42.333 12.476-7.21 27.282-11.61 40.96-8.538 11.884 2.668 22.916 10.976 29.537 21.188 8.513 13.128 9.735 29.403 13.999 44.586 4.321 15.387 11.766 29.653 21.732 42.08 9.703 12.101 21.796 22.459 35.627 29.279 7.658 3.776 15.849 6.467 24.183 8.193 4.287-13.268 15.022-25.359 27.687-31.189Zm11.903 26.664c5.939-3.062 13.262-3.438 18.648-1.557 5.478 1.592 11.225 6.147 14.287 12.085 3.062 5.939 3.438 13.262 1.557 18.649-1.592 5.478-6.147 11.225-12.085 14.287-5.939 3.061-13.263 3.437-18.649 1.557-5.478-1.593-11.225-6.147-14.287-12.086-3.061-5.939-3.438-13.262-1.557-18.648 1.593-5.478 6.147-11.225 12.086-14.287Zm216.819-117.988 2.099 5.029c-6.147-7.33-12.355-12.912-18.956-18.034-26.448-20.522-59.2-33.664-92.116-38.94 19.332 9.773 37.325 22.753 52.339 38.522 12.891 13.539 23.587 29.134 23.602 36.136-2.948-2.584-15.607-13.367-29.364-23.01-22.782-15.971-48.574-28.82-75.821-32.691-5.909-.84-11.887-1.257-17.856-1.374 8.599 3.64 16.928 7.892 24.999 12.637 12.887 7.575 25.116 16.405 35.713 26.922 8.102 8.041 15.25 17.069 17.89 25.079-11.44-8.157-27.366-16.496-43.988-23.156-21.232-8.507-43.598-14.273-66.206-17.307 10.842 4.552 21.278 10.131 31.043 16.758 16.599 11.265 31.258 25.557 34.097 35.264-3.134-2.252-16.468-9.395-30.526-14.661-16.886-6.325-34.816-9.943-52.745-10.988 10.504 3.71 20.585 8.84 29.669 15.383 10.887 7.844 20.342 17.717 23.127 25.745-6.203-3.513-12.852-6.306-19.776-8.142-10.177-2.699-20.948-3.332-31.361-2.163 3.671 3.562 10.139 11.175 16.864 24.483a70.737 70.737 0 0 0-20.798-2.38l-2.697-4.322-3.735-5.968-1.786-2.894-1.961-3.249-4.447-7.888-1.553-3.044-1.843-3.931a108.754 108.754 0 0 1-3.511-8.915 100.092 100.092 0 0 1-2.678-9.175 87.79 87.79 0 0 1-1.698-9.128 73.814 73.814 0 0 1-.636-8.838c-.028-2.812.12-5.628.475-8.417.381-2.994 1-5.958 1.815-8.865l1.42-4.463 1.742-4.416a76.924 76.924 0 0 1 4.419-8.646 81.166 81.166 0 0 1 5.54-8.163 81.086 81.086 0 0 1 6.442-7.389 82.125 82.125 0 0 1 8.754-7.689 90.173 90.173 0 0 1 10.119-6.655 102.246 102.246 0 0 1 11.232-5.475 115.804 115.804 0 0 1 12.139-4.252 129.32 129.32 0 0 1 12.768-3.002l6.903-1.083 7.829-.804a144.725 144.725 0 0 1 15.764-.311c5.514.19 11.017.69 16.477 1.486a155.399 155.399 0 0 1 15.666 3.118 159.987 159.987 0 0 1 15.302 4.7 161.895 161.895 0 0 1 19.248 8.425 157.299 157.299 0 0 1 14.55 8.54 147.99 147.99 0 0 1 13.361 9.962 136.184 136.184 0 0 1 11.895 11.235 124.15 124.15 0 0 1 10.192 12.366l4.406 6.586 2.255 3.803a97.844 97.844 0 0 1 3.903 7.649ZM309.999 493.693l-5.439-.333c9.289-2.286 17.036-5.398 24.543-9.065 30.079-14.692 56.314-38.297 75.559-65.516-17.294 13.044-36.876 23.472-57.648 29.997-17.836 5.603-36.549 8.328-42.84 5.256 3.619-1.507 18.877-8.117 33.598-16.213 24.378-13.409 47.282-30.896 62.767-53.645 3.359-4.935 6.368-10.117 9.104-15.423-7.057 6.114-14.546 11.715-22.363 16.869-12.48 8.227-25.796 15.312-39.908 20.187-10.789 3.728-22.043 6.164-30.397 5.003 12.364-6.673 26.871-17.292 40.176-29.276 16.995-15.307 32.03-32.842 44.72-51.796-8.865 7.725-18.474 14.633-28.726 20.476-17.429 9.933-36.72 16.79-46.684 15.06 3.403-1.82 15.692-10.64 26.616-20.937 13.122-12.368 24.273-26.868 33.115-42.5-7.961 7.793-17.01 14.581-26.888 19.85-11.839 6.314-24.869 10.448-33.303 9.409 5.888-4.019 11.326-8.756 16.026-14.161 6.909-7.945 12.225-17.334 15.767-27.197-4.816 1.726-14.501 4.176-29.411 4.345a70.688 70.688 0 0 0 11.305-17.619l5.069-.516 7.003-.721 3.385-.327 3.781-.328 9.04-.515 3.417-.052 4.341.079c3.193.12 6.38.378 9.549.778 3.162.4 6.307.942 9.416 1.641a87.852 87.852 0 0 1 8.942 2.5c2.8.948 5.548 2.049 8.214 3.325a61.858 61.858 0 0 1 7.345 4.137 61.718 61.718 0 0 1 7.157 5.537l3.38 3.242 3.196 3.51a76.859 76.859 0 0 1 5.813 7.779 81.077 81.077 0 0 1 4.885 8.571 80.999 80.999 0 0 1 3.792 9.039 82.026 82.026 0 0 1 3.043 11.247 90.254 90.254 0 0 1 1.513 12.017c.247 4.16.224 8.336-.038 12.495a115.86 115.86 0 0 1-1.534 12.77 129.74 129.74 0 0 1-2.934 12.783l-2.072 6.674-2.729 7.382c-1.96 4.88-4.191 9.65-6.67 14.287a150.165 150.165 0 0 1-8.597 14.134 155.576 155.576 0 0 1-9.705 12.687 161.68 161.68 0 0 1-27.012 25.226 157.31 157.31 0 0 1-14.079 9.295 147.88 147.88 0 0 1-14.831 7.602 136.313 136.313 0 0 1-15.329 5.724 124.077 124.077 0 0 1-15.592 3.697l-7.854 1.052-4.407.347a97.987 97.987 0 0 1-8.587.131ZM51.709 138.738l3.317-4.323c-3.298 8.979-5.05 17.142-6.207 25.416-4.637 33.154.265 68.102 12.071 99.277-1.145-21.632 1.158-43.697 7.363-64.567 5.327-17.92 13.53-34.959 19.596-38.457-.775 3.843-3.826 20.189-5.344 36.921-2.514 27.709-.822 56.475 9.381 82.033 2.213 5.544 4.827 10.937 7.696 16.172-1.123-9.27-1.58-18.61-1.481-27.972.156-14.948 1.728-29.949 5.576-44.375 2.942-11.029 7.215-21.722 12.849-27.999-1.381 13.982-.688 31.947 1.808 49.678 3.189 22.65 9.319 44.919 17.939 66.038-1.448-11.67-1.803-23.498-.915-35.265 1.509-20.004 6.611-39.832 13.617-47.126-.394 3.84.047 18.96 2.476 33.774 2.918 17.794 8.704 35.146 16.72 51.217-2.01-10.957-2.578-22.254-1.423-33.39 1.384-13.346 5.243-26.461 10.82-32.872.04 7.129.927 14.286 2.78 21.205 2.724 10.171 7.536 19.828 13.732 28.278 1.263-4.957 4.646-14.356 12.843-26.813a70.646 70.646 0 0 0 8.287 19.224l-2.407 4.491-3.318 6.21-1.621 2.989-1.842 3.318-4.629 7.783-1.867 2.862-2.492 3.555a108.906 108.906 0 0 1-5.985 7.482 100.413 100.413 0 0 1-6.625 6.889 87.93 87.93 0 0 1-7.072 6.016 74.028 74.028 0 0 1-7.35 4.95 61.885 61.885 0 0 1-7.537 3.777 61.682 61.682 0 0 1-8.592 2.837l-4.577.99-4.698.687c-3.218.363-6.46.516-9.699.47a80.96 80.96 0 0 1-9.837-.742 80.855 80.855 0 0 1-9.615-1.911 81.808 81.808 0 0 1-11.025-3.765 90.11 90.11 0 0 1-10.81-5.465 102.228 102.228 0 0 1-10.338-7.017 115.96 115.96 0 0 1-9.73-8.412 129.446 129.446 0 0 1-8.957-9.581l-4.375-5.449-4.595-6.389a144.852 144.852 0 0 1-8.115-13.519 150.043 150.043 0 0 1-6.911-15.031 155.314 155.314 0 0 1-5.092-15.139 160.04 160.04 0 0 1-3.54-15.612 161.987 161.987 0 0 1-2.272-20.888 157.313 157.313 0 0 1 .166-16.87 147.902 147.902 0 0 1 1.99-16.547c.96-5.372 2.228-10.69 3.825-15.909a124.097 124.097 0 0 1 5.653-14.994l3.52-7.1 2.176-3.848a97.578 97.578 0 0 1 4.693-7.192Z" />
</svg>
