<svg width="25" height="25" viewBox="0 0 25 25" fill="none" xmlns="http://www.w3.org/2000/svg">
  <style>
    #mark { fill: #EDFF01 }

    @media (prefers-color-scheme: dark) {
      #mark { fill: #FF1658 }
    }
  </style>
<g clip-path="url(#clip0_496_17375)">
<path id="mark" d="M9.91668 24.7969H9.86501C9.04693 22.8249 7.91022 21.0251 6.45489 19.3975C5.00818 17.7614 3.41937 16.5256 1.68848 15.6903C2.13627 14.7517 2.72615 13.8776 3.45812 13.0681C4.1987 12.2501 4.98665 11.5741 5.82195 11.0401C6.57976 11.7118 7.2902 12.5514 7.95328 13.559C8.62497 14.5665 9.08568 15.5095 9.33541 16.3878C9.72292 14.4933 10.4377 12.5256 11.4796 10.4847C12.5302 8.4352 13.8047 6.54499 15.3031 4.8141C16.8015 3.07459 18.3429 1.73552 19.9274 0.796875C20.78 2.76028 22.231 4.39214 24.2805 5.69246C21.1632 7.61281 18.2913 10.3168 15.6648 13.8044C13.0469 17.292 11.1309 20.9562 9.91668 24.7969Z" fill="currentColor"/>
</g>
<defs>
<clipPath id="clip0_496_17375">
<rect width="24" height="24" fill="white" transform="translate(0.984375 0.796875)"/>
</clipPath>
</defs>
</svg>
