<svg width="105" height="100" viewBox="0 0 105 100" fill="none" xmlns="http://www.w3.org/2000/svg">
<path d="M30.6218 52.88C31.8378 51.344 33.1498 49.904 34.5578 48.56C35.9658 47.216 37.5338 46.064 39.2618 45.104C39.7738 44.4 40.4138 43.6 41.1818 42.704C42.0138 41.808 42.8138 40.976 43.5818 40.208C44.4138 39.44 45.1498 38.8 45.7898 38.288C46.4938 37.712 47.0058 37.424 47.3258 37.424C45.5338 36.784 43.9018 35.888 42.4298 34.736C40.9578 33.52 39.6778 32.176 38.5898 30.704C37.5658 29.232 36.7658 27.6 36.1898 25.808C35.6138 24.016 35.3258 22.16 35.3258 20.24C35.3258 17.744 35.8058 15.376 36.7658 13.136C37.7898 10.896 39.1338 8.976 40.7978 7.37599C42.4618 5.712 44.4138 4.4 46.6538 3.43999C48.9578 2.48 51.3578 2 53.8538 2C57.5658 2 60.9578 3.024 64.0298 5.07199C67.1658 7.056 69.4698 9.744 70.9418 13.136C71.1978 12.944 71.7738 12.496 72.6698 11.792C73.6298 11.024 74.6218 10.256 75.6458 9.488C76.6698 8.65599 77.6298 7.95199 78.5258 7.37599C79.4218 6.73599 79.9658 6.41599 80.1578 6.41599C80.6698 6.41599 80.9258 6.672 80.9258 7.184C80.9258 7.376 80.5738 8.208 79.8698 9.68C79.2298 11.088 78.4938 12.688 77.6618 14.48C76.8938 16.272 76.1258 17.968 75.3578 19.568C74.6538 21.104 74.2058 22.064 74.0138 22.448C74.1418 22.768 74.4298 23.536 74.8778 24.752C75.3898 25.904 75.9018 27.152 76.4138 28.496C76.9898 29.776 77.4698 30.96 77.8538 32.048C78.3018 33.136 78.5258 33.776 78.5258 33.968C78.5258 34.352 78.3018 34.544 77.8538 34.544C77.6618 34.544 77.1498 34.384 76.3178 34.064C75.4858 33.68 74.5578 33.264 73.5338 32.816C72.5738 32.368 71.6458 31.952 70.7498 31.568C69.8538 31.12 69.2778 30.832 69.0218 30.704C68.5098 31.472 67.9018 32.208 67.1978 32.912C66.5578 33.552 65.8858 34.16 65.1818 34.736C67.5498 35.632 69.5338 37.072 71.1338 39.056C74.9738 38.992 78.8138 38.928 82.6538 38.864C86.5578 38.736 90.4298 38.672 94.2698 38.672C94.9098 38.672 95.5498 38.704 96.1898 38.768C96.8938 38.832 97.5018 38.96 98.0138 39.152C98.5898 39.344 99.0378 39.632 99.3578 40.016C99.7418 40.4 99.9338 40.912 99.9338 41.552C99.9338 42.192 99.7098 42.736 99.2617 43.184C98.8778 43.632 98.4298 43.984 97.9178 44.24L92.6378 47.216C92.8938 47.792 93.0218 48.464 93.0218 49.232C93.0218 50.32 92.7338 51.28 92.1578 52.112C91.5818 52.88 90.9098 53.552 90.1418 54.128C90.4618 54.64 90.6218 55.184 90.6218 55.76C90.6218 57.104 90.1098 58.224 89.0858 59.12C88.0618 59.952 86.8138 60.624 85.3418 61.136C83.8698 61.648 82.3018 62 80.6378 62.192C78.9738 62.384 77.5018 62.48 76.2218 62.48C75.3898 62.48 74.5898 62.48 73.8218 62.48C73.0538 62.416 72.2218 62.32 71.3258 62.192C69.5978 65.456 67.2938 68.368 64.4138 70.928C61.5978 73.424 58.3978 75.216 54.8138 76.304L51.2618 80.72L54.3337 84.944L66.0458 83.888C66.9418 83.888 67.3898 84.272 67.3898 85.04C67.3898 85.744 67.1018 86.128 66.5258 86.192C65.9498 86.256 65.4378 86.32 64.9898 86.384C65.3738 86.448 65.8538 86.512 66.4298 86.576C67.0058 86.64 67.5498 86.736 68.0618 86.864C68.6378 86.928 69.0858 87.088 69.4058 87.344C69.7898 87.536 69.9818 87.824 69.9818 88.208C69.9818 88.976 69.5978 89.36 68.8298 89.36C68.5738 89.36 68.1898 89.328 67.6778 89.264C67.1658 89.136 66.6218 89.04 66.0458 88.976C65.4698 88.848 64.8938 88.752 64.3178 88.688C63.8058 88.56 63.3578 88.464 62.9738 88.4C63.4858 88.592 64.1258 88.816 64.8938 89.072C65.6618 89.264 66.3658 89.488 67.0058 89.744C67.7098 90 68.2858 90.288 68.7338 90.608C69.2458 90.864 69.5018 91.184 69.5018 91.568C69.5018 91.888 69.3738 92.176 69.1178 92.432C68.9258 92.624 68.6698 92.72 68.3498 92.72C68.0938 92.72 67.9018 92.688 67.7738 92.624C65.5338 91.728 63.2618 90.96 60.9578 90.32C58.7178 89.616 56.3818 89.008 53.9498 88.496C53.4378 88.432 52.8298 88.368 52.1258 88.304C51.4858 88.176 50.8138 88.048 50.1098 87.92C49.4698 87.792 48.9258 87.632 48.4778 87.44C48.0298 87.184 47.8058 86.864 47.8058 86.48C47.8058 85.84 48.1898 85.488 48.9578 85.424C49.7898 85.296 50.4618 85.232 50.9738 85.232C50.7818 84.976 50.5258 84.656 50.2058 84.272C49.8858 83.888 49.5658 83.472 49.2458 83.024C48.9258 82.576 48.6378 82.16 48.3818 81.776C48.1898 81.328 48.0938 80.976 48.0938 80.72C48.0938 80.208 48.4138 79.6 49.0538 78.896C49.6938 78.128 50.1738 77.52 50.4938 77.072C50.2378 77.072 50.0138 77.104 49.8218 77.168C49.6298 77.168 49.4058 77.168 49.1498 77.168C47.9978 77.168 46.9418 77.04 45.9818 76.784L43.9658 80.816L46.4618 87.44L59.4218 90.608C60.0618 90.8 60.3818 91.184 60.3818 91.76C60.3818 92.528 60.0298 92.912 59.3258 92.912C59.1338 92.912 58.7178 92.848 58.0778 92.72C57.4378 92.528 56.7338 92.336 55.9658 92.144C55.2618 91.952 54.5898 91.76 53.9498 91.568C53.3098 91.376 52.8618 91.248 52.6058 91.184L59.0378 94.832C59.4858 95.088 59.7098 95.44 59.7098 95.888C59.7098 96.208 59.5818 96.496 59.3258 96.752C59.1338 96.944 58.8778 97.04 58.5578 97.04C58.3658 97.04 57.9818 96.912 57.4058 96.656C56.8938 96.336 56.2858 95.984 55.5818 95.6C54.9418 95.216 54.3018 94.864 53.6618 94.544C53.0858 94.16 52.6698 93.904 52.4138 93.776C52.7338 94.096 53.2458 94.576 53.9498 95.216C54.6538 95.856 55.0058 96.4 55.0058 96.848C55.0058 97.168 54.8778 97.456 54.6218 97.712C54.4298 97.904 54.1737 98 53.8538 98C53.5338 98 53.2138 97.84 52.8938 97.52C51.6138 96.24 50.3018 95.056 48.9578 93.968C47.6778 92.88 46.2378 91.856 44.6378 90.896C44.2538 90.704 43.7418 90.48 43.1018 90.224C42.5258 89.904 41.9498 89.584 41.3738 89.264C40.7978 88.944 40.2858 88.656 39.8378 88.4C39.4538 88.08 39.2618 87.824 39.2618 87.632C39.2618 87.184 39.4538 86.896 39.8378 86.768C40.2218 86.576 40.5738 86.48 40.8938 86.48C41.3418 86.48 41.7578 86.544 42.1418 86.672C42.5258 86.8 42.8778 86.928 43.1978 87.056C43.1338 86.864 42.9738 86.448 42.7178 85.808C42.4618 85.168 42.2058 84.528 41.9498 83.888C41.6938 83.184 41.4698 82.544 41.2778 81.968C41.0858 81.328 40.9898 80.944 40.9898 80.816C40.9898 80.496 41.0538 80.176 41.1818 79.856C41.3738 79.472 41.5658 79.12 41.7578 78.8C41.1818 79.376 40.4138 80.176 39.4538 81.2C38.5578 82.224 37.5978 83.216 36.5738 84.176C35.5498 85.136 34.4938 85.968 33.4058 86.672C32.3178 87.376 31.3578 87.728 30.5258 87.728C29.6298 87.728 28.9258 87.408 28.4138 86.768C27.9018 86.064 27.6458 85.264 27.6458 84.368C27.6458 83.024 27.8378 81.68 28.2218 80.336C28.6058 78.928 28.9578 77.584 29.2778 76.304C27.5498 75.6 26.6858 74.32 26.6858 72.464C26.6858 71.184 27.1018 69.904 27.9338 68.624C24.7338 66.448 21.8538 63.728 19.2938 60.464C16.7338 57.136 14.4298 53.616 12.3818 49.904C10.3338 46.128 8.47775 42.288 6.81375 38.384C5.14975 34.416 3.61375 30.672 2.20575 27.152C1.82175 26.192 1.43775 25.232 1.05375 24.272C0.73375 23.312 0.41375 22.352 0.09375 21.392C1.11775 22.16 2.23775 22.928 3.45375 23.696C4.73375 24.464 6.01375 25.2 7.29375 25.904C8.63775 26.608 9.94975 27.312 11.2298 28.016C12.5098 28.656 13.6938 29.264 14.7818 29.84C15.6778 26.96 16.5418 24.08 17.3738 21.2C18.2698 18.256 19.1658 15.344 20.0618 12.464L30.6218 52.88ZM61.4378 6.89599C62.9098 7.984 64.1258 9.328 65.0858 10.928C66.1098 12.528 66.7818 14.224 67.1018 16.016L69.5018 14.288C68.0938 10.768 65.7578 8.048 62.4938 6.128L61.4378 6.89599ZM67.3898 18.704C67.3898 20.176 67.1658 21.616 66.7178 23.024C66.2698 24.368 65.6298 25.648 64.7978 26.864L74.8778 31.472L68.6378 22.736L76.3178 11.216L67.2938 18.128L67.3898 18.704ZM94.4618 40.496C94.6538 40.88 94.7498 41.232 94.7498 41.552C94.7498 42.128 94.5578 42.64 94.1738 43.088C93.8538 43.536 93.4378 43.92 92.9258 44.24L88.4138 47.12C88.7978 47.888 88.9898 48.688 88.9898 49.52C88.9898 50.48 88.7338 51.344 88.2218 52.112C87.7098 52.88 87.1018 53.52 86.3978 54.032C86.7818 54.608 86.9738 55.216 86.9738 55.856C86.9738 56.56 86.8138 57.2 86.4938 57.776C86.1738 58.288 85.7898 58.736 85.3418 59.12C85.9178 58.864 86.6538 58.416 87.5498 57.776C88.4458 57.136 88.8938 56.464 88.8938 55.76C88.8938 55.312 88.7018 54.96 88.3178 54.704C87.9978 54.384 87.6778 54.096 87.3578 53.84C88.1898 53.328 89.0538 52.72 89.9498 52.016C90.8458 51.312 91.2938 50.416 91.2938 49.328C91.2938 48.816 91.1978 48.336 91.0058 47.888C90.8138 47.44 90.5898 46.992 90.3338 46.544L97.0537 42.704C97.2458 42.576 97.4698 42.448 97.7258 42.32C97.9818 42.128 98.1098 41.872 98.1098 41.552C98.1098 41.104 97.7578 40.816 97.0537 40.688C96.3498 40.56 95.8378 40.496 95.5178 40.496H94.4618ZM52.7018 17.072C52.9578 16.944 53.1818 16.848 53.3738 16.784C53.6298 16.72 53.9178 16.688 54.2378 16.688C54.8138 16.688 55.3258 16.88 55.7738 17.264C56.2858 17.648 56.7018 18.16 57.0218 18.8C57.3418 19.376 57.5658 20.016 57.6938 20.72C57.8858 21.36 57.9818 21.968 57.9818 22.544V22.928C58.8778 21.84 59.3258 20.56 59.3258 19.088C59.3258 17.36 58.6858 15.888 57.4058 14.672C56.1898 13.456 54.7178 12.848 52.9897 12.848C51.2618 12.848 49.7578 13.456 48.4778 14.672C47.2618 15.888 46.6538 17.36 46.6538 19.088C46.6538 20.368 47.0058 21.52 47.7098 22.544C48.4138 23.568 49.3418 24.336 50.4938 24.848C49.5978 23.824 49.1498 22.608 49.1498 21.2C49.1498 20.496 49.3098 19.824 49.6298 19.184C50.0138 18.544 50.5898 18.224 51.3578 18.224C51.8058 18.224 52.2538 18.384 52.7018 18.704V17.072ZM62.3018 36.56C65.5018 37.84 67.8378 39.888 69.3098 42.704C70.8458 45.456 71.6138 48.464 71.6138 51.728C71.6138 54.736 71.1018 57.552 70.0778 60.176L70.3658 60.272C71.1338 58.672 71.7418 57.008 72.1898 55.28C72.6378 53.552 72.8618 51.792 72.8618 50C72.8618 48.4 72.6698 46.864 72.2858 45.392C71.9018 43.92 71.2938 42.576 70.4618 41.36C69.6938 40.08 68.7018 38.992 67.4858 38.096C66.3338 37.136 64.9578 36.432 63.3578 35.984L62.3018 36.56ZM31.5818 82.16C31.5818 82.48 31.6778 82.768 31.8698 83.024C32.1258 83.28 32.4138 83.408 32.7338 83.408C33.0538 83.408 33.3418 83.28 33.5978 83.024C36.0938 80.912 38.4938 78.512 40.7978 75.824C43.1018 73.136 45.2778 70.512 47.3258 67.952C48.7338 66.224 50.0458 64.432 51.2618 62.576C52.4778 60.72 53.6618 58.864 54.8138 57.008C56.0298 55.088 57.2458 53.2 58.4618 51.344C59.6778 49.488 61.0218 47.728 62.4938 46.064C62.7498 45.808 62.8778 45.52 62.8778 45.2C62.8778 44.88 62.7498 44.624 62.4938 44.432C62.3018 44.176 62.0458 44.048 61.7258 44.048C61.4698 44.048 61.1498 44.176 60.7658 44.432C59.2298 45.968 57.8218 47.664 56.5417 49.52C55.3258 51.312 54.1098 53.2 52.8938 55.184C51.6778 57.104 50.4618 59.056 49.2458 61.04C48.0938 62.96 46.8458 64.752 45.5018 66.416C44.0298 68.272 42.5258 70.128 40.9898 71.984C39.4538 73.776 37.8538 75.504 36.1898 77.168C35.8698 77.552 35.4218 78 34.8458 78.512C34.3338 78.96 33.8218 79.44 33.3098 79.952C32.8618 80.4 32.4458 80.848 32.0618 81.296C31.7418 81.68 31.5818 81.968 31.5818 82.16ZM29.2778 54.608C28.6378 52.048 27.9978 49.488 27.3578 46.928C26.7818 44.368 26.2378 41.776 25.7258 39.152L24.6698 40.4L27.9338 55.76L29.2778 54.608Z" fill="#FF1658"/>
<path d="M52.7018 17.072C52.9578 16.944 53.1818 16.848 53.3737 16.784C53.6297 16.72 53.9178 16.688 54.2378 16.688C54.8138 16.688 55.3258 16.88 55.7738 17.264C56.2858 17.648 56.7018 18.16 57.0218 18.8C57.3418 19.376 57.5658 20.016 57.6938 20.72C57.8858 21.36 57.9818 21.968 57.9818 22.544V22.928C58.8778 21.84 59.3258 20.56 59.3258 19.088C59.3258 17.36 58.6858 15.888 57.4058 14.672C56.1898 13.456 54.7178 12.848 52.9897 12.848C51.2618 12.848 49.7578 13.456 48.4778 14.672C47.2618 15.888 46.6538 17.36 46.6538 19.088C46.6538 20.368 47.0058 21.52 47.7098 22.544C48.4137 23.568 49.3418 24.336 50.4938 24.848C49.5978 23.824 49.1498 22.608 49.1498 21.2C49.1498 20.496 49.3098 19.824 49.6298 19.184C50.0138 18.544 50.5898 18.224 51.3578 18.224C51.8058 18.224 52.2537 18.384 52.7018 18.704V17.072Z" fill="#EDFF01"/>
<path d="M61.4378 6.89599C62.9098 7.984 64.1258 9.328 65.0858 10.928C66.1098 12.528 66.7818 14.224 67.1018 16.016L69.5018 14.288C68.0938 10.768 65.7578 8.048 62.4938 6.128L61.4378 6.89599Z" fill="#EDFF01"/>
<path d="M67.3898 18.704C67.3898 20.176 67.1658 21.616 66.7178 23.024C66.2698 24.368 65.6298 25.648 64.7978 26.864L74.8778 31.472L68.6378 22.736L76.3177 11.216L67.2938 18.128L67.3898 18.704Z" fill="#EDFF01"/>
<path d="M31.5818 82.16C31.5818 82.48 31.6778 82.768 31.8698 83.024C32.1258 83.28 32.4137 83.408 32.7337 83.408C33.0537 83.408 33.3418 83.28 33.5978 83.024C36.0938 80.912 38.4938 78.512 40.7978 75.824C43.1018 73.136 45.2778 70.512 47.3258 67.952C48.7337 66.224 50.0458 64.432 51.2618 62.576C52.4778 60.72 53.6618 58.864 54.8138 57.008C56.0298 55.088 57.2458 53.2 58.4618 51.344C59.6778 49.488 61.0218 47.728 62.4938 46.064C62.7498 45.808 62.8778 45.52 62.8778 45.2C62.8778 44.88 62.7498 44.624 62.4938 44.432C62.3018 44.176 62.0458 44.048 61.7258 44.048C61.4698 44.048 61.1498 44.176 60.7658 44.432C59.2298 45.968 57.8218 47.664 56.5417 49.52C55.3257 51.312 54.1098 53.2 52.8938 55.184C51.6778 57.104 50.4618 59.056 49.2458 61.04C48.0938 62.96 46.8457 64.752 45.5018 66.416C44.0298 68.272 42.5258 70.128 40.9898 71.984C39.4538 73.776 37.8538 75.504 36.1898 77.168C35.8698 77.552 35.4218 78 34.8458 78.512C34.3338 78.96 33.8218 79.44 33.3098 79.952C32.8618 80.4 32.4458 80.848 32.0618 81.296C31.7418 81.68 31.5818 81.968 31.5818 82.16Z" fill="#EDFF01"/>
<path d="M29.2778 54.608L27.3577 46.928C26.7817 44.368 26.2378 41.776 25.7258 39.152L24.6698 40.4L27.9338 55.76L29.2778 54.608Z" fill="#EDFF01"/>
<path d="M62.3018 36.56C65.5018 37.84 67.8378 39.888 69.3098 42.704C70.8458 45.456 71.6138 48.464 71.6138 51.728C71.6138 54.736 71.1018 57.552 70.0778 60.176L70.3658 60.272C71.1338 58.672 71.7418 57.008 72.1898 55.28C72.6378 53.552 72.8618 51.792 72.8618 50C72.8618 48.4 72.6698 46.864 72.2858 45.392C71.9017 43.92 71.2938 42.576 70.4618 41.36C69.6938 40.08 68.7018 38.992 67.4857 38.096C66.3337 37.136 64.9577 36.432 63.3578 35.984L62.3018 36.56Z" fill="#EDFF01"/>
<path d="M94.4618 40.496C94.6538 40.88 94.7498 41.232 94.7498 41.552C94.7498 42.128 94.5578 42.64 94.1738 43.088C93.8538 43.536 93.4378 43.92 92.9258 44.24L88.4137 47.12C88.7978 47.888 88.9898 48.688 88.9898 49.52C88.9898 50.48 88.7338 51.344 88.2218 52.112C87.7098 52.88 87.1017 53.52 86.3978 54.032C86.7818 54.608 86.9738 55.216 86.9738 55.856C86.9738 56.56 86.8138 57.2 86.4938 57.776C86.1738 58.288 85.7898 58.736 85.3418 59.12C85.9178 58.864 86.6538 58.416 87.5498 57.776C88.4458 57.136 88.8938 56.464 88.8938 55.76C88.8938 55.312 88.7018 54.96 88.3177 54.704C87.9977 54.384 87.6778 54.096 87.3578 53.84C88.1898 53.328 89.0538 52.72 89.9498 52.016C90.8457 51.312 91.2938 50.416 91.2938 49.328C91.2938 48.816 91.1978 48.336 91.0058 47.888C90.8138 47.44 90.5898 46.992 90.3338 46.544L97.0537 42.704C97.2458 42.576 97.4697 42.448 97.7258 42.32C97.9818 42.128 98.1098 41.872 98.1098 41.552C98.1098 41.104 97.7578 40.816 97.0537 40.688C96.3498 40.56 95.8378 40.496 95.5178 40.496H94.4618Z" fill="#EDFF01"/>
</svg>
