<svg xmlns="http://www.w3.org/2000/svg" fill="none" viewBox="0 0 512 128" title="logotype">
  <path fill="currentcolor" fill-rule="evenodd" d="M39.26 82.306a35.77 35.77 0 0 1 1.51-5.95c3.095-9.218 3.68-11.2 3.946-12.104.194-.658.22-.744.923-2.636 2.74-7.4 5.24-14.07 7.65-20.41a11.261 11.261 0 0 1 2.62-4 13.478 13.478 0 0 1 4-2.59c1.34-.66 3.26-1.58 5.6-2.59a32.211 32.211 0 0 1 6.73-2.41 14.77 14.77 0 0 1 6.47-.07c.818.198 1.206.382 2.08.797.58.276 1.374.653 2.65 1.203 0 0 2.63 1.16 5.48 2.22a43.864 43.864 0 0 0 8.22 2.45c2.994.528 6.046.64 9.071.33a34.48 34.48 0 0 0 8.319-2c2.16-.74 10.401-3.51 17.061-5a77.921 77.921 0 0 1 20.68-1.41 23.83 23.83 0 0 1 6.14 1.23 22.682 22.682 0 0 1 7.8 4.68 29.07 29.07 0 0 1 4.35 5.24c.371.59.633 1.047.854 1.433.458.801.741 1.295 1.456 2.017a8.935 8.935 0 0 0 5.17 2.79 8.63 8.63 0 0 0 5.13-.95 9.817 9.817 0 0 0 3.919-3.59 32.39 32.39 0 0 0 1.56-3.4c.423-.979.733-1.71.97-2.271.645-1.524.752-1.776 1.111-2.26a10.205 10.205 0 0 1 3.64-3 15.53 15.53 0 0 1 4.909-1.37 34.343 34.343 0 0 1 10-.19c1.675.108 3.313.543 4.821 1.28a12.373 12.373 0 0 1 4.109 3.87 23.474 23.474 0 0 1 2.12 4c.65 1.397.969 2.236 1.201 2.848.296.782.452 1.194.98 1.923a10.247 10.247 0 0 0 3.73 3.16c1.04.505 2.154.842 3.3 1a15.38 15.38 0 0 0 5.77-.25 19.02 19.02 0 0 0 4.94-1.95 40.27 40.27 0 0 0 8-6c1.57-1.41 2.326-2.235 2.934-2.897.685-.746 1.18-1.285 2.436-2.223a22.997 22.997 0 0 1 6.68-3.68 26.199 26.199 0 0 1 5.479-1.17c.53-.07 1.131-.13 3.841-.23 7.31-.29 8.819-.29 10.839 0 1.046.13 2.082.33 3.101.6.888.24 1.431.448 2.307.783.583.224 1.314.503 2.393.887l.88.317c1.239.448 1.926.697 2.329.763a11.58 11.58 0 0 0 5.2-.07c.61-.157.862-.283 1.27-.487.421-.211 1.009-.505 2.33-1.003a36.144 36.144 0 0 1 3.53-1.15 33.667 33.667 0 0 1 4-.82 39.45 39.45 0 0 1 10.25.23c2.265.253 4.507.67 6.711 1.25a67.25 67.25 0 0 1 14.349 5.93 45.998 45.998 0 0 0 5.35 2.58 15.75 15.75 0 0 0 2.9 1c1.374.314 2.783.445 4.19.39 2.174.02 4.337-.318 6.401-1a22.813 22.813 0 0 0 3.939-1.92 100 100 0 0 1 10.14-4.63 53.76 53.76 0 0 1 7.33-2.34 40.236 40.236 0 0 1 19.341.69 46.488 46.488 0 0 1 13.439 6.12 51.735 51.735 0 0 1 10.91 9.21c3.9 4.42 6 8.37 8.22 12.76 1.309 2.52 2.617 5.744 5.153 11.993l.307.757s1.85 4.58 3.61 10.46a32.534 32.534 0 0 1 1.06 4.57c.323 1.463.454 2.963.39 4.46a9.991 9.991 0 0 1-2.44 6.48 9.093 9.093 0 0 1-4 2.38 13.547 13.547 0 0 1-4.39.49 17.612 17.612 0 0 1-4.25-.35 8.907 8.907 0 0 1-3.16-1.1 8.38 8.38 0 0 1-2.34-2.23 17.771 17.771 0 0 1-2.579-4.71c-1.37-3.63-2.461-6.94-3.26-9.53a184.883 184.883 0 0 0-4.401-13.65 25.13 25.13 0 0 0-2.76-5.7 17.667 17.667 0 0 0-5.81-5.85 14.002 14.002 0 0 0-5.389-2 13.536 13.536 0 0 0-5.491.39 13.157 13.157 0 0 0-4.889 2.63 13.519 13.519 0 0 0-3.461 4.78 21.15 21.15 0 0 0-1.75 7.37c-.346 3.208-.49 5.282-.643 7.5v.002c-.121 1.75-.248 3.59-.487 6.148-.072.803-.495 3.112-1.313 7.581l-.247 1.349a9.297 9.297 0 0 1-1.94 4.73 8.304 8.304 0 0 1-3 2.17c-.761.28-1.553.472-2.359.57a19.083 19.083 0 0 1-5.911.09 12.933 12.933 0 0 1-4.199-1.18 12.11 12.11 0 0 1-4-3.21 16.433 16.433 0 0 1-3-5.58c-.851-2.442-1.05-4.056-1.292-6.016-.172-1.403-.367-2.984-.838-5.174a38.085 38.085 0 0 0-1.791-6.67 27.478 27.478 0 0 0-9.209-12.28 31.008 31.008 0 0 0-10.07-4.44 10.396 10.396 0 0 0-4.341-.28 9.532 9.532 0 0 0-4 1.6 10.012 10.012 0 0 0-3.31 4.21 15.43 15.43 0 0 0-1.229 4.63c-.326 2.258-.339 3.665-.357 5.666v.002c-.009.95-.018 2.032-.063 3.402-.054 1.6-.11 2.201-.18 2.963-.075.808-.167 1.798-.291 4.357-.033.675-.06 1.278-.085 1.827-.122 2.702-.184 4.078-.675 6.173a12.419 12.419 0 0 1-1.889 4.67 10.444 10.444 0 0 1-3.591 3.12 11.725 11.725 0 0 1-4.76 1.21c-2.59.29-5.212-.01-7.669-.88a24.832 24.832 0 0 0-3.401-1.18 12.155 12.155 0 0 0-3-.47 11.502 11.502 0 0 0-3.549.52 20.748 20.748 0 0 0-3.211 1.49 13.703 13.703 0 0 1-4.819 1.13l-11.57.07a24.088 24.088 0 0 1-8.46-1 19.79 19.79 0 0 1-6.19-3c-1.183-.87-1.73-1.49-3.849-3.889l-1.071-1.211c-3.04-3.43-4.56-5.12-5-5.53a21.235 21.235 0 0 0-9.5-5.38 15.931 15.931 0 0 0-7-.25 15.003 15.003 0 0 0-5.841 2.48 17.695 17.695 0 0 0-3.33 3.4c-.692.834-.998 1.286-1.62 2.204-.384.568-.889 1.313-1.68 2.436a31.421 31.421 0 0 1-3.719 4.82 14.405 14.405 0 0 1-3.93 2.77 13.003 13.003 0 0 1-3.301 1c-1.81.233-3.634.343-5.459.33a39.71 39.71 0 0 1-6.56-.61c-2.83-.51-3.63-1-4-1.24a8.506 8.506 0 0 1-2.69-3.19c-.43-.77-.59-1.27-2.12-6.2l-.007-.02c-.495-1.615-.666-2.173-1.263-2.77a4.804 4.804 0 0 0-3.59-1.23 4.898 4.898 0 0 0-2.79 1.32 8.179 8.179 0 0 0-1.75 2.8c-1.06 2.18-1.59 3.27-2 3.9a13.642 13.642 0 0 1-3.86 4.43 14.48 14.48 0 0 1-5.43 2.24c-1.38.341-2.791.539-4.21.59l-6.45-.42a9.411 9.411 0 0 1-1.81-.5c-3.198-1.23-4.865-3.925-5.878-5.563l-.122-.197c-.47-.83-1.72-3.15-2.55-8.32-.36-2.259-.379-3.419-.406-5.063-.019-1.144-.041-2.522-.184-4.667-.43-6.45-.681-9.75-2.481-13.25a15.818 15.818 0 0 0-5.169-6.17 15.566 15.566 0 0 0-6-2.33 52.261 52.261 0 0 0-20.55.59c-4.53 1-9 2.07-14.12 5.29a40.58 40.58 0 0 0-10.18 9.35 57.901 57.901 0 0 0-6 10.14 130.866 130.866 0 0 0-1.935 3.958c-1.015 2.144-1.951 4.12-3.736 7.162a21.278 21.278 0 0 1-5 6.38 18.818 18.818 0 0 1-5 2.9 19.14 19.14 0 0 1-5.22 1.26 22.999 22.999 0 0 1-9.16-.76 12.07 12.07 0 0 1-4-1.84 11.219 11.219 0 0 1-3.55-4.64c-1.21-3.26-.74-6.33-.15-9.93Zm227.76-29.69a15.117 15.117 0 0 0-2.83 2.55 11.905 11.905 0 0 0-1.85 2.72 11.274 11.274 0 0 0-.68 7.48 11.718 11.718 0 0 0 1.74 3.65c.575.83 1.246 1.588 2 2.26a129.789 129.789 0 0 0 12.16 10c.593.449 1.233.831 1.91 1.14a7.579 7.579 0 0 0 4.64.81 4.847 4.847 0 0 0 4.22-4.15c.083-.465.106-.94.07-1.41-.314-10.62-.62-21.24-.92-31.86a4.6 4.6 0 0 0-.43-1.66 3.875 3.875 0 0 0-1.19-1.6 4.002 4.002 0 0 0-2.35-.71 5.738 5.738 0 0 0-2 .32 8.066 8.066 0 0 0-2.37 1.24 454.922 454.922 0 0 0-4.926 3.77c-2.377 1.836-4.754 3.673-7.194 5.45Z" clip-rule="evenodd"/>
  <path stroke="#21201F" stroke-miterlimit="10" stroke-width="2" d="M378.729 92.486a9.297 9.297 0 0 1-1.94 4.73 8.304 8.304 0 0 1-3 2.17c-.761.28-1.553.472-2.359.57a19.083 19.083 0 0 1-5.911.09 12.933 12.933 0 0 1-4.199-1.18 12.11 12.11 0 0 1-4-3.21 16.433 16.433 0 0 1-3-5.58c-.851-2.442-1.05-4.056-1.292-6.016-.172-1.403-.367-2.984-.838-5.174a38.085 38.085 0 0 0-1.791-6.67 27.478 27.478 0 0 0-9.209-12.28 31.008 31.008 0 0 0-10.07-4.44 10.396 10.396 0 0 0-4.341-.28 9.532 9.532 0 0 0-4 1.6 10.012 10.012 0 0 0-3.31 4.21 15.43 15.43 0 0 0-1.229 4.63c-.326 2.258-.339 3.665-.357 5.666v.002c-.009.95-.018 2.032-.063 3.402-.054 1.6-.11 2.201-.18 2.963-.075.808-.167 1.798-.291 4.357-.033.675-.06 1.278-.085 1.827-.122 2.702-.184 4.078-.675 6.173a12.419 12.419 0 0 1-1.889 4.67 10.444 10.444 0 0 1-3.591 3.12 11.725 11.725 0 0 1-4.76 1.21c-2.59.29-5.212-.01-7.669-.88a24.832 24.832 0 0 0-3.401-1.18 12.155 12.155 0 0 0-3-.47 11.502 11.502 0 0 0-3.549.52 20.748 20.748 0 0 0-3.211 1.49 13.703 13.703 0 0 1-4.819 1.13l-11.57.07a24.088 24.088 0 0 1-8.46-1 19.79 19.79 0 0 1-6.19-3c-1.183-.87-1.73-1.49-3.849-3.889l-1.071-1.211c-3.04-3.43-4.56-5.12-5-5.53a21.235 21.235 0 0 0-9.5-5.38 15.931 15.931 0 0 0-7-.25 15.003 15.003 0 0 0-5.841 2.48 17.695 17.695 0 0 0-3.33 3.4c-.692.834-.998 1.286-1.62 2.204-.384.568-.889 1.313-1.68 2.436a31.421 31.421 0 0 1-3.719 4.82 14.405 14.405 0 0 1-3.93 2.77 13.003 13.003 0 0 1-3.301 1c-1.81.233-3.634.343-5.459.33a39.71 39.71 0 0 1-6.56-.61c-2.83-.51-3.63-1-4-1.24a8.506 8.506 0 0 1-2.69-3.19c-.43-.77-.59-1.27-2.12-6.2l-.007-.02c-.495-1.615-.666-2.173-1.263-2.77a4.804 4.804 0 0 0-3.59-1.23 4.898 4.898 0 0 0-2.79 1.32 8.179 8.179 0 0 0-1.75 2.8c-1.06 2.18-1.59 3.27-2 3.9a13.642 13.642 0 0 1-3.86 4.43 14.48 14.48 0 0 1-5.43 2.24c-1.38.341-2.791.539-4.21.59l-6.45-.42a9.411 9.411 0 0 1-1.81-.5c-3.198-1.23-4.865-3.925-5.878-5.563m233.957.043.247-1.349m-.247 1.349.247-1.349M144.65 92.246c-.47-.83-1.72-3.15-2.55-8.32-.36-2.259-.379-3.419-.406-5.063-.019-1.144-.041-2.522-.184-4.667-.43-6.45-.681-9.75-2.481-13.25a15.818 15.818 0 0 0-5.169-6.17 15.566 15.566 0 0 0-6-2.33 52.261 52.261 0 0 0-20.55.59c-4.53 1-9 2.07-14.12 5.29a40.58 40.58 0 0 0-10.18 9.35 57.901 57.901 0 0 0-6 10.14 130.866 130.866 0 0 0-1.935 3.958c-1.015 2.144-1.951 4.12-3.736 7.162a21.278 21.278 0 0 1-5 6.38 18.818 18.818 0 0 1-5 2.9 19.14 19.14 0 0 1-5.22 1.26 22.999 22.999 0 0 1-9.16-.76 12.07 12.07 0 0 1-4-1.84 11.219 11.219 0 0 1-3.55-4.64c-1.21-3.26-.74-6.33-.15-9.93a35.77 35.77 0 0 1 1.51-5.95c3.096-9.218 3.68-11.2 3.947-12.104.194-.658.22-.744.923-2.636 2.74-7.4 5.24-14.07 7.65-20.41a11.261 11.261 0 0 1 2.62-4 13.478 13.478 0 0 1 4-2.59c1.34-.66 3.26-1.58 5.6-2.59a32.211 32.211 0 0 1 6.73-2.41 14.77 14.77 0 0 1 6.47-.07c.818.198 1.206.382 2.08.797.58.276 1.374.653 2.65 1.203 0 0 2.63 1.16 5.48 2.22a43.864 43.864 0 0 0 8.22 2.45c2.994.528 6.046.64 9.071.33a34.48 34.48 0 0 0 8.319-2c2.16-.74 10.401-3.51 17.061-5a77.921 77.921 0 0 1 20.68-1.41 23.83 23.83 0 0 1 6.14 1.23 22.682 22.682 0 0 1 7.8 4.68 29.07 29.07 0 0 1 4.35 5.24c.371.59.633 1.047.854 1.433.458.801.741 1.295 1.456 2.017a8.935 8.935 0 0 0 5.17 2.79 8.63 8.63 0 0 0 5.13-.95 9.817 9.817 0 0 0 3.919-3.59 32.39 32.39 0 0 0 1.56-3.4c.423-.979.733-1.71.97-2.271.645-1.524.752-1.776 1.111-2.26a10.205 10.205 0 0 1 3.64-3 15.53 15.53 0 0 1 4.909-1.37 34.343 34.343 0 0 1 10-.19c1.675.108 3.313.543 4.821 1.28a12.373 12.373 0 0 1 4.109 3.87 23.474 23.474 0 0 1 2.12 4c.65 1.397.969 2.236 1.201 2.848.296.782.452 1.194.98 1.923a10.247 10.247 0 0 0 3.73 3.16c1.04.505 2.154.842 3.3 1a15.38 15.38 0 0 0 5.77-.25 19.02 19.02 0 0 0 4.94-1.95 40.27 40.27 0 0 0 8-6c1.57-1.41 2.326-2.235 2.934-2.897.685-.746 1.18-1.285 2.436-2.223a22.997 22.997 0 0 1 6.68-3.68 26.199 26.199 0 0 1 5.479-1.17c.53-.07 1.131-.13 3.841-.23 7.31-.29 8.819-.29 10.839 0 1.046.13 2.082.33 3.101.6.888.24 1.431.448 2.307.783.583.224 1.314.503 2.393.887l.88.317c1.239.448 1.926.697 2.329.763a11.58 11.58 0 0 0 5.2-.07c.61-.157.862-.283 1.27-.487.421-.211 1.009-.505 2.33-1.003a36.144 36.144 0 0 1 3.53-1.15 33.667 33.667 0 0 1 4-.82 39.45 39.45 0 0 1 10.25.23c2.265.253 4.507.67 6.711 1.25a67.25 67.25 0 0 1 14.349 5.93 45.998 45.998 0 0 0 5.35 2.58 15.75 15.75 0 0 0 2.9 1c1.374.314 2.783.445 4.19.39 2.174.02 4.337-.318 6.401-1a22.813 22.813 0 0 0 3.939-1.92 100 100 0 0 1 10.14-4.63 53.76 53.76 0 0 1 7.33-2.34 40.236 40.236 0 0 1 19.341.69 46.488 46.488 0 0 1 13.439 6.12 51.735 51.735 0 0 1 10.91 9.21c3.9 4.42 6 8.37 8.22 12.76 1.309 2.52 2.617 5.744 5.153 11.993l.307.757s1.85 4.58 3.61 10.46a32.534 32.534 0 0 1 1.06 4.57c.323 1.463.454 2.963.39 4.46a9.991 9.991 0 0 1-2.44 6.48 9.093 9.093 0 0 1-4 2.38 13.547 13.547 0 0 1-4.39.49 17.612 17.612 0 0 1-4.25-.35 8.907 8.907 0 0 1-3.16-1.1 8.38 8.38 0 0 1-2.34-2.23 17.771 17.771 0 0 1-2.579-4.71c-1.37-3.63-2.461-6.94-3.26-9.53a184.883 184.883 0 0 0-4.401-13.65 25.13 25.13 0 0 0-2.76-5.7 17.667 17.667 0 0 0-5.81-5.85 14.002 14.002 0 0 0-5.389-2 13.536 13.536 0 0 0-5.491.39 13.157 13.157 0 0 0-4.889 2.63 13.519 13.519 0 0 0-3.461 4.78 21.15 21.15 0 0 0-1.75 7.37c-.346 3.208-.49 5.282-.643 7.5v.002c-.121 1.75-.248 3.59-.487 6.148-.072.803-.495 3.112-1.313 7.581M144.65 92.246l.122.197m-.122-.197.122.197M264.19 55.166a15.117 15.117 0 0 1 2.83-2.55c2.44-1.777 4.817-3.614 7.194-5.45a454.922 454.922 0 0 1 4.926-3.77 8.066 8.066 0 0 1 2.37-1.24 5.738 5.738 0 0 1 2-.32 4.002 4.002 0 0 1 2.35.71c.529.42.94.972 1.19 1.6a4.6 4.6 0 0 1 .43 1.66c.3 10.62.606 21.24.92 31.86.036.47.013.945-.07 1.41a4.854 4.854 0 0 1-4.22 4.15 7.579 7.579 0 0 1-4.64-.81 10.116 10.116 0 0 1-1.91-1.14 129.789 129.789 0 0 1-12.16-10 12.767 12.767 0 0 1-2-2.26 11.718 11.718 0 0 1-1.74-3.65 11.274 11.274 0 0 1 .68-7.48 11.905 11.905 0 0 1 1.85-2.72Z"/>
  <path fill="currentcolor" d="M461.632 99.223c-2.688 0-5.76-.992-8.256-3.456a11.611 11.611 0 0 1-3.456-8.288c0-2.432.768-5.6 3.456-8.288 2.656-2.656 5.792-3.424 8.256-3.424 2.464 0 5.6.768 8.256 3.424a11.611 11.611 0 0 1 3.456 8.288c0 2.432-.768 5.6-3.456 8.288-2.496 2.464-5.568 3.456-8.256 3.456Zm0-1.6c2.112 0 4.704-.64 6.944-2.976 1.248-1.312 2.848-3.552 2.848-7.168s-1.6-5.856-2.848-7.168c-1.28-1.312-3.424-2.944-6.944-2.944s-5.664 1.632-6.944 2.944c-1.248 1.312-2.848 3.552-2.848 7.168s1.6 5.856 2.848 7.168c2.24 2.336 4.832 2.976 6.944 2.976Zm-3.936-5.856V83.19c0-1.76-.704-1.76-1.44-1.792-.096 0-.48-.032-.48-.32 0-.16.128-.288.256-.32.064-.032.16 0 .224 0 .864.096 1.728.096 2.592.096 1.728 0 2.944-.096 3.904-.096.864 0 2.144.128 3.072.928a3.065 3.065 0 0 1 1.056 2.272c0 1.568-1.056 3.04-3.552 3.232v.096c.448.064.928.32 1.376 1.152l2.176 3.968c.352.64.672 1.152 1.344 1.152.224 0 .608-.032.608.352 0 .288-.288.32-.48.32-.352 0-.672-.032-1.024-.032-.448 0-1.056.064-1.568.064-.384 0-.576-.064-.864-.64l-2.4-4.64c-.32-.64-.704-1.344-1.408-1.344h-.8c-.32 0-.288.288-.288.512v3.616c0 .832.096 1.216.288 1.408.256.256.768.352 1.12.384.128 0 .48.032.48.32 0 .352-.416.352-.64.352-.8 0-1.6-.096-2.4-.096-.832 0-1.664.096-2.496.096-.192 0-.576-.032-.576-.352 0-.288.352-.32.48-.32.32-.032.832-.032 1.12-.384.096-.096.32-.448.32-1.408ZM460 82.679v3.744c0 .32-.032.608.544.608h.8c2.24 0 3.136-1.28 3.136-2.784 0-.864-.288-1.536-.672-1.952-.704-.8-1.632-.864-2.656-.864-1.088 0-1.152.544-1.152 1.248Z"/>
</svg>
