<svg id="Слой_1" data-name="Слой 1" xmlns="http://www.w3.org/2000/svg" viewBox="0 0 1080 1080"><defs><style>.cls-1,.cls-12,.cls-13{fill:#fff;}.cls-2{font-size:30px;letter-spacing:0.03em;}.cls-10,.cls-11,.cls-14,.cls-2,.cls-3{fill:#333;}.cls-2,.cls-3{font-family:GaramondNarrowLightITC-Reg, GaramondNarrowLightITC;}.cls-3{font-size:25px;}.cls-4{letter-spacing:0.21em;}.cls-5{letter-spacing:0.21em;}.cls-6{letter-spacing:0.21em;}.cls-7{letter-spacing:-0.02em;}.cls-8{letter-spacing:-0.06em;}.cls-9{fill:#404040;}.cls-11,.cls-12,.cls-13{stroke:#333;}.cls-11,.cls-12,.cls-13,.cls-15{stroke-miterlimit:10;}.cls-12,.cls-15{stroke-width:2px;}.cls-13{stroke-width:1.8px;}.cls-14{font-size:16.27px;font-family:RobotoMono-Medium, Roboto Mono;font-weight:500;}.cls-15{fill:none;stroke:#4d4d4d;stroke-linecap:square;}</style></defs><rect class="cls-1" width="1080" height="1080"/><text class="cls-2" transform="translate(329.63 603.65)">Пираты Каспийского - подполье <tspan x="60.7" y="30">московских акваторий.</tspan></text><text class="cls-3" transform="translate(221.91 967.04)">В<tspan class="cls-4" x="13.95" y="0"> </tspan><tspan x="24.97" y="0">первую</tspan><tspan class="cls-5" x="100.39" y="0"> </tspan><tspan x="111.41" y="0">очередь</tspan><tspan class="cls-4" x="192.91" y="0"> </tspan><tspan x="203.93" y="0">это</tspan><tspan class="cls-4" x="238.23" y="0"> </tspan><tspan x="249.25" y="0">компания</tspan><tspan class="cls-5" x="349.85" y="0"> </tspan><tspan x="360.87" y="0">друзей,</tspan><tspan class="cls-4" x="434.17" y="0"> </tspan><tspan x="445.19" y="0">которых</tspan><tspan class="cls-6" x="533.49" y="0"> </tspan><tspan x="544.51" y="0">объединяет</tspan><tspan class="cls-6" x="663.16" y="0"> </tspan><tspan x="674.18" y="0">любовь</tspan><tspan class="cls-4" x="749.78" y="0"> </tspan><tspan x="760.8" y="0">к </tspan><tspan x="0" y="25">водной</tspan><tspan class="cls-7" x="74.47" y="25"> </tspan><tspan x="79.89" y="25">технике,</tspan><tspan class="cls-7" x="166.94" y="25"> </tspan><tspan x="172.35" y="25">аутдору</tspan><tspan class="cls-7" x="251.23" y="25"> </tspan><tspan x="256.64" y="25">и</tspan><tspan class="cls-7" x="270.09" y="25"> </tspan><tspan x="275.51" y="25">хорошему</tspan><tspan class="cls-7" x="380.26" y="25"> </tspan><tspan x="385.67" y="25">саунд</tspan><tspan class="cls-8" x="442.27" y="25">у</tspan><tspan x="451.17" y="25">.</tspan><tspan class="cls-7" x="455.27" y="25"> </tspan><tspan x="460.68" y="25">Это</tspan><tspan class="cls-7" x="498.03" y="25"> </tspan><tspan x="503.45" y="25">наш</tspan><tspan class="cls-7" x="545.47" y="25"> </tspan><tspan x="550.89" y="25">магазин</tspan><tspan class="cls-7" x="633.51" y="25"> </tspan><tspan x="638.93" y="25">и</tspan><tspan class="cls-7" x="652.38" y="25"> </tspan><tspan x="657.79" y="25">платформа </tspan><tspan x="0" y="50">для анонса мероприятий, релизов и архив полезных материалов.</tspan></text><path class="cls-9" d="M133.57,980.5a1.34,1.34,0,0,0-.23,1.54,3.21,3.21,0,0,0,.42.85,3.12,3.12,0,0,1,.43,2.84,9.7,9.7,0,0,0-.32,3.25,11.65,11.65,0,0,0,.5,2.16,1.19,1.19,0,0,0,1,.85,16.12,16.12,0,0,0,5.28-.1,7.58,7.58,0,0,0,4-2.43,14,14,0,0,1,1.62-1.35c.15-.11.4-.09.72-.16,0,.44,0,.81,0,1.18,0,1.31-.1,2.61-.12,3.91a16.33,16.33,0,0,0,.13,2.1c.11.81.36,1,1.16,1.12a6.26,6.26,0,0,0,.75,0c2,0,4,0,6,0a50.93,50.93,0,0,0,8.53-.92,11.61,11.61,0,0,0,6.71-4,10.1,10.1,0,0,0,2.19-4.2c.55-2.22,1-4.46,1.46-6.72a17.64,17.64,0,0,0,.1-2.63,2.36,2.36,0,0,1,0-.53c.06-.18.15-.43.3-.49a.81.81,0,0,1,.57.11,1.35,1.35,0,0,1,.36.39c1.3,1.64,2.62,3.25,3.87,4.92a16.89,16.89,0,0,1,3.08,7,14.19,14.19,0,0,1-1.4,9.46c-.34.68-.32.76.17,1.19a15.15,15.15,0,0,1,4.86,9.17,13.81,13.81,0,0,1-1.26,8.76,4.68,4.68,0,0,1-.6,1,.8.8,0,0,1-1.43-.21,2.54,2.54,0,0,1-.19-.61,4.72,4.72,0,0,0-1.46-2.52,20.68,20.68,0,0,0-6.78-4.67,25.19,25.19,0,0,0-3.68-1,11.89,11.89,0,0,0-1.89-.22,15.8,15.8,0,0,0-5.12.69c-2.14.59-4.24,1.33-6.33,2.09-1.09.39-2.12,1-3.17,1.45a48.51,48.51,0,0,1-6.43,2.15,37.73,37.73,0,0,1-12.05,1.45,33.94,33.94,0,0,1-7.24-.92c-2.29-.59-4.55-1.28-6.82-1.92a5.71,5.71,0,0,0-.73-.13c.22.89,1.14.91,1.52,1.51a2.24,2.24,0,0,1-1.72.44,2.78,2.78,0,0,0-1.72.42,1.2,1.2,0,0,1-1,.09,5.37,5.37,0,0,1-1.56-.85,1.82,1.82,0,0,0-1.76-.48,2,2,0,0,1-2.21-.55c-.06-.07-.19-.07-.36-.12a5.2,5.2,0,0,0-.26.53,4.79,4.79,0,0,1-.3.88.6.6,0,0,1-1-.06c-.15-.27-.24-.59-.37-.88a9.64,9.64,0,0,0-3-3.75c-.82-.62-.87-.69-.38-1.56a9.51,9.51,0,0,0,1.1-3.62,2,2,0,0,0-1.33-2.35,11.25,11.25,0,0,1-2.45-1.23,3,3,0,0,1-1-1.2c-.27-.51.08-.92.66-.87a5.2,5.2,0,0,1,.82.21,1.06,1.06,0,0,0,1.41-.74,3.24,3.24,0,0,0,.12-1.35c-.1-.83-.32-1.66-.46-2.49a14.84,14.84,0,0,1,.13-6.63c.24-.82.18-.87-.53-1.41a16.69,16.69,0,0,1-1.38-1.14,5.7,5.7,0,0,1-1.45-3.45,13.13,13.13,0,0,0-1.8-5.17,9.6,9.6,0,0,1-1.44-4c0-.06-.08-.11-.16-.22l-1.51.2-.34,2.25a1.3,1.3,0,0,1-1.12,1.23,14.16,14.16,0,0,1-5.69,0,4,4,0,0,1-.9-.31,1.53,1.53,0,0,1-.91-1.2,14.8,14.8,0,0,1,0-4.65,1.36,1.36,0,0,0-.42-1.53,1.42,1.42,0,0,1-.32-1.06,2.79,2.79,0,0,0-.29-1.64,1.15,1.15,0,0,1,0-1.11,8.43,8.43,0,0,0,.63-1.37,2.83,2.83,0,0,1,.25-.77,1.49,1.49,0,0,1,1.11-.91,2.37,2.37,0,0,0,1.26-.7,1.47,1.47,0,0,1,1.83-.39.87.87,0,0,0,1-.13A2.68,2.68,0,0,1,95,961.8a2.28,2.28,0,0,1,.91.3,1.78,1.78,0,0,1,.36.25,1.07,1.07,0,0,0,.36.27c.1,0,.2,0,.3,0a2.16,2.16,0,0,1,1.42,1.2,2.3,2.3,0,0,1,.08,1.8c0,.13-.13.26-.17.39-.22.67-.12.91.56,1.05a1,1,0,0,1,.85.93,1.33,1.33,0,0,0,.87,1.21,5,5,0,0,1,3.07,3.92,10.42,10.42,0,0,0,1.64,3.63,3.38,3.38,0,0,0,1.13,1.35c.37-.22.35-.5.31-.85a14.91,14.91,0,0,1-.1-2.11,3.9,3.9,0,0,1,1.32-2.91,3,3,0,0,0,.82-3.65,3.3,3.3,0,0,1,.55-3.48,4.51,4.51,0,0,0,.81-4,25,25,0,0,1-.31-5.59,2.43,2.43,0,0,1,.18-.83,10.25,10.25,0,0,1,3.78-5.36,4.36,4.36,0,0,1,2.15-.77,13.94,13.94,0,0,1,3.36.18,2.59,2.59,0,0,0,.83-.06c.55-.09,1.1-.22,1.65-.33a5.36,5.36,0,0,1,5.26,2,10,10,0,0,1,2.45,4.75,2.91,2.91,0,0,0,.16.5c.36.89.62,1,1.53.63a2.66,2.66,0,0,1,2.44.25c1.75,1,3.22,2.22,3.34,4.45a2,2,0,0,0,.15.51c.79,2.81,1.57,5.63,2.38,8.44.51,1.77,1,3.53,1.58,5.28a6.48,6.48,0,0,1,.12,4.06,2.39,2.39,0,0,1-2.44,1.83,13.77,13.77,0,0,1-3.89-.35c-.38-.09-.76-.15-1.2-.23m-1.3-21.12c-.18-.24-.39-.62-.66-.48s-.13.48-.06.69.85,1.51,0,1.44c-.28,0-.72,0-.78.31s.25.66.38.88c.61,1,1.26,2,2,2.9a13,13,0,0,1,2.31,4.62,38.73,38.73,0,0,1,1,4.22c.14,1.25-.46,1.41-.46,1.41l-2-.66L128.66,973c-.87-.29-1.76-.53-2.6-.89a2.8,2.8,0,0,1-1.24-.92,18.57,18.57,0,0,1-1.62-3,6,6,0,0,1-.53-4.13.81.81,0,0,0,0-.31c0-.35-.6-.31-.6-.31l-.48.41c-.13.11-1,.54-1.11.64.83-.93,1.67-1.73,1.67-2.78,0-2.08-.11-4.17-.09-6.25a4.14,4.14,0,0,0-1.46-3.37,4.34,4.34,0,0,0-5-.84,1.44,1.44,0,0,0-.63.51,10.54,10.54,0,0,0-.51,1.22.53.53,0,0,0,.05.14,1.55,1.55,0,0,0,.23.21,2.72,2.72,0,0,1,1.27,2.52,6.53,6.53,0,0,1-.85,3.13c-.45.77-.27,1.07.63,1.13a3,3,0,0,1,1.86.4c0,.24-.32.29-.45.29a6.93,6.93,0,0,1-1.58-.09c-1.11-.24-1.35-.75-1.05-1.84.12-.42.42-.85.14-1.32a1.09,1.09,0,0,0-1.42,1.07,6.2,6.2,0,0,0,1.25,5.09,3,3,0,0,0,1.87,1.08c1,.17,1.31.53,1.27,1.58a2.69,2.69,0,0,1-.29,1.11,26.51,26.51,0,0,1-3.32,5.65,1.86,1.86,0,0,0-.29.44,1.84,1.84,0,0,0,.15,1.92,1.71,1.71,0,0,0,1.87.71,3.25,3.25,0,0,0,1.16-.5c.67-.5,1.28-1.09,1.92-1.64.16-.14.35-.25.65-.47a6.42,6.42,0,0,1-2.18,3.15,2.72,2.72,0,0,1-1.53.65,1.68,1.68,0,0,0-1.53,1.08,29.82,29.82,0,0,0-2.34,6.79,8,8,0,0,0-.39,2,22.54,22.54,0,0,0,.16,5.19,1.19,1.19,0,0,1,0,.42c-.16,1.33-.42,2.66-.47,4a33,33,0,0,0,.14,4.45,9.12,9.12,0,0,0,2.14,4.67,27.43,27.43,0,0,0,5.07,5,13.2,13.2,0,0,0,5.82,2.67,3.12,3.12,0,0,0,3.68-1.78,4.56,4.56,0,0,0,.25-2.61c-.11-.56-.21-1.12-.33-1.78a3.42,3.42,0,0,1,1.44,1.53,4.06,4.06,0,0,1,.3,3.53,3.12,3.12,0,0,0,3.75-2.4,5.43,5.43,0,0,0-.11-2.5c-.91-.14-1.79-.21-2.64-.42a4.57,4.57,0,0,1-2.38-1.13l1-.58c.61.26,1.11.51,1.65.69a2.27,2.27,0,0,0,1.75-.06,1.08,1.08,0,0,0,.7-1.35,4.9,4.9,0,0,0-1.19-2.22c-.7-.84-1.43-1.64-2.17-2.49a4.81,4.81,0,0,0,1.06-3.2,3.28,3.28,0,0,0-1.79-3.14c-.44-.23-.86-.5-1.31-.7a5.44,5.44,0,0,1-2.43-2.43c-.2-.33-.39-.68-.61-1a7.4,7.4,0,0,1-1.33-4.81c.07-1.59,0-3.19,0-4.78a2.42,2.42,0,0,0-.42-1.62c-.47,0-.93,0-1.39,0a2.07,2.07,0,0,1-2.19-2.2,13.62,13.62,0,0,1,.19-1.78,1.87,1.87,0,0,1,.75-1.13c0,.7,0,1.22,0,1.75a1.75,1.75,0,0,0,1.94,1.76,2.59,2.59,0,0,0,1.71-.75,7.14,7.14,0,0,0,1.63-2.06s0,0,0,.11a11.43,11.43,0,0,1-.6,3.22c1.63.5,3.19,1,4.79,1.45a17.36,17.36,0,0,0,5.37.51,11.73,11.73,0,0,0,2.5-.39,1.87,1.87,0,0,0,1.49-2.32,20.55,20.55,0,0,0-.49-2.6q-.72-2.82-1.53-5.62t-1.64-5.36a2.61,2.61,0,0,0-.66-1.06,8.56,8.56,0,0,1-2.16-3.36c-.18-.48-.37-1.25-.93-1.19s-.41.47-.3.8.43.8.56,1.17c0,0,.26.64-.11.08M106,981.09a1.17,1.17,0,0,1-.19-.14.64.64,0,0,1-.15-.28,9.65,9.65,0,0,0-2.35-4.09,4.69,4.69,0,0,1-1-2.84,8.42,8.42,0,0,0-.26-1.67,2.15,2.15,0,0,0-2.18-1.64,3.19,3.19,0,0,1-1-.13c-.35-.12-.49-.1-.55.06s0,.25.07.29a2.62,2.62,0,0,0,.48.4,3.13,3.13,0,0,1,1.52,3.52,2,2,0,0,0,.4,1.59,5.52,5.52,0,0,1,.8,1.36c.62,1.73,1.19,3.47,1.75,5.21.3.9.53,1.83.81,2.74a2.39,2.39,0,0,0,3.68,1,10.76,10.76,0,0,0,1.11-1.13,12.86,12.86,0,0,0,1.08-1.57c1-1.84,2.09-3.68,3.1-5.54a1.69,1.69,0,0,0-.22-2.13,2.53,2.53,0,0,1,0-3.56,9.52,9.52,0,0,1,1.47-1.36,2.51,2.51,0,0,0,.9-1.07c-.31-.39-.6-.35-.84-.06a1,1,0,0,1-.92.43,1.41,1.41,0,0,0-1.32.72,17.1,17.1,0,0,0-2.26,4.42,9.51,9.51,0,0,1-.81,1.59c-.28.48-.62.94-.93,1.41s-.8,1.25-1.24,1.85a1.14,1.14,0,0,1-.91.6m69.68,17.12a12.88,12.88,0,0,0,2.85-6.09,18.93,18.93,0,0,0,.17-4.32,9.66,9.66,0,0,0-1.27-4.21c-.06-.12-.22-.19-.51-.42a19.51,19.51,0,0,1,.82,4.34,11.37,11.37,0,0,1-.52,4.18c-.52,1.28-.86,2.66-2,3.6a17.85,17.85,0,0,0,1.1-6.71c0-2.24,0-4.56-1.16-6.63,0,1,.1,2,.06,3a14.29,14.29,0,0,1-.42,3.13,12,12,0,0,1-1.18,2.82,28.18,28.18,0,0,1-1.87,2.56,7.17,7.17,0,0,1,1.15,1.11,16.63,16.63,0,0,1,1.45,2.57c.28.6.57,1,1.38,1m-4.72,9.61.23.18,1.53-1.08a4.53,4.53,0,0,0,1.87-4.36,11.4,11.4,0,0,0-1-3.86,6.73,6.73,0,0,0-3.67-3.63,2.65,2.65,0,0,0-.6,0,1.61,1.61,0,0,0,.11.39,17,17,0,0,1,2.45,7,7.8,7.8,0,0,1-.76,4.81,2.15,2.15,0,0,0-.13.57M96.85,964.27c0-.19.24-.3.41-.38s.24-.1.21-.28-.32-.16-.41-.16a3,3,0,0,1-.72-.09,1.06,1.06,0,0,1-.5-.36,1.27,1.27,0,0,0-1.75-.5,13.19,13.19,0,0,0-1.48.79c-.24.1-.3,0-.33-.16-.75-.33-1.14-.22-1.69.46a1.2,1.2,0,0,1-1,.49.8.8,0,0,0-.88.61,4,4,0,0,1-.78,1.47c-.47.68-.33,1.34.43,2,.05,0,.12,0,.12-.12a3.15,3.15,0,0,1-.26-1.2c.53.09.89.47,1.32.36a1.18,1.18,0,0,1,1.5.13c.58.45,1.07.33,1.55-.25a3.66,3.66,0,0,1,.57-.66c.33-.08.7.32,1,.22s.68-.61.71-.63.23,0,.25,0c.09,1,.9.81,1.22.64s.33.33.57.34.31,0,.32-.11-.2-.63-.15-.81.29-.14.51-.31c.41-.33.3-.67-.17-1-.19-.15-.54-.18-.56-.46M94.62,974H95c0-.31.07-.62.08-.93,0-.74,0-1.49,0-2.22s0-1.33.66-1.77a.28.28,0,0,1,.18,0s.31-.92,0-1.07c-1,0-.94-.66-1.32-.61-.06,0-.44.48-.86.47-.18,0-.6-.1-.77.06a1.44,1.44,0,0,1-1.92.18,1.22,1.22,0,0,0-1.57.24c.07.12.16.11.22.17.49.48.34,1.13.34,1.74,0,1,0,2,0,3.08a3.76,3.76,0,0,0,.1.66,18.19,18.19,0,0,0,.4-2.6A7.52,7.52,0,0,1,90.8,969c.09-.19.19-.52.35-.49s.17.67.16.91c0,1.27-.11,2.54-.19,3.81a14.93,14.93,0,0,1-.23,1.78,2.77,2.77,0,0,1-.38.69c-.83-.53-1-.7-1-1.46,0-1.06,0-2.12,0-3.18a2.75,2.75,0,0,0-.2-.72c-.15.22-.26.29-.26.37,0,1.66-.07,3.33,0,5,0,.88.65,1.33,1.56,1.4.43,0,.85,0,1.28,0l3.12-.06v-.2a5.31,5.31,0,0,0-.67-.08c-.89,0-1.77,0-2.66,0A3.09,3.09,0,0,1,90,976.3l0-.23h4.62a2.72,2.72,0,0,1-.68-2.32c0-.81,0-1.63,0-2.44s.09-2.12.33-2.09,0,3.18.28,4.74M136,995.42a5.21,5.21,0,0,0,1.27,2.82,5.86,5.86,0,0,1,1.67,3.66c0,.47.31.59.72.54a3.1,3.1,0,0,0,2.39-2.37,3.76,3.76,0,0,0-1.32-3.39,4.7,4.7,0,0,0-4.73-1.26m47.74,20.13a4.71,4.71,0,0,0,.4-.79,9.33,9.33,0,0,0,.27-4,7.67,7.67,0,0,0-5.66-6,3,3,0,0,0-1.73.08c3.5,2.78,5.29,6.49,6.72,10.73m-41.94-13c.39.52.73.92,1,1.36.56.91.95,1,1.82.42a2.4,2.4,0,0,0,.73-.76,5.19,5.19,0,0,0-.07-5.35,2.1,2.1,0,0,0-2-1c-.08,1.9-.14,3.79-1.48,5.33m-29.51-36.35c-.06.15-.13.3-.19.46-.18.49-.41,1-.54,1.48a.65.65,0,0,0,.22.61.71.71,0,0,0,.66-.1,1.36,1.36,0,0,0,.42-.81,4.18,4.18,0,0,1,.61-2.21,2.43,2.43,0,0,0,.21-.71.54.54,0,0,0-.33-.66l-.81,1.21c-.26-1.59-.5-3-.7-4.35a4,4,0,0,1,.11-.83c0-.6.07-1.2.06-1.8,0-.15-.2-.3-.32-.47a1.38,1.38,0,0,0-.61,1.34c.07,1.31.14,2.61.22,3.91a2.91,2.91,0,0,1-.38,1.63,6.84,6.84,0,0,0-.89,4.08,4.75,4.75,0,0,1-1.28,4,3.85,3.85,0,0,0-.81,3.15c.27-.33.41-.47.52-.64.58-1,1.16-1.94,1.72-2.92a3.76,3.76,0,0,0,.51-2.86c-.46-1.62.3-2.66,1.6-3.49m15.8,48.4c0,.08,0,.16,0,.24.53.16,1.06.34,1.59.49a5.63,5.63,0,0,0,5-.76,7,7,0,0,0,2.74-4.13c.11-.41-.09-.61-.5-.57a7.5,7.5,0,0,1-.93.15c-.51,0-.74.25-.92.7a7.42,7.42,0,0,1-.74,1.39,3.3,3.3,0,0,1-3,1.6,5.57,5.57,0,0,0-3.25.89m16.28-2.78c1.06-.78,2-1.47,3-2.22a2.55,2.55,0,0,0,.73-1,2.43,2.43,0,0,0-2.4-3.45,1.17,1.17,0,0,0-1.2,1.21,10.12,10.12,0,0,1-.37,3.14,3,3,0,0,0,.27,2.33m-4.31-7.74c-.1.11-.14.14-.14.16a1.14,1.14,0,0,0,0,.41,3.24,3.24,0,0,1-1,3.36,1.45,1.45,0,0,0-.34.83c-.05.56,0,1.12,0,1.69a6.16,6.16,0,0,0,.09.72c.16,0,.29,0,.36,0a30.73,30.73,0,0,0,3.07-2.22,3,3,0,0,0,.74-3.24,1.86,1.86,0,0,0-.83-1,11.58,11.58,0,0,0-1.9-.66m-16.22-45.9-.06,0a.57.57,0,0,0-.19.29,3,3,0,0,0,1,3.29c.67.56,1.37,1.1,2.07,1.63a10.37,10.37,0,0,1,2.85,3.36,11,11,0,0,1,1.09,4.05c0,.29-.12.76.34.76s.46-.53.44-.88a9.6,9.6,0,0,0-2.36-6.29c-.63-.71-1.32-1.37-2-2a6.48,6.48,0,0,1-1.94-3,1.79,1.79,0,0,0-.46-.8c-.16-.16-.5-.54-.76-.44m25.58,46.59a13.92,13.92,0,0,0,0,2c.11.87.34,1.72.51,2.58.05.24,0,.5.08.74a.49.49,0,0,0,.87.27,12.68,12.68,0,0,0,1.59-1.69,2.16,2.16,0,0,0,.08-2.57,2.84,2.84,0,0,0-3.15-1.28m-6.79,5.73c-.72.41-1.31.8-1.94,1.09s-1.39.5-2.08.77a.91.91,0,0,0-.47.36c-.43.83-.82,1.68-1.25,2.6a4.11,4.11,0,0,0,.67.12,6.65,6.65,0,0,0,3.64-1.23,3.89,3.89,0,0,0,1.22-1.27,2.4,2.4,0,0,0,.21-2.44m-37.1-7.76c1.41.11,2.53-.76,2.44-1.84-.14-1.61-.43-3.21-.67-4.81-.1-.66-.28-1.31-.36-2a8.23,8.23,0,0,1,.88-4.21,6.88,6.88,0,0,0,.49-1.28c0-.17-.15-.46-.32-.58a.59.59,0,0,0-.55.1,2,2,0,0,0-.51.79,17.66,17.66,0,0,0-.76,4.15,19.76,19.76,0,0,0,.72,6.08,2.73,2.73,0,0,1-.69,2.62,9.1,9.1,0,0,0-.67,1m56.67,4.69a9.78,9.78,0,0,0,3.48-1.76.75.75,0,0,0,.31-.4c.08-.73.25-1.47-.33-2.1a2,2,0,0,0-2.13-.53,1.23,1.23,0,0,0-.6.51c-.38.59-.71,1.21-1,1.82a1.08,1.08,0,0,0-.14.6c.12.61.29,1.21.45,1.86m-6.78.66c.48-.45.9-.82,1.31-1.22a1.9,1.9,0,0,0,.61-1.82,11.77,11.77,0,0,0-.83-1.9s-.11-.09-.17-.11l-1.51-.31c-.22.41-.39.75-.58,1.09a3,3,0,0,0,1.17,4.27m28.25-1.45c.07-.17.14-.25.12-.29a12,12,0,0,0-2.46-4.14c-1.62-1.62-3.51-1.55-5.5-1.1a.56.56,0,0,0-.36.42.61.61,0,0,0,.34.46,8.71,8.71,0,0,0,1,.22,8.12,8.12,0,0,1,1.31.34,13.16,13.16,0,0,1,4.87,3.43c.2.22.41.42.64.66m-24.23-7.42c-.12.8-.17,1.36-.29,1.9a3.59,3.59,0,0,1-.48,1.49,1.51,1.51,0,0,0-.29,1.56,3.24,3.24,0,0,1,.12.62c.12.78.31.88,1,.55a3.42,3.42,0,0,0,.94-5.6,4.43,4.43,0,0,0-1-.52m7.72,4.73c.26,1.16.5,2.21.73,3.27.08.34.29.44.63.4a2.37,2.37,0,0,0,2-1.93,6.76,6.76,0,0,0-.05-2,2.6,2.6,0,0,0-.91-1.89,4.26,4.26,0,0,1-2.38,2.16m.22-2.36a2.29,2.29,0,0,0,.44-.14,2.71,2.71,0,0,0,.81-3.66c-.87-1.74-2.5-1.93-3.85-.39a12.08,12.08,0,0,1,2.6,4.19m-19.65-1.32c-.12.53-.28,1.14-.38,1.76a4.41,4.41,0,0,0-.09,1.35c.07.5.38.63.85.44a3.62,3.62,0,0,0,1.82-1.4,2.66,2.66,0,0,0-1.74-4c-.47-.12-.74.15-.67.65s.12.76.21,1.25m-15.6-8.56c.9-.28,1-.44.84-1.24-.06-.27-.15-.54-.22-.82a7.65,7.65,0,0,1-.2-3.77,3.81,3.81,0,0,0-.35-2.87,3.32,3.32,0,0,1-.4-1.71,6.67,6.67,0,0,0-.24-1.2c-1.14,1.61-1.14,1.61-.5,3.11a6.56,6.56,0,0,1,.44,1.19,8.54,8.54,0,0,1,.17,1.88c0,.7-.25,1.38-.33,2.08-.13,1.21-.2,2.41.79,3.35m20.07,12.06a15.28,15.28,0,0,0,1.52-1.48,2.25,2.25,0,0,0-.55-3.4,6.07,6.07,0,0,0-1.62-.72c-.46-.15-.7.08-.56.54a13.53,13.53,0,0,1,.49,3.74,1.66,1.66,0,0,0,.72,1.32m23.6-4.3a3,3,0,0,0,3.16-1,7.3,7.3,0,0,0,1.53-4.22,10.49,10.49,0,0,0-.13-3.25,13.46,13.46,0,0,1-4.56,8.43m-10.17,1.82a1.75,1.75,0,0,0,0-.4,3.86,3.86,0,0,0-.21-.6,4.53,4.53,0,0,0-3.6-2.77.79.79,0,0,0-1,.37c-.25.44,0,.71.24,1,.51.58,1,1.19,1.49,1.77a1.13,1.13,0,0,0,.56.4c.82.1,1.65.14,2.52.21m-5.49,5.61c-.6.05-1.12.11-1.64.12a.93.93,0,0,0-.85.5,8.61,8.61,0,0,1-.83,1.08l-.63.74c.5,1.61,1.31,1.6,2.16,1.32a3.19,3.19,0,0,0,1.79-3.76m-51.07-5.42a8.35,8.35,0,0,0-.29,1.15,10.55,10.55,0,0,0,0,1.59,11.93,11.93,0,0,1-.67,5.2,1.54,1.54,0,0,0,0,1.42,6.47,6.47,0,0,0,2,2.11,2.59,2.59,0,0,0-.22-.89c-.27-.61-.55-1.22-.83-1.82a2,2,0,0,1,0-1.54c.35-1.14.64-2.3,1-3.45a4.52,4.52,0,0,0-.36-3.09,4.09,4.09,0,0,0-.57-.68m23.25-6.86a12.32,12.32,0,0,0,.09,1.47,5.43,5.43,0,0,1,0,2.2c-.12.54-.18,1.09-.28,1.79a5.65,5.65,0,0,0,1.09-.08,2.43,2.43,0,0,0,1.63-2.27c0-1.47-.69-2.44-2.51-3.11m2.7,9.93a3.13,3.13,0,0,0,1.12-5.51c-.1.08-.21.13-.25.22a7.74,7.74,0,0,1-1.5,2.76.55.55,0,0,0-.06.49c.21.67.45,1.32.69,2m-5-13.1a3.43,3.43,0,0,0,0-1,6.17,6.17,0,0,1,.08-3.25c.46-2.09.7-1.9-.43-4.47a2.44,2.44,0,0,1-.1-1.86,2.92,2.92,0,0,0,0-.94c-.49.09-.59.42-.69.77a4.07,4.07,0,0,0,.18,2.58,3.78,3.78,0,0,1,.1,2.28A16.52,16.52,0,0,0,129,990a1.61,1.61,0,0,0,1.07,1.43m24.27,17.26c-.58.69-1.11,1.41-1.74,2s-1.39,1.24-2.24,2a5.89,5.89,0,0,0,.9.33,4.07,4.07,0,0,0,2.71-.66c1.44-.88,1.64-2.38.37-3.71m-15.87-4.89c-.15,0-.25,0-.28,0a10.22,10.22,0,0,1-2.44,2,.7.7,0,0,0-.35.47,9.38,9.38,0,0,0,.08,2.59,4.19,4.19,0,0,0,3-5.1m18.41-1.77a3.62,3.62,0,0,0,1.34-2,1.82,1.82,0,0,0-2.09-2.2c-.17,0-.35,0-.53.07-.77.13-1,.62-.63,1.28.59,1,1.24,1.87,1.91,2.88m-36.42-52a12,12,0,0,1,1.13.8,3.47,3.47,0,0,0,2.35.81c.32,0,.64,0,1,0a1.69,1.69,0,0,1,1.41.6,5.66,5.66,0,0,0,.6.6,2.31,2.31,0,0,0,.47.24,10.77,10.77,0,0,0-.84-1.35,4.52,4.52,0,0,0-4.7-2.19c-.45.07-1,0-1.37.48m5.6,29.69c.94.24,1,.29,1,1.24a13.75,13.75,0,0,0,.24,2.4,6.7,6.7,0,0,1,0,3.24,20,20,0,0,0-.38,2.19,1.57,1.57,0,0,0,.78,1.75c.09-.24.25-.44.21-.6a5.82,5.82,0,0,1,0-2.2,20.63,20.63,0,0,0,.17-3.68,29.82,29.82,0,0,1-.34-3.78,1.46,1.46,0,0,0-.33-1,1.18,1.18,0,0,0-.83-.31c-.4,0-.61.28-.58.71m3.69-9.55c-.16-.54-.33-1-.43-1.48a5.33,5.33,0,0,0-1.7-3c-.42-.38-.8-.79-1.23-1.16a9.05,9.05,0,0,0-1.1-.83c-.26-.17-.58-.32-.84,0s-.07.62.16.84a4.18,4.18,0,0,0,.92.69,4.73,4.73,0,0,1,2.61,3.5,3.71,3.71,0,0,0,.26.92,2.67,2.67,0,0,0,.5.78.62.62,0,0,0,.55.14c.14-.06.21-.31.3-.45m-18.4,34.44h-.27c0,.21-.15.45-.08.63a2.48,2.48,0,0,1-.26,1.94c-.16.35-.29.72-.42,1.08a3.12,3.12,0,0,0,.15,2.57,7.07,7.07,0,0,0,1.47,1.7c.1-.19.23-.31.22-.42a21.28,21.28,0,0,0-.4-2.39,2.63,2.63,0,0,1,0-1.73,2.58,2.58,0,0,0,.1-1.24c-.11-.72-.32-1.43-.48-2.14m22.53-32a5.64,5.64,0,0,0,.1-.56,12.64,12.64,0,0,0-.54-3.86,12.25,12.25,0,0,0-2.13-3.62c-.19-.28-.48-.4-.84,0,.2.37.44.76.63,1.17a9.13,9.13,0,0,1,.83,2,18.27,18.27,0,0,1,.23,3c0,1.5,0,1.5,1.72,1.77m11.7,21c-.68.18-1.28.36-1.9.49a15.18,15.18,0,0,1-1.77.29c-.59.07-1.19.09-2,.14a3.57,3.57,0,0,0,.58.44,8.49,8.49,0,0,0,3.59.7c1.24-.06,1.7-.63,1.49-2.06m-21.18-29c-.52.2-.52.44-.37.67.53.83,1,1.68,1.62,2.46a7.38,7.38,0,0,1,1.29,2.16,3.53,3.53,0,0,0,2.21,2.12c.06,0,.17-.08.25-.12a.94.94,0,0,0-.06-.23.81.81,0,0,0-.21-.24,5.1,5.1,0,0,1-1.93-2.81,4,4,0,0,0-.9-1.53c-.72-.75-1.62-1.35-1.9-2.48m5.15-2.47a1.93,1.93,0,0,0-.07-2,10.08,10.08,0,0,0-4-3.46c-.08,0-.2,0-.33,0a1,1,0,0,0,.54.95,11.91,11.91,0,0,1,3.36,3.87,5,5,0,0,0,.53.59m-19.08,23.7c-1.14,1.14-2,5.6-1.48,7.63.14-.39.23-.64.3-.89.21-.74.39-1.49.61-2.22.16-.54.39-1.06.55-1.6a6,6,0,0,0,0-2.92M176,1007a1.77,1.77,0,0,0-.59,2.2c.25.5.64.64,1.41.55.58-1.66.47-2-.82-2.75m-32.45,7.32.19.16a4.76,4.76,0,0,0,2.59-2.18l-2.07-.31-.71,2.33m-31.88-59.17a5.26,5.26,0,0,0,1.8-3.64c-1.67.94-2.17,1.31-1.8,3.64m3,55.26c.1,1.77.36,2.49,1.14,3.2.78-1.66.18-3-1.14-3.2M138,993.3c2.12.65,6-.18,6.66-1.39-1.08.33-2.12.73-3.2,1s-2.21.28-3.46.43M96.8,972.6a.9.9,0,0,0,1-.62,11.43,11.43,0,0,0-.67-1.23c-.13-.34,0-1.18-.15-1.26s-.15.06-.19.13a5,5,0,0,0,0,3M148.35,1011c-.27.65-.49,1.12-.66,1.6s-.69.88-.54,1.52c1.56-.86,1.87-1.58,1.2-3.12m-23.29-56.23a5.13,5.13,0,0,0,3,1.78,3.06,3.06,0,0,0-3-1.78m40.28,53.64-2.7-.12c-.11,0-.25,0-.31,0a1.07,1.07,0,0,0-.32.45c0,.06.23.29.35.28a5,5,0,0,0,3-.63M126,983a2.56,2.56,0,0,0,.34,3.15c-.05-1.06.25-2.06-.34-3.15m-10.62-33.07c.64.48,1.35-.22,2,.12,0,0,.21-.14.32-.22-.83-.82-1.47-.79-2.3.1m-2,60.45c.42-1.41.29-2-.45-2.58a5,5,0,0,0,.45,2.58M135,960.23a.26.26,0,0,0,.11.07c.18.05.35-.17.38-.33a.89.89,0,0,0-.13-.53,3.52,3.52,0,0,0-.31-.39,4.26,4.26,0,0,0-.39-.36.41.41,0,0,0-.1-.06s-.23-.13-.28,0a1.6,1.6,0,0,0,.29.75m-6.88,2.22c-.12-1-.68-1.62-1.42-1.58a2.86,2.86,0,0,0,1.42,1.58m-9.78,51.12c-.53,1.29-.41,1.81.45,2,0-.06.07-.13.06-.19-.16-.57-.32-1.13-.51-1.76m-4.49-57.69c0,.34.52.33.72.34a1,1,0,0,0,.62-.27.46.46,0,0,0-.09-.44.93.93,0,0,0-.65-.17c-.19.05-.6.38-.6.54m12-1.56.22-.15c-.07-.16-.08-.42-.2-.48a1.85,1.85,0,0,0-1.6-.26l1.58.89m-26.85,19.7c0-.09,0-.19-.08-.28-.47-.18-.79,0-1,.6l1.07-.32"/><path class="cls-10" d="M119,957.81a2.06,2.06,0,0,1-1.66-.25,1.19,1.19,0,0,1-.49-1.2,1.12,1.12,0,0,1,1-.69,1.93,1.93,0,0,1,.42,0,4.61,4.61,0,0,1,1.68.46c0,.47-.21.68-.45.63s-.57,0-.58.16c-.17.3.4.69.09.89"/><path class="cls-10" d="M117.4,954.5a9.35,9.35,0,0,1,1.32-.48c.17,0,1.51.48,1.51.94s-.46.41-.6.29a3,3,0,0,0-1.23-.8c-.37,0-.31,0-.94.2Z"/><path class="cls-10" d="M115.33,962.08h2.07c-.67,1-1.51.9-2.07,0"/><path class="cls-10" d="M117.89,992.87a.5.5,0,0,1-.5-.55.51.51,0,0,1,.47-.46.58.58,0,0,1,.51.51.46.46,0,0,1-.48.5"/><path class="cls-10" d="M115.58,963.89c0-.12,0-.27.17-.26s1,0,1,.26-.43.48-.73.34a1.37,1.37,0,0,1-.37-.26.1.1,0,0,1,0-.08"/><path class="cls-10" d="M115.56,975.19a.35.35,0,0,1-.14,0c-.37-.15-.21-.72.14-.78s.36.18.36.42a.38.38,0,0,1-.36.39"/><path class="cls-10" d="M123,975.58a.38.38,0,0,1-.52.33.36.36,0,0,1,.15-.69.4.4,0,0,1,.37.36"/><path class="cls-10" d="M92.51,964.37c-1-.09-1.09.66-1.26,1.42l-1.06-.41-1,.45c.05-1,.15-1.1.92-1.24.17,0,.44,0,.5-.11.52-.89,1.17-.41,1.85-.11"/><path class="cls-10" d="M96.3,965.47A2.64,2.64,0,0,0,94.16,964c.32-.62.78-.54,1.21-.41.7.21,1,.85.93,1.88"/><path class="cls-10" d="M93.48,969.11c.35-.06.3,3.73-.12,5.57-.08.34-.27.69-.72.66s-.61-.32-.71-.68a2.22,2.22,0,0,1-.08-.63c0-1.45,0-2.9,0-4.35,0-.13,0-.47.26-.42.09,0,.23.37.25.56,0,.78,0,1.56.1,2.33a3.8,3.8,0,0,0,.38,1.55c.08-.79.17-1.59.26-2.38s0-2.15.37-2.21"/><path class="cls-10" d="M133.4,971.94a.73.73,0,0,1-.63-.88,11.9,11.9,0,0,0-.37-3.94,8.18,8.18,0,0,1,1,4.82"/><path class="cls-11" d="M384.45,553.78a28.26,28.26,0,0,1,1.16-4.6c4.14-12.31,2.48-7.92,3.77-11.4,2.12-5.72,4.06-10.87,5.92-15.78a8.67,8.67,0,0,1,2-3.12,10.18,10.18,0,0,1,3.07-2c1-.52,2.52-1.22,4.33-2a24.74,24.74,0,0,1,5.21-1.87,11.4,11.4,0,0,1,5,0c1.05.25,1.18.48,3.66,1.57,0,0,2,.9,4.23,1.72a34.69,34.69,0,0,0,6.36,1.9,25.57,25.57,0,0,0,7,.25,26.33,26.33,0,0,0,6.43-1.53c1.68-.57,8.05-2.72,13.2-3.88a60.15,60.15,0,0,1,16-1.09,18,18,0,0,1,4.75,1,17.47,17.47,0,0,1,6,3.62,22.09,22.09,0,0,1,3.36,4,13.44,13.44,0,0,0,1.79,2.67,6.93,6.93,0,0,0,4,2.15,6.68,6.68,0,0,0,4-.73,7.66,7.66,0,0,0,3-2.77,25.29,25.29,0,0,0,1.2-2.63c1.21-2.82,1.23-3,1.61-3.51a7.79,7.79,0,0,1,2.81-2.3,11.79,11.79,0,0,1,3.8-1.06,26.72,26.72,0,0,1,7.75-.15,9.74,9.74,0,0,1,3.72,1,9.44,9.44,0,0,1,3.18,3,18.67,18.67,0,0,1,1.65,3.11c1.14,2.46.95,2.69,1.68,3.69a8,8,0,0,0,2.88,2.45,8.47,8.47,0,0,0,2.56.77A11.8,11.8,0,0,0,536,526a14.38,14.38,0,0,0,3.81-1.51,30.68,30.68,0,0,0,6.18-4.63c2.58-2.36,2.34-2.59,4.15-4a18.14,18.14,0,0,1,5.17-2.85,20.69,20.69,0,0,1,4.23-.9c.41,0,.88-.09,3-.18,5.65-.22,6.82-.22,8.39,0a18.31,18.31,0,0,1,2.4.47c1.14.3,1.58.55,3.63,1.29a24.43,24.43,0,0,0,2.48.83,8.72,8.72,0,0,0,4,0c1-.25.78-.39,2.78-1.15a26.71,26.71,0,0,1,2.73-.89,24.84,24.84,0,0,1,3.14-.63A30.27,30.27,0,0,1,600,512a37.92,37.92,0,0,1,5.19,1,52.09,52.09,0,0,1,11.1,4.58,35.58,35.58,0,0,0,4.13,2,12.85,12.85,0,0,0,2.25.8,12.56,12.56,0,0,0,3.23.3,15.32,15.32,0,0,0,4.95-.78,16.91,16.91,0,0,0,3.05-1.48,78,78,0,0,1,7.84-3.58,42.94,42.94,0,0,1,5.67-1.81,31.11,31.11,0,0,1,14.95.53,35.94,35.94,0,0,1,10.4,4.73,40,40,0,0,1,8.43,7.13,44.12,44.12,0,0,1,6.36,9.86c1,2,2.11,4.64,4.22,9.87,0,0,1.43,3.54,2.8,8.08a27,27,0,0,1,.82,3.53,14,14,0,0,1,.3,3.46,7.8,7.8,0,0,1-1.89,5,7.11,7.11,0,0,1-3.07,1.84,10.59,10.59,0,0,1-3.4.38,13.74,13.74,0,0,1-3.29-.28,6.9,6.9,0,0,1-2.43-.84,6.57,6.57,0,0,1-1.81-1.73,13.61,13.61,0,0,1-2-3.64c-1.06-2.81-1.9-5.37-2.52-7.38-1.25-4.44-2.46-8-3.4-10.54a19.31,19.31,0,0,0-2.14-4.42,13.67,13.67,0,0,0-4.49-4.52,10.86,10.86,0,0,0-4.17-1.5,10.2,10.2,0,0,0-4.24.3,9.9,9.9,0,0,0-3.78,2,10.41,10.41,0,0,0-2.68,3.69,16.37,16.37,0,0,0-1.35,5.7c-.49,4.44-.46,6.08-.88,10.56-.06.68-.44,2.76-1.2,6.91a7.16,7.16,0,0,1-1.5,3.65,6.54,6.54,0,0,1-2.34,1.68,7.47,7.47,0,0,1-1.83.44,14.63,14.63,0,0,1-4.56.07,9.86,9.86,0,0,1-3.25-.91,9.28,9.28,0,0,1-3.07-2.49,12.77,12.77,0,0,1-2.31-4.31c-1.12-3.24-.8-4.59-1.64-8.66a29.35,29.35,0,0,0-1.39-5.15A21.2,21.2,0,0,0,618,536.6a23.91,23.91,0,0,0-7.78-3.44,8.13,8.13,0,0,0-3.36-.22,7.38,7.38,0,0,0-3.07,1.24,7.76,7.76,0,0,0-2.56,3.26,11.62,11.62,0,0,0-1,3.58,55.66,55.66,0,0,0-.33,7c-.08,2.55-.17,1.82-.36,5.66a30.92,30.92,0,0,1-.59,6.18,9.52,9.52,0,0,1-1.46,3.61,8,8,0,0,1-2.78,2.41,9,9,0,0,1-3.68.94,13.26,13.26,0,0,1-5.92-.68,18.62,18.62,0,0,0-2.63-.91,9.63,9.63,0,0,0-2.31-.37,8.82,8.82,0,0,0-2.74.4,17.82,17.82,0,0,0-2.48,1.15,10.43,10.43,0,0,1-3.73.88l-9,.06a18.7,18.7,0,0,1-6.54-.81,15.23,15.23,0,0,1-4.78-2.3c-1.05-.77-1.46-1.3-3.81-3.94s-3.52-4-3.86-4.28a16.42,16.42,0,0,0-7.35-4.16,12.29,12.29,0,0,0-5.39-.2,11.56,11.56,0,0,0-4.52,1.92,13.46,13.46,0,0,0-2.58,2.63c-.86,1-1,1.31-2.55,3.59a25.09,25.09,0,0,1-2.88,3.73,11.47,11.47,0,0,1-3,2.14,10.22,10.22,0,0,1-2.54.76,32.31,32.31,0,0,1-4.23.26,30.7,30.7,0,0,1-5.07-.48,7.74,7.74,0,0,1-3.12-1A6.48,6.48,0,0,1,498,562.8c-.33-.6-.45-1-1.63-4.8a4.6,4.6,0,0,0-1-2.15,3.53,3.53,0,0,0-4.93.07,6.1,6.1,0,0,0-1.35,2.17c-.82,1.68-1.23,2.52-1.51,3a10.53,10.53,0,0,1-3,3.42,11.23,11.23,0,0,1-4.2,1.74,16.34,16.34,0,0,1-3.25.46l-5-.33a7.49,7.49,0,0,1-1.4-.39,9.41,9.41,0,0,1-4.61-4.45,18.46,18.46,0,0,1-2-6.43c-.47-3-.18-3.49-.46-7.53-.33-5-.52-7.54-1.91-10.25a12.28,12.28,0,0,0-4-4.76,11.87,11.87,0,0,0-4.66-1.81,40.59,40.59,0,0,0-15.89.46,32.07,32.07,0,0,0-10.93,4.09,31.62,31.62,0,0,0-7.87,7.23,45.34,45.34,0,0,0-4.66,7.84c-1.68,3.27-2.23,4.93-4.38,8.6a16.61,16.61,0,0,1-3.89,4.93,14.68,14.68,0,0,1-7.87,3.22,17.81,17.81,0,0,1-7.09-.59,9.59,9.59,0,0,1-3.07-1.42,8.74,8.74,0,0,1-2.74-3.59C383.63,559,384,556.56,384.45,553.78Z"/><path class="cls-12" d="M558.11,533.78a11.43,11.43,0,0,1,2.2-2c3.19-2.3,6.24-4.78,9.38-7.14a6,6,0,0,1,1.84-1,4.46,4.46,0,0,1,1.54-.25,2.78,2.78,0,0,1,2.75,1.78,3.88,3.88,0,0,1,.33,1.3q.35,12.33.71,24.68a4.33,4.33,0,0,1-1.18,3.29,4,4,0,0,1-2.14,1,5.85,5.85,0,0,1-3.6-.64,7.62,7.62,0,0,1-1.48-.87,104.05,104.05,0,0,1-9.42-7.77,9.74,9.74,0,0,1-1.53-1.76,8.91,8.91,0,0,1-1.35-2.83,8.69,8.69,0,0,1,.52-5.79A9.64,9.64,0,0,1,558.11,533.78Z"/><circle class="cls-13" cx="712.47" cy="558.28" r="9.53"/><text class="cls-14" transform="translate(707.58 564.2)">R</text><path class="cls-10" d="M86.81,508.18,86,509.25c-.41.57-.8,1.17-1.16,1.78l-.54,1-.87,1.76a32.33,32.33,0,0,0-1.4,3.7,35.81,35.81,0,0,0-.94,3.94,35.11,35.11,0,0,0-.49,4.09,39.9,39.9,0,0,0,.52,9.34,39.14,39.14,0,0,0,.87,3.86q.54,1.91,1.26,3.75A35.59,35.59,0,0,0,85,546.13a36.65,36.65,0,0,0,2,3.35l1.14,1.58,1.08,1.35c.7.82,1.43,1.61,2.21,2.36a29.81,29.81,0,0,0,2.41,2.09,26.1,26.1,0,0,0,2.56,1.73A22.27,22.27,0,0,0,99,559.94a18.68,18.68,0,0,0,2.73.93,19.13,19.13,0,0,0,2.37.48,19.88,19.88,0,0,0,2.44.18,19.29,19.29,0,0,0,2.4-.12l1.16-.17,1.13-.24a14.39,14.39,0,0,0,4-1.64,18.63,18.63,0,0,0,1.82-1.22,22.56,22.56,0,0,0,1.75-1.49c.57-.54,1.12-1.11,1.63-1.7s1-1.22,1.48-1.85l.62-.88.46-.71,1.15-1.93.45-.82.4-.74.82-1.53.6-1.11a17.62,17.62,0,0,1-2.05-4.76,23.11,23.11,0,0,0-3.18,6.63,21.1,21.1,0,0,1-3.39-7,20.65,20.65,0,0,1-.69-5.24c-1.38,1.58-2.33,4.83-2.68,8.13a29.25,29.25,0,0,0,.36,8.25,44.74,44.74,0,0,1-4.75-21c-1.73,1.81-3,6.71-3.37,11.66a43.8,43.8,0,0,0,.23,8.72,68.8,68.8,0,0,1-4.44-16.33,54.47,54.47,0,0,1-.45-12.29,17.7,17.7,0,0,0-3.17,6.93,43.52,43.52,0,0,0-1.38,11,51.5,51.5,0,0,0,.36,6.92,36.58,36.58,0,0,1-1.9-4c-2.52-6.32-2.94-13.44-2.32-20.29.37-4.14,1.13-8.18,1.32-9.13-1.5.86-3.53,5.08-4.85,9.51a47.66,47.66,0,0,0-1.82,16,50.5,50.5,0,0,1-3-24.55A29.48,29.48,0,0,1,86.81,508.18ZM148.53,597l1.34.08q1.06,0,2.13,0l1.09-.09,1.94-.26a32.27,32.27,0,0,0,3.86-.91,34.59,34.59,0,0,0,3.79-1.42,36.24,36.24,0,0,0,3.67-1.88,38,38,0,0,0,3.48-2.3,40.89,40.89,0,0,0,4-3.35c.95-.92,1.85-1.88,2.71-2.89s1.65-2,2.4-3.13a40.31,40.31,0,0,0,2.13-3.5c.61-1.15,1.16-2.33,1.65-3.53l.67-1.83.51-1.65a31.42,31.42,0,0,0,.73-3.16A30.6,30.6,0,0,0,185,564a26.55,26.55,0,0,0,0-3.09,21.16,21.16,0,0,0-.38-3,18.68,18.68,0,0,0-.75-2.78,20,20,0,0,0-.94-2.24,19.31,19.31,0,0,0-1.21-2.12,17.71,17.71,0,0,0-1.43-1.92l-.79-.87-.84-.8a15.5,15.5,0,0,0-1.77-1.37,14.18,14.18,0,0,0-1.82-1,21,21,0,0,0-2-.82c-.72-.24-1.46-.45-2.21-.62s-1.55-.3-2.33-.4-1.57-.17-2.36-.2l-1.07,0-.85,0-2.23.13-.94.08-.84.08-1.73.18-1.25.12a17.54,17.54,0,0,1-2.8,4.36,23.14,23.14,0,0,0,7.28-1.07,21.36,21.36,0,0,1-3.9,6.72,21,21,0,0,1-4,3.51c2.09.25,5.31-.77,8.24-2.33a29.42,29.42,0,0,0,6.65-4.91,45.08,45.08,0,0,1-8.19,10.51,44,44,0,0,1-6.58,5.18c2.46.43,7.23-1.27,11.54-3.73a43.87,43.87,0,0,0,7.11-5.06,68.92,68.92,0,0,1-11.06,12.81,54.57,54.57,0,0,1-9.94,7.24c2.07.29,4.85-.32,7.52-1.24a44.43,44.43,0,0,0,9.87-5,53.36,53.36,0,0,0,5.53-4.17,37.34,37.34,0,0,1-2.25,3.81c-3.83,5.63-9.5,9.95-15.53,13.27-3.64,2-7.41,3.64-8.31,4,1.56.76,6.19.09,10.6-1.3a47.31,47.31,0,0,0,14.26-7.42,50.65,50.65,0,0,1-18.69,16.21A30.26,30.26,0,0,1,148.53,597Zm44.12-94.11-.52-1.25c-.29-.64-.62-1.27-1-1.89l-.55-.94-1.09-1.63a33.56,33.56,0,0,0-2.52-3.06,35.25,35.25,0,0,0-2.95-2.78,36.23,36.23,0,0,0-3.3-2.46,38.06,38.06,0,0,0-3.6-2.11,41.12,41.12,0,0,0-4.76-2.09c-1.24-.45-2.5-.83-3.78-1.16s-2.58-.58-3.88-.77a37.07,37.07,0,0,0-4.07-.37,36.21,36.21,0,0,0-3.9.08l-1.94.2-1.71.27a31.46,31.46,0,0,0-3.16.74,29.63,29.63,0,0,0-3,1.05,26.46,26.46,0,0,0-2.78,1.36,23.88,23.88,0,0,0-2.5,1.64,20.53,20.53,0,0,0-2.16,1.9,21.38,21.38,0,0,0-1.6,1.83,23.11,23.11,0,0,0-1.37,2,20.47,20.47,0,0,0-1.09,2.14l-.43,1.09-.35,1.1a15.06,15.06,0,0,0-.45,2.2,16,16,0,0,0-.12,2.08,17.62,17.62,0,0,0,.16,2.18,21.41,21.41,0,0,0,.42,2.26c.18.77.41,1.53.66,2.27s.55,1.48.87,2.21l.46,1,.38.75,1.1,2,.48.81.45.71.92,1.48.67,1.07a17.51,17.51,0,0,1,5.14.59,22.63,22.63,0,0,0-4.17-6.06,21.36,21.36,0,0,1,7.76.53,21.11,21.11,0,0,1,4.89,2c-.69-2-3-4.43-5.72-6.37a28.92,28.92,0,0,0-7.34-3.8,44.71,44.71,0,0,1,20.6,6.34c-.71-2.4-4.33-5.94-8.44-8.72a43.77,43.77,0,0,0-7.68-4.15,68.77,68.77,0,0,1,16.38,4.28A54.55,54.55,0,0,1,173,509.09a17.68,17.68,0,0,0-4.43-6.2,44.2,44.2,0,0,0-8.83-6.66,54.26,54.26,0,0,0-6.18-3.13,38.33,38.33,0,0,1,4.41.34c6.74,1,13.12,4.14,18.76,8.09,3.4,2.38,6.53,5.05,7.26,5.69,0-1.73-2.65-5.59-5.84-8.94a47.24,47.24,0,0,0-12.94-9.52A50.44,50.44,0,0,1,188,498.39,29,29,0,0,1,192.65,502.85ZM143.12,530.4a6,6,0,1,0,.93,11.13,6,6,0,0,0-.93-11.13Zm-7.56-6.21c-1.88-3.18-3.9-6-5.5-9.35a29.17,29.17,0,0,1-3-15.4,25.77,25.77,0,0,1,7.61-15.18c5-4.93,11.68-7.67,18.54-8.69a44.72,44.72,0,0,1,24,3.21A42.35,42.35,0,0,1,196.75,495,26.17,26.17,0,0,1,201,508.6c0,3.56-.87,7.28-3.21,9.84a12.33,12.33,0,0,1-8.18,3.73c-3.87.21-7.51-1.53-11.29-2.49a29.39,29.39,0,0,0-11.7-.52,26.6,26.6,0,0,0-10.67,4,25.13,25.13,0,0,0-4.73,4.18,13.33,13.33,0,0,1,3.32,8.93c3.68-.29,7.13-.85,10.81-.82a29.19,29.19,0,0,1,15.17,4,25.81,25.81,0,0,1,10.27,13.52c2.23,6.65,1.74,13.87-.36,20.48A44.9,44.9,0,0,1,177,593.69a42.28,42.28,0,0,1-23.16,10.41,26.08,26.08,0,0,1-14.11-2.18c-3.2-1.56-6.15-4-7.41-7.22a12.25,12.25,0,0,1,.26-9c1.51-3.56,4.68-6.06,7.2-9a29.38,29.38,0,0,0,5.63-10.28,26.35,26.35,0,0,0,1.07-11.35,24.72,24.72,0,0,0-1.66-6.1,13.27,13.27,0,0,1-11-1.88c-1.82,3.21-3.29,6.39-5.37,9.43a29.21,29.21,0,0,1-11.84,10.3,25.76,25.76,0,0,1-17,1C92.82,565.89,87.1,561.45,82.8,556a44.87,44.87,0,0,1-9.17-22.43,42.34,42.34,0,0,1,4.32-25,26.07,26.07,0,0,1,9.7-10.47c3.08-1.78,6.74-2.87,10.13-2.11a12.29,12.29,0,0,1,7.3,5.24c2.11,3.25,2.41,7.27,3.46,11a29.37,29.37,0,0,0,5.38,10.41,26.55,26.55,0,0,0,8.81,7.24,24.8,24.8,0,0,0,6,2A13.32,13.32,0,0,1,135.56,524.19Z"/><path class="cls-10" d="M946.31,561.71a88.31,88.31,0,0,1-9.31-2.42q-3.33-1.08-6.27-2.37c2,.09,4,.09,6,0a61.87,61.87,0,0,0,7.08-.75c-8.3.05-18.09-1.62-25-4.72A23.56,23.56,0,0,1,911,546a9.14,9.14,0,0,1-2.57-5.89,8,8,0,0,0-1.65,3.2,6,6,0,0,0,0,2.73,45.73,45.73,0,0,1-5.23-2.83,30.41,30.41,0,0,1-5.35-4.22,11.1,11.1,0,0,0,2.11,7.44,47.5,47.5,0,0,1-5.23-2.84,30.75,30.75,0,0,1-5.21-4.09A12.85,12.85,0,0,0,890,547a47.48,47.48,0,0,1-5.23-2.83,30.36,30.36,0,0,1-5.25-4.13,14.75,14.75,0,0,0,2.21,7.51,44.24,44.24,0,0,1-5.23-2.84,30.55,30.55,0,0,1-5.27-4.13c.15,3.81,1.82,7.91,5.39,11.85s9,7.74,16,10.87a106.36,106.36,0,0,0,24,7.22A151.33,151.33,0,0,0,942.78,573a88,88,0,0,1-9.13-2.38q-3.33-1.08-6.27-2.37a137.92,137.92,0,0,0,16.59,1,85.34,85.34,0,0,1-9.12-2.38,65.94,65.94,0,0,1-6.26-2.37,120.07,120.07,0,0,0,16.6,1,86.25,86.25,0,0,1-9-2.36,65.94,65.94,0,0,1-6.26-2.37A104.13,104.13,0,0,0,946.31,561.71ZM992.07,541a11.07,11.07,0,0,0-2.11-7.44,47.5,47.5,0,0,1,5.23,2.84,31.25,31.25,0,0,1,5.22,4.09,12.91,12.91,0,0,0-2.18-7.51,47.48,47.48,0,0,1,5.23,2.83,30.36,30.36,0,0,1,5.25,4.13,14.81,14.81,0,0,0-2.2-7.51,44.89,44.89,0,0,1,5.22,2.84,30.55,30.55,0,0,1,5.27,4.13c-.15-3.81-1.82-7.91-5.39-11.85s-9-7.74-16-10.87a106.36,106.36,0,0,0-24-7.22A151.33,151.33,0,0,0,945.47,507a88.85,88.85,0,0,1,9.14,2.38c2.21.72,4.31,1.51,6.26,2.37a140.7,140.7,0,0,0-16.58-1,85.78,85.78,0,0,1,9.11,2.38,65.94,65.94,0,0,1,6.26,2.37,121.46,121.46,0,0,0-16.6-1,86.25,86.25,0,0,1,9,2.36,65.94,65.94,0,0,1,6.26,2.37,103.29,103.29,0,0,0-16.42-1,89.15,89.15,0,0,1,9.32,2.42c2.21.72,4.31,1.51,6.26,2.37-2-.09-4-.09-6,0a62.11,62.11,0,0,0-7.08.75c8.3-.05,18.09,1.62,25,4.72a23.56,23.56,0,0,1,7.9,5.43,9.14,9.14,0,0,1,2.57,5.89,8.2,8.2,0,0,0,1.66-3.2,6.14,6.14,0,0,0,0-2.73,46.42,46.42,0,0,1,5.22,2.83A30.41,30.41,0,0,1,992.07,541Zm-68.67,8.24c4.63,2.25,12.55,3.9,20.49,3.93s15.92-1.57,20.63-3.78a20.26,20.26,0,0,0,6.2-4,7.86,7.86,0,0,0,2.48-5.22,7.61,7.61,0,0,0-2.3-5.24,19.22,19.22,0,0,0-6-4.1c-4.63-2.25-12.54-3.9-20.49-3.93s-15.92,1.57-20.63,3.78a20.08,20.08,0,0,0-6.19,4,7.83,7.83,0,0,0-2.49,5.22,7.61,7.61,0,0,0,2.3,5.24A19.22,19.22,0,0,0,923.4,549.23ZM871,525.82c3.68-3.9,9.24-7.81,16.67-11.19a117,117,0,0,1,26.89-8.06A171.13,171.13,0,0,1,946.35,504a165.36,165.36,0,0,1,29.1,2.9,113.92,113.92,0,0,1,24.71,7.54c7.46,3.37,13.73,7.57,17.8,12.18s5.94,9.61,5.66,14.38-2.71,9.28-6.4,13.17-9.24,7.81-16.66,11.19a117.24,117.24,0,0,1-26.9,8.06A171.09,171.09,0,0,1,941.91,576a165.38,165.38,0,0,1-29.11-2.9,113.83,113.83,0,0,1-24.7-7.54c-7.46-3.37-13.74-7.57-17.81-12.18s-5.93-9.61-5.65-14.38S867.34,529.71,871,525.82Z"/><path class="cls-10" d="M939.53,539.33c.49-1.05,3.88-1.84,6.07-1.41a5.7,5.7,0,0,1,2.81,1.08,1.18,1.18,0,0,1,.31,1.67c-.49,1.05-3.87,1.84-6.06,1.41a5.74,5.74,0,0,1-2.82-1.08A1.18,1.18,0,0,1,939.53,539.33Z"/><path class="cls-10" d="M515.31,145.38l13.21,30.3h78.79l-6.61-15.17a210,210,0,0,1-17.43-18.9,189.58,189.58,0,0,1-11.39-15.51q1.41,6.21,3.44,12.34a138.29,138.29,0,0,0,9.62,22.07,210,210,0,0,1-17.43-18.9,192,192,0,0,1-11.39-15.51q1.41,6.21,3.44,12.34a138.29,138.29,0,0,0,9.62,22.07,210,210,0,0,1-17.43-18.9q-6.13-7.55-11.39-15.51,1.41,6.21,3.44,12.34a138.29,138.29,0,0,0,9.62,22.07A210,210,0,0,1,536,141.61q-6.13-7.55-11.39-15.51,1.41,6.21,3.45,12.34a136.51,136.51,0,0,0,9.62,22.07,207.07,207.07,0,0,1-17.43-18.9ZM615.15,180h-151l30.17-69.24H585Z"/><polyline class="cls-15" points="554.41 911.51 541 924.92 527.59 911.51"/><polyline class="cls-15" points="166.14 635.49 150.05 625.45 140 641.53"/><polyline class="cls-15" points="554.41 477.01 541 490.42 527.59 477.01"/><polyline class="cls-15" points="742.54 553.96 729.13 540.55 742.54 527.13"/><polyline class="cls-15" points="660.73 172.98 651.94 156.17 668.75 147.38"/><polyline class="cls-15" points="915.86 635.49 931.95 625.45 942 641.53"/><path class="cls-15" d="M430.06,156.17a400,400,0,0,0-280,299.48"/><line class="cls-15" x1="541" y1="654.96" x2="541" y2="924.92"/><line class="cls-15" x1="541" y1="197.96" x2="541" y2="490.42"/><path class="cls-15" d="M932,455.65a400.1,400.1,0,0,0-280-299.48"/><polyline class="cls-15" points="668.74 933.74 651.94 924.92 660.75 908.13"/><polyline class="cls-15" points="942 439.56 931.95 455.65 915.86 445.61"/><path class="cls-15" d="M430.06,924.92a400,400,0,0,1-280-299.47"/><line class="cls-15" x1="729.13" y1="540.55" x2="861.3" y2="540.55"/><polyline class="cls-15" points="421.27 172.98 430.06 156.17 413.25 147.38"/><path class="cls-15" d="M932,625.45a400,400,0,0,1-280,299.47"/><line class="cls-15" x1="352.87" y1="540.55" x2="220.7" y2="540.55"/><polyline class="cls-15" points="140 439.56 150.05 455.65 166.14 445.61"/><polyline class="cls-15" points="339.46 553.96 352.87 540.55 339.46 527.13"/><polyline class="cls-15" points="413.26 933.74 430.06 924.92 421.25 908.13"/></svg>