<svg id="trips" width="531" height="244" viewBox="0 0 531 244" fill="none" xmlns="http://www.w3.org/2000/svg">
<path fill-rule="evenodd" clip-rule="evenodd" d="M1.10645 243.145L106.877 0.457031H424.792L530.563 243.145H1.10645ZM226.906 227.988L180.626 121.801L197.88 108.588C216.56 131.559 236.989 153.681 258.976 174.83C245.354 149.726 234.046 123.832 225.259 97.4686C220.495 83.1735 216.471 68.7402 213.186 54.2136C225.436 72.7759 238.76 90.9325 253.118 108.588C271.798 131.559 292.226 153.681 314.213 174.83C300.591 149.726 289.283 123.832 280.496 97.4686C275.732 83.1735 271.709 68.7402 268.423 54.2136C280.673 72.7759 293.998 90.9325 308.355 108.588C327.035 131.559 347.463 153.681 369.45 174.83C355.828 149.726 344.52 123.832 335.734 97.4686C330.969 83.1735 326.946 68.7402 323.66 54.2136C335.911 72.7759 349.235 90.9325 363.592 108.588C382.272 131.559 402.701 153.681 424.687 174.83C411.066 149.726 399.758 123.832 390.971 97.4686C386.206 83.1735 382.183 68.7402 378.897 54.2136C391.148 72.7759 404.472 90.9325 418.83 108.588C437.509 131.559 457.938 153.681 479.925 174.83L503.092 227.988H226.906Z" fill="currentcolor" stroke="currentcolor" stroke-width="0.48" stroke-miterlimit="0" stroke-linecap="round"/>
</svg>
