<svg id="vinyl" width="557" height="253" viewBox="0 0 557 253" fill="none" xmlns="http://www.w3.org/2000/svg">
  <g fill="currentcolor" stroke="currentcolor">
    <path fill-rule="evenodd" clip-rule="evenodd" d="M23.154 77.2731C35.9803 63.676 55.4045 50.007 81.3438 38.2128C107.283 26.4187 139.738 16.4994 175.271 10.0646C210.804 3.62984 249.416 0.679579 286.166 1.12123C322.916 1.56282 357.804 5.39631 387.805 11.2379C417.839 17.0447 448.031 25.8386 474.083 37.5821C500.134 49.3256 522.044 64.0187 536.257 80.1056C550.47 96.1926 556.987 113.673 556.011 130.311C555.036 146.949 546.568 162.744 533.666 176.326C520.839 189.923 501.415 203.592 475.476 215.387C449.536 227.181 417.082 237.1 381.549 243.535C346.015 249.969 307.404 252.92 270.654 252.478C233.904 252.036 199.015 248.203 169.015 242.361C138.981 236.555 108.788 227.761 82.737 216.017C56.6858 204.274 34.7758 189.581 20.5625 173.494C6.34923 157.407 -0.167376 139.926 0.808088 123.288C1.78355 106.65 10.2511 90.8555 23.154 77.2731ZM277.588 172.769C249.84 172.668 222.193 166.886 206.03 159.042C197.644 155.194 190.118 150.324 184.897 144.716C179.675 139.109 176.757 132.763 176.871 126.428C176.984 120.093 180.128 113.769 185.549 108.2C190.971 102.631 198.669 97.8178 207.192 94.0311C223.633 86.3071 251.483 80.7282 279.231 80.8298C306.98 80.9315 334.627 86.7137 350.79 94.5571C359.176 98.4058 366.701 103.275 371.923 108.883C377.145 114.491 380.062 120.837 379.949 127.172C379.836 133.507 376.692 139.83 371.27 145.399C365.849 150.968 358.15 155.781 349.628 159.568C333.186 167.292 305.337 172.871 277.588 172.769ZM438.469 104.287C444.351 112.829 446.72 121.751 445.841 130.257C440.707 125.095 434.453 120.141 427.174 115.527C421.646 112.022 415.526 108.713 408.914 105.627C409.624 108.787 409.648 111.988 408.914 115.158C408.029 118.975 406.045 122.747 403.128 126.343C403.026 119.747 400.274 112.657 394.166 105.777C388.057 98.8971 378.592 92.2276 366.585 86.8117C342.572 75.9798 308.391 70.1626 279.419 70.336C287.363 69.0155 295.694 68.1172 304.125 67.7167C311.126 67.3842 318.196 67.395 325.177 67.7167C318.361 64.7232 311.051 61.9525 303.31 59.4497C293.117 56.1542 282.174 53.3231 270.773 50.9986C290.986 50.5739 310.599 51.861 328.136 54.3362C321.32 51.3427 314.01 48.572 306.269 46.0692C296.366 42.8675 285.755 40.1041 274.704 37.8178C295.018 37.6397 314.709 38.9185 332.675 41.2601C325.859 38.2665 318.55 35.4959 310.809 32.9931C300.823 29.7647 290.118 26.9818 278.967 24.6845C299.158 24.7039 318.738 25.967 336.876 28.1744C330.06 25.1808 322.751 22.4102 315.009 19.9074C305.005 16.6729 294.279 13.8858 283.105 11.586C312.482 11.815 344.105 14.4603 374.542 20.1012C404.978 25.742 434.227 34.3783 458.39 45.3175C482.552 56.2565 501.628 69.4985 514.088 83.2779C526.548 97.0573 532.391 111.374 532.897 124.674C527.817 119.615 521.66 114.759 514.516 110.23C508.988 106.725 502.868 103.416 496.256 100.33C501.404 108.999 503.926 117.889 503.964 126.547C498.89 121.499 492.743 116.653 485.612 112.132C480.084 108.627 473.964 105.318 467.352 102.232C472.859 110.891 475.329 119.838 474.955 128.477C469.905 123.474 463.801 118.67 456.729 114.187C451.201 110.682 445.081 107.373 438.469 104.287ZM253.51 194.15C263.703 197.445 274.646 200.276 286.047 202.601C267.258 202.998 247.551 201.926 228.684 199.263C235.5 202.257 242.809 205.027 250.551 207.53C260.454 210.732 271.064 213.495 282.115 215.782C263.033 215.951 243.27 214.832 224.144 212.339C230.96 215.333 238.27 218.103 246.011 220.606C255.997 223.835 266.702 226.617 277.853 228.915C258.727 228.898 239.092 227.756 219.944 225.425C226.76 228.418 234.069 231.189 241.81 233.692C251.815 236.926 262.541 239.713 273.714 242.013C244.338 241.784 212.714 239.139 182.278 233.498C151.842 227.857 122.592 219.221 98.4299 208.282C74.2673 197.343 55.1912 184.101 42.7315 170.321C30.272 156.542 24.4287 142.225 23.923 128.926C29.0029 133.984 35.1592 138.84 42.3035 143.369C47.8318 146.874 53.9516 150.183 60.5638 153.269C55.6882 145.058 52.8982 136.193 52.8553 127.052C57.9297 132.1 64.0764 136.947 71.2075 141.468C76.7358 144.972 82.8556 148.282 89.4678 151.367C84.2957 143.234 81.471 134.319 81.8644 125.122C86.9145 130.125 93.0184 134.929 100.09 139.412C105.619 142.917 111.739 146.226 118.351 149.312C112.883 141.373 110.041 132.493 110.979 123.342C116.113 128.504 122.366 133.458 129.646 138.073C135.174 141.578 141.294 144.887 147.906 147.972C147.195 144.812 147.171 141.611 147.906 138.442C148.791 134.625 150.775 130.853 153.691 127.257C153.794 133.853 156.545 140.943 162.654 147.822C168.762 154.702 178.228 161.372 190.234 166.788C214.248 177.619 248.429 183.437 277.401 183.263C269.457 184.584 261.125 185.482 252.694 185.883C245.693 186.215 238.624 186.204 231.643 185.883C238.459 188.876 245.768 191.647 253.51 194.15Z" />
    <path d="M262.359 124.477C264.083 120.785 275.899 118.027 283.541 119.533C287.317 120.03 291.277 121.451 293.388 123.304C295.498 125.157 295.757 127.442 294.461 129.123C292.737 132.814 280.921 135.572 273.279 134.066C269.503 133.57 265.542 132.148 263.432 130.295C261.322 128.442 261.062 126.157 262.359 124.477Z" />
    <path fill-rule="evenodd" clip-rule="evenodd" d="M23.154 77.2731C35.9803 63.676 55.4045 50.007 81.3438 38.2128C107.283 26.4187 139.738 16.4994 175.271 10.0646C210.804 3.62984 249.416 0.679579 286.166 1.12123C322.916 1.56282 357.804 5.39631 387.805 11.2379C417.839 17.0447 448.031 25.8386 474.083 37.5821C500.134 49.3256 522.044 64.0187 536.257 80.1056C550.47 96.1926 556.987 113.673 556.011 130.311C555.036 146.949 546.568 162.744 533.666 176.326C520.839 189.923 501.415 203.592 475.476 215.387C449.536 227.181 417.082 237.1 381.549 243.535C346.015 249.969 307.404 252.92 270.654 252.478C233.904 252.036 199.015 248.203 169.015 242.361C138.981 236.555 108.788 227.761 82.737 216.017C56.6858 204.274 34.7758 189.581 20.5625 173.494C6.34923 157.407 -0.167376 139.926 0.808088 123.288C1.78355 106.65 10.2511 90.8555 23.154 77.2731ZM277.588 172.769C249.84 172.668 222.193 166.886 206.03 159.042C197.644 155.194 190.118 150.324 184.897 144.716C179.675 139.109 176.757 132.763 176.871 126.428C176.984 120.093 180.128 113.769 185.549 108.2C190.971 102.631 198.669 97.8178 207.192 94.0311C223.633 86.3071 251.483 80.7282 279.231 80.8298C306.98 80.9315 334.627 86.7137 350.79 94.5571C359.176 98.4058 366.701 103.275 371.923 108.883C377.145 114.491 380.062 120.837 379.949 127.172C379.836 133.507 376.692 139.83 371.27 145.399C365.849 150.968 358.15 155.781 349.628 159.568C333.186 167.292 305.337 172.871 277.588 172.769ZM438.469 104.287C444.351 112.829 446.72 121.751 445.841 130.257C440.707 125.095 434.453 120.141 427.174 115.527C421.646 112.022 415.526 108.713 408.914 105.627C409.624 108.787 409.648 111.988 408.914 115.158C408.029 118.975 406.045 122.747 403.128 126.343C403.026 119.747 400.274 112.657 394.166 105.777C388.057 98.8971 378.592 92.2276 366.585 86.8117C342.572 75.9798 308.391 70.1626 279.419 70.336C287.363 69.0155 295.694 68.1172 304.125 67.7167C311.126 67.3842 318.196 67.395 325.177 67.7167C318.361 64.7232 311.051 61.9525 303.31 59.4497C293.117 56.1542 282.174 53.3231 270.773 50.9986C290.986 50.5739 310.599 51.861 328.136 54.3362C321.32 51.3427 314.01 48.572 306.269 46.0692C296.366 42.8675 285.755 40.1041 274.704 37.8178C295.018 37.6397 314.709 38.9185 332.675 41.2601C325.859 38.2665 318.55 35.4959 310.809 32.9931C300.823 29.7647 290.118 26.9818 278.967 24.6845C299.158 24.7039 318.738 25.967 336.876 28.1744C330.06 25.1808 322.751 22.4102 315.009 19.9074C305.005 16.6729 294.279 13.8858 283.105 11.586C312.482 11.815 344.105 14.4603 374.542 20.1012C404.978 25.742 434.227 34.3783 458.39 45.3175C482.552 56.2565 501.628 69.4985 514.088 83.2779C526.548 97.0573 532.391 111.374 532.897 124.674C527.817 119.615 521.66 114.759 514.516 110.23C508.988 106.725 502.868 103.416 496.256 100.33C501.404 108.999 503.926 117.889 503.964 126.547C498.89 121.499 492.743 116.653 485.612 112.132C480.084 108.627 473.964 105.318 467.352 102.232C472.859 110.891 475.329 119.838 474.955 128.477C469.905 123.474 463.801 118.67 456.729 114.187C451.201 110.682 445.081 107.373 438.469 104.287ZM253.51 194.15C263.703 197.445 274.646 200.276 286.047 202.601C267.258 202.998 247.551 201.926 228.684 199.263C235.5 202.257 242.809 205.027 250.551 207.53C260.454 210.732 271.064 213.495 282.115 215.782C263.033 215.951 243.27 214.832 224.144 212.339C230.96 215.333 238.27 218.103 246.011 220.606C255.997 223.835 266.702 226.617 277.853 228.915C258.727 228.898 239.092 227.756 219.944 225.425C226.76 228.418 234.069 231.189 241.81 233.692C251.815 236.926 262.541 239.713 273.714 242.013C244.338 241.784 212.714 239.139 182.278 233.498C151.842 227.857 122.592 219.221 98.4299 208.282C74.2673 197.343 55.1912 184.101 42.7315 170.321C30.272 156.542 24.4287 142.225 23.923 128.926C29.0029 133.984 35.1592 138.84 42.3035 143.369C47.8318 146.874 53.9516 150.183 60.5638 153.269C55.6882 145.058 52.8982 136.193 52.8553 127.052C57.9297 132.1 64.0764 136.947 71.2075 141.468C76.7358 144.972 82.8556 148.282 89.4678 151.367C84.2957 143.234 81.471 134.319 81.8644 125.122C86.9145 130.125 93.0184 134.929 100.09 139.412C105.619 142.917 111.739 146.226 118.351 149.312C112.883 141.373 110.041 132.493 110.979 123.342C116.113 128.504 122.366 133.458 129.646 138.073C135.174 141.578 141.294 144.887 147.906 147.972C147.195 144.812 147.171 141.611 147.906 138.442C148.791 134.625 150.775 130.853 153.691 127.257C153.794 133.853 156.545 140.943 162.654 147.822C168.762 154.702 178.228 161.372 190.234 166.788C214.248 177.619 248.429 183.437 277.401 183.263C269.457 184.584 261.125 185.482 252.694 185.883C245.693 186.215 238.624 186.204 231.643 185.883C238.459 188.876 245.768 191.647 253.51 194.15Z" stroke="currentcolor" stroke-width="0.48" stroke-miterlimit="0" stroke-linecap="round"/>
    <path d="M262.359 124.477C264.083 120.785 275.899 118.027 283.541 119.533C287.317 120.03 291.277 121.451 293.388 123.304C295.498 125.157 295.757 127.442 294.461 129.123C292.737 132.814 280.921 135.572 273.279 134.066C269.503 133.57 265.542 132.148 263.432 130.295C261.322 128.442 261.062 126.157 262.359 124.477Z" stroke="currentcolor" stroke-width="0.48" stroke-miterlimit="0" stroke-linecap="round"/>
  </g>
</svg>
