<svg width="513" height="128" viewBox="0 0 513 128" fill="none" xmlns="http://www.w3.org/2000/svg">
<path fill-rule="evenodd" clip-rule="evenodd" d="M40.0818 82.3059C40.4137 80.283 40.9189 78.2923 41.5918 76.3559C44.6874 67.1385 45.272 65.1562 45.5385 64.2523C45.7326 63.5941 45.7581 63.5079 46.4618 61.616C49.2018 54.216 51.7018 47.5459 54.1118 41.2059C54.6887 39.7004 55.5821 38.3363 56.7318 37.2059C57.9007 36.1119 59.2552 35.2349 60.7318 34.616C62.0718 33.956 63.9918 33.0359 66.3318 32.0259C68.4787 30.9754 70.736 30.1671 73.0618 29.616C75.1868 29.1147 77.3964 29.0908 79.5318 29.5459C80.3494 29.7443 80.7369 29.9283 81.6112 30.3432C82.1912 30.6186 82.9855 30.9956 84.2618 31.5459C84.2618 31.5459 86.8918 32.7059 89.7418 33.7659C92.3952 34.8492 95.1483 35.6697 97.9618 36.2159C100.955 36.744 104.008 36.8551 107.032 36.5459C109.877 36.2272 112.672 35.5554 115.352 34.5459C117.512 33.8059 125.752 31.0359 132.412 29.5459C139.212 28.1571 146.166 27.6829 153.092 28.1359C155.184 28.274 157.248 28.6875 159.232 29.366C162.121 30.3829 164.775 31.975 167.032 34.0459C168.683 35.6157 170.143 37.3745 171.382 39.2859C171.753 39.8752 172.015 40.3331 172.236 40.7195C172.694 41.5201 172.977 42.0143 173.692 42.7359C175.052 44.2218 176.873 45.2049 178.862 45.5259C180.629 45.7461 182.421 45.4143 183.992 44.5759C185.604 43.7624 186.96 42.5202 187.912 40.9859C188.497 39.8836 189.018 38.7483 189.472 37.5859C189.894 36.6073 190.204 35.8752 190.441 35.3149C191.086 33.7912 191.194 33.5385 191.552 33.0559C192.514 31.7855 193.761 30.7581 195.192 30.0559C196.742 29.3319 198.401 28.869 200.102 28.6859C203.408 28.1349 206.777 28.0709 210.102 28.4959C211.777 28.6027 213.414 29.0376 214.922 29.7759C216.572 30.7319 217.978 32.0564 219.032 33.6459C219.865 34.9081 220.575 36.2476 221.152 37.6459C221.802 39.0423 222.12 39.8815 222.352 40.4935C222.649 41.2754 222.805 41.6868 223.332 42.4159C224.302 43.7547 225.582 44.8389 227.062 45.5759C228.102 46.0807 229.216 46.4182 230.362 46.5759C232.284 46.8577 234.242 46.7729 236.132 46.3259C237.862 45.9104 239.525 45.254 241.072 44.3759C243.978 42.7163 246.665 40.7007 249.072 38.3759C250.642 36.9657 251.399 36.1411 252.006 35.4793C252.691 34.7331 253.186 34.1939 254.442 33.2559C256.448 31.6661 258.706 30.4223 261.122 29.5759C262.901 28.9912 264.739 28.599 266.602 28.4059C267.132 28.3359 267.732 28.2759 270.442 28.1759C277.752 27.8859 279.262 27.8859 281.282 28.1759C282.327 28.3059 283.363 28.5064 284.382 28.7759C285.27 29.0161 285.813 29.2238 286.689 29.5593C287.272 29.7826 288.003 30.0624 289.082 30.4459C289.403 30.5611 289.695 30.6669 289.962 30.7635C291.201 31.2114 291.889 31.4601 292.292 31.5259C294.008 31.8971 295.786 31.8732 297.492 31.4559C298.102 31.2985 298.354 31.1726 298.761 30.9686C299.183 30.7579 299.771 30.4639 301.092 29.9659C302.248 29.5221 303.426 29.1383 304.622 28.8159C305.937 28.4618 307.273 28.1879 308.622 27.9959C312.034 27.6264 315.48 27.7037 318.872 28.2259C321.136 28.4786 323.379 28.8963 325.582 29.4759C330.578 30.892 335.393 32.8819 339.932 35.4059C341.658 36.3803 343.445 37.2421 345.282 37.9859C346.214 38.413 347.185 38.7479 348.182 38.9859C349.555 39.2998 350.964 39.431 352.372 39.3759C354.546 39.3962 356.708 39.0583 358.772 38.3759C360.144 37.8638 361.463 37.2209 362.712 36.4559C366.003 34.725 369.388 33.1792 372.852 31.8259C375.236 30.8717 377.686 30.0897 380.182 29.4859C386.589 28.1389 393.227 28.3757 399.522 30.1759C404.299 31.4868 408.836 33.5529 412.962 36.2959C417.006 38.8472 420.678 41.9467 423.872 45.5059C427.772 49.9259 429.872 53.8759 432.092 58.2659C433.4 60.7862 434.708 64.0096 437.245 70.2592L437.552 71.0159C437.552 71.0159 439.402 75.5959 441.162 81.4759C441.624 82.9719 441.979 84.4991 442.222 86.0459C442.544 87.5094 442.675 89.0087 442.612 90.5059C442.596 92.8876 441.731 95.1854 440.172 96.9859C439.067 98.1126 437.689 98.9328 436.172 99.366C434.745 99.7683 433.262 99.9338 431.782 99.8559C430.356 99.9119 428.929 99.7943 427.532 99.5059C426.418 99.3423 425.346 98.9691 424.372 98.4059C423.454 97.8217 422.659 97.0643 422.032 96.1759C420.938 94.7457 420.068 93.1576 419.452 91.4659C418.082 87.8359 416.992 84.5259 416.192 81.9359C414.572 76.1859 413.012 71.6059 411.792 68.2859C411.115 66.2774 410.188 64.3622 409.032 62.5859C407.583 60.2051 405.593 58.2005 403.222 56.7359C401.583 55.7036 399.747 55.0226 397.832 54.7359C395.994 54.4884 394.126 54.6212 392.342 55.1259C390.543 55.6448 388.876 56.5415 387.452 57.7559C385.96 59.0749 384.779 60.7071 383.992 62.5359C382.969 64.8671 382.376 67.3639 382.242 69.9059C381.895 73.1141 381.752 75.1883 381.598 77.4066L381.598 77.4082C381.477 79.1584 381.35 80.9984 381.112 83.5559C381.039 84.3588 380.616 86.6682 379.798 91.1372L379.552 92.4859C379.36 94.2129 378.688 95.8515 377.612 97.2159C376.788 98.1557 375.762 98.8974 374.612 99.3859C373.85 99.6667 373.058 99.858 372.252 99.9559C370.298 100.293 368.304 100.323 366.342 100.046C364.885 99.8933 363.465 99.4943 362.142 98.866C360.595 98.0935 359.231 96.999 358.142 95.6559C356.79 94.0079 355.771 92.1128 355.142 90.0759C354.291 87.6337 354.092 86.0204 353.851 84.0598C353.678 82.6568 353.483 81.0758 353.012 78.8859C352.619 76.6129 352.019 74.3804 351.222 72.2159C349.381 67.3309 346.186 63.0713 342.012 59.9359C338.947 57.8672 335.536 56.3635 331.942 55.4959C330.531 55.0975 329.052 55.0021 327.602 55.2159C326.164 55.4369 324.795 55.9843 323.602 56.8159C322.136 57.8922 320.992 59.3478 320.292 61.0259C319.643 62.4957 319.228 64.0579 319.062 65.6559C318.736 67.9141 318.723 69.3215 318.705 71.3221V71.3243C318.697 72.2733 318.687 73.3558 318.642 74.7259C318.588 76.3264 318.533 76.9272 318.462 77.6885C318.387 78.4968 318.295 79.487 318.172 82.0459C318.138 82.7211 318.111 83.3245 318.086 83.8732C317.964 86.5752 317.902 87.9513 317.412 90.0459C317.107 91.7154 316.464 93.3047 315.522 94.7159C314.581 96.0183 313.353 97.086 311.932 97.8359C310.448 98.5706 308.826 98.983 307.172 99.0459C304.581 99.3362 301.959 99.0353 299.502 98.1659C298.399 97.6908 297.262 97.2964 296.102 96.9859C295.125 96.7045 294.117 96.5466 293.102 96.5159C291.899 96.5026 290.701 96.6781 289.552 97.0359C288.441 97.4402 287.367 97.9387 286.342 98.5259C284.817 99.192 283.184 99.5749 281.522 99.6559L269.952 99.7259C267.095 99.8978 264.23 99.5592 261.492 98.7259C259.269 98.0947 257.174 97.0794 255.302 95.7259C254.12 94.8568 253.572 94.2369 251.453 91.8373C251.134 91.4763 250.779 91.0744 250.382 90.6259C247.342 87.1959 245.822 85.5059 245.382 85.0959C242.738 82.5051 239.463 80.6504 235.882 79.7159C233.596 79.1143 231.205 79.0289 228.882 79.4659C226.781 79.8667 224.789 80.7123 223.042 81.9459C221.784 82.924 220.663 84.0677 219.712 85.3459C219.02 86.1801 218.713 86.6325 218.092 87.5501C217.707 88.1175 217.203 88.8627 216.412 89.9859C215.331 91.7092 214.085 93.3234 212.692 94.8059C211.546 95.943 210.218 96.8794 208.762 97.5759C207.711 98.0543 206.601 98.3906 205.462 98.5759C203.651 98.8088 201.827 98.919 200.002 98.9059C197.802 98.8846 195.608 98.6806 193.442 98.2959C190.612 97.7859 189.812 97.2959 189.442 97.0559C188.294 96.2323 187.37 95.136 186.752 93.866C186.322 93.096 186.162 92.5959 184.632 87.6659L184.625 87.6453C184.13 86.0312 183.959 85.4734 183.362 84.8759C182.879 84.4372 182.311 84.1018 181.694 83.8902C181.076 83.6787 180.422 83.5956 179.772 83.646C178.724 83.7739 177.745 84.2369 176.982 84.9659C176.214 85.7708 175.619 86.7235 175.232 87.7659C174.172 89.9459 173.642 91.0359 173.232 91.6659C172.282 93.4057 170.965 94.9175 169.372 96.0959C167.734 97.2057 165.886 97.9681 163.942 98.3359C162.563 98.6772 161.152 98.8749 159.732 98.9259L153.282 98.5059C152.663 98.3999 152.057 98.2324 151.472 98.0059C148.274 96.7767 146.607 94.0812 145.594 92.4434L145.472 92.2459C145.002 91.4159 143.752 89.0959 142.922 83.9259C142.562 81.667 142.543 80.5073 142.516 78.8629C142.498 77.7193 142.475 76.3413 142.332 74.1959C141.902 67.7459 141.652 64.4459 139.852 60.9459C138.689 58.4779 136.908 56.3524 134.682 54.7759C132.866 53.5896 130.822 52.7959 128.682 52.4459C121.86 51.28 114.875 51.4806 108.132 53.0359C103.602 54.0359 99.1318 55.1059 94.0118 58.3259C90.1087 60.8375 86.6654 64 83.8318 67.6759C81.4922 70.8431 79.4818 74.2407 77.8318 77.8159C77.0548 79.3305 76.4637 80.5784 75.8974 81.774C74.8821 83.9175 73.9463 85.8932 72.1618 88.9359C70.9193 91.3633 69.2218 93.5293 67.1618 95.3159C65.6544 96.5343 63.9678 97.5125 62.1618 98.2159C60.4896 98.8791 58.7324 99.3033 56.9418 99.4759C53.8684 99.8415 50.7529 99.583 47.7818 98.7159C46.3469 98.353 44.991 97.7293 43.7818 96.8759C42.2095 95.6699 40.9846 94.069 40.2318 92.2359C39.0218 88.9759 39.4918 85.9059 40.0818 82.3059ZM267.842 52.6158C266.795 53.343 265.844 54.1998 265.012 55.1657C264.273 55.9826 263.65 56.898 263.162 57.8857C262.087 60.2282 261.847 62.8679 262.482 65.3657C262.846 66.674 263.435 67.9091 264.222 69.0157C264.797 69.8453 265.468 70.6039 266.222 71.2757C270.069 74.8519 274.13 78.1914 278.382 81.2757C278.975 81.7247 279.615 82.107 280.292 82.4157C281.713 83.1716 283.339 83.4553 284.932 83.2257C285.995 83.0968 286.985 82.6198 287.748 81.8691C288.512 81.1184 289.005 80.1362 289.152 79.0757C289.235 78.6106 289.259 78.1368 289.222 77.6657C288.909 67.0457 288.602 56.4257 288.302 45.8057C288.264 45.2303 288.118 44.6672 287.872 44.1458C287.622 43.5176 287.212 42.966 286.682 42.5457C285.992 42.0686 285.17 41.8202 284.332 41.8357C283.652 41.823 282.974 41.9314 282.332 42.1557C281.479 42.4345 280.678 42.8536 279.962 43.3957C278.307 44.6391 276.672 45.9025 275.036 47.1661C272.66 49.0021 270.282 50.8388 267.842 52.6158Z" fill="#21201F"/>
<path d="M379.552 92.4859C379.36 94.2129 378.688 95.8515 377.612 97.2159C376.788 98.1557 375.762 98.8974 374.612 99.3859C373.85 99.6667 373.058 99.858 372.252 99.9559C370.298 100.293 368.304 100.323 366.342 100.046C364.885 99.8933 363.465 99.4943 362.142 98.866C360.595 98.0935 359.231 96.999 358.142 95.6559C356.79 94.0079 355.771 92.1128 355.142 90.0759C354.291 87.6337 354.092 86.0204 353.851 84.0598C353.678 82.6568 353.483 81.0758 353.012 78.8859C352.619 76.6129 352.019 74.3804 351.222 72.2159C349.381 67.3309 346.186 63.0713 342.012 59.9359C338.947 57.8672 335.536 56.3635 331.942 55.4959C330.531 55.0975 329.052 55.0021 327.602 55.2159C326.164 55.4369 324.795 55.9843 323.602 56.8159C322.136 57.8922 320.992 59.3478 320.292 61.0259C319.643 62.4957 319.228 64.0579 319.062 65.6559C318.736 67.9141 318.723 69.3215 318.705 71.3221V71.3243C318.697 72.2733 318.687 73.3558 318.642 74.7259C318.588 76.3264 318.533 76.9272 318.462 77.6885C318.387 78.4968 318.295 79.487 318.172 82.0459C318.138 82.7211 318.111 83.3245 318.086 83.8732C317.964 86.5752 317.902 87.9513 317.412 90.0459C317.107 91.7154 316.464 93.3047 315.522 94.7159C314.581 96.0183 313.353 97.086 311.932 97.8359C310.448 98.5706 308.826 98.983 307.172 99.0459C304.581 99.3362 301.959 99.0353 299.502 98.1659C298.399 97.6908 297.262 97.2964 296.102 96.9859C295.125 96.7045 294.117 96.5466 293.102 96.5159C291.899 96.5026 290.701 96.6781 289.552 97.0359C288.441 97.4402 287.367 97.9387 286.342 98.5259C284.817 99.192 283.184 99.5749 281.522 99.6559L269.952 99.7259C267.095 99.8978 264.23 99.5592 261.492 98.7259C259.269 98.0947 257.174 97.0794 255.302 95.7259C254.12 94.8568 253.572 94.2369 251.453 91.8373C251.134 91.4763 250.779 91.0744 250.382 90.6259C247.342 87.1959 245.822 85.5059 245.382 85.0959C242.738 82.5051 239.463 80.6504 235.882 79.7159C233.596 79.1143 231.205 79.0289 228.882 79.4659C226.781 79.8667 224.789 80.7123 223.042 81.9459C221.784 82.924 220.663 84.0677 219.712 85.3459C219.02 86.1801 218.713 86.6325 218.092 87.5501C217.707 88.1175 217.203 88.8627 216.412 89.9859C215.331 91.7092 214.085 93.3234 212.692 94.8059C211.546 95.943 210.218 96.8794 208.762 97.5759C207.711 98.0543 206.601 98.3906 205.462 98.5759C203.651 98.8088 201.827 98.919 200.002 98.9059C197.802 98.8846 195.608 98.6806 193.442 98.2959C190.612 97.7859 189.812 97.2959 189.442 97.0559C188.294 96.2323 187.37 95.136 186.752 93.866C186.322 93.096 186.162 92.5959 184.632 87.6659L184.625 87.6453C184.13 86.0312 183.959 85.4734 183.362 84.8759C182.879 84.4372 182.311 84.1018 181.694 83.8902C181.076 83.6787 180.422 83.5956 179.772 83.646C178.724 83.7739 177.745 84.2369 176.982 84.9659C176.214 85.7708 175.619 86.7235 175.232 87.7659C174.172 89.9459 173.642 91.0359 173.232 91.6659C172.282 93.4057 170.965 94.9175 169.372 96.0959C167.734 97.2057 165.886 97.9681 163.942 98.3359C162.563 98.6772 161.152 98.8749 159.732 98.9259L153.282 98.5059C152.663 98.3999 152.057 98.2324 151.472 98.0059C148.274 96.7767 146.607 94.0812 145.594 92.4434M379.552 92.4859L379.798 91.1372M379.552 92.4859C379.638 92.016 379.72 91.5667 379.798 91.1372M145.472 92.2459C145.002 91.4159 143.752 89.0959 142.922 83.9259C142.562 81.667 142.543 80.5073 142.516 78.8629C142.498 77.7193 142.475 76.3413 142.332 74.1959C141.902 67.7459 141.652 64.4459 139.852 60.9459C138.689 58.4779 136.908 56.3524 134.682 54.7759C132.866 53.5896 130.822 52.7959 128.682 52.4459C121.86 51.28 114.875 51.4806 108.132 53.0359C103.602 54.0359 99.1318 55.1059 94.0118 58.3259C90.1087 60.8375 86.6654 64 83.8318 67.6759C81.4922 70.8431 79.4818 74.2407 77.8318 77.8159C77.0548 79.3305 76.4637 80.5784 75.8974 81.774C74.8821 83.9175 73.9463 85.8932 72.1618 88.9359C70.9193 91.3633 69.2218 93.5293 67.1618 95.3159C65.6544 96.5343 63.9678 97.5125 62.1618 98.2159C60.4896 98.8791 58.7324 99.3033 56.9418 99.4759C53.8684 99.8415 50.7529 99.583 47.7818 98.7159C46.3469 98.353 44.991 97.7293 43.7818 96.8759C42.2095 95.6699 40.9846 94.069 40.2318 92.2359C39.0218 88.9759 39.4918 85.9059 40.0818 82.3059C40.4137 80.283 40.9189 78.2923 41.5918 76.3559C44.6874 67.1385 45.272 65.1562 45.5385 64.2523C45.7326 63.5941 45.7581 63.5079 46.4618 61.616C49.2018 54.216 51.7018 47.5459 54.1118 41.2059C54.6887 39.7004 55.5821 38.3363 56.7318 37.2059C57.9007 36.1119 59.2552 35.2349 60.7318 34.616C62.0718 33.956 63.9918 33.0359 66.3318 32.0259C68.4787 30.9754 70.736 30.1671 73.0618 29.616C75.1868 29.1147 77.3964 29.0908 79.5318 29.5459C80.3494 29.7443 80.7369 29.9283 81.6112 30.3432C82.1912 30.6186 82.9855 30.9956 84.2618 31.5459C84.2618 31.5459 86.8918 32.7059 89.7418 33.7659C92.3952 34.8492 95.1483 35.6697 97.9618 36.2159C100.955 36.744 104.008 36.8551 107.032 36.5459C109.877 36.2272 112.672 35.5554 115.352 34.5459C117.512 33.8059 125.752 31.0359 132.412 29.5459C139.212 28.1571 146.166 27.6829 153.092 28.1359C155.184 28.274 157.248 28.6875 159.232 29.366C162.121 30.3829 164.775 31.975 167.032 34.0459C168.683 35.6157 170.143 37.3745 171.382 39.2859C171.753 39.8752 172.015 40.3331 172.236 40.7195C172.694 41.5201 172.977 42.0143 173.692 42.7359C175.052 44.2218 176.873 45.2049 178.862 45.5259C180.629 45.7461 182.421 45.4143 183.992 44.5759C185.604 43.7624 186.96 42.5202 187.912 40.9859C188.497 39.8836 189.018 38.7483 189.472 37.5859C189.894 36.6073 190.204 35.8752 190.441 35.3149C191.086 33.7912 191.194 33.5385 191.552 33.0559C192.514 31.7855 193.761 30.7581 195.192 30.0559C196.742 29.3319 198.401 28.869 200.102 28.6859C203.408 28.1349 206.777 28.0709 210.102 28.4959C211.777 28.6027 213.414 29.0376 214.922 29.7759C216.572 30.7319 217.978 32.0564 219.032 33.6459C219.865 34.9081 220.575 36.2476 221.152 37.6459C221.802 39.0423 222.12 39.8815 222.352 40.4935C222.649 41.2754 222.805 41.6868 223.332 42.4159C224.302 43.7547 225.582 44.8389 227.062 45.5759C228.102 46.0807 229.216 46.4182 230.362 46.5759C232.284 46.8577 234.242 46.7729 236.132 46.3259C237.862 45.9104 239.525 45.254 241.072 44.3759C243.978 42.7163 246.665 40.7007 249.072 38.3759C250.642 36.9657 251.399 36.1411 252.006 35.4793C252.691 34.7331 253.186 34.1939 254.442 33.2559C256.448 31.6661 258.706 30.4223 261.122 29.5759C262.901 28.9912 264.739 28.599 266.602 28.4059C267.132 28.3359 267.732 28.2759 270.442 28.1759C277.752 27.8859 279.262 27.8859 281.282 28.1759C282.327 28.3059 283.363 28.5064 284.382 28.7759C285.27 29.0161 285.813 29.2238 286.689 29.5593C287.272 29.7826 288.003 30.0624 289.082 30.4459C289.403 30.5611 289.695 30.6669 289.962 30.7635C291.201 31.2114 291.889 31.4601 292.292 31.5259C294.008 31.8971 295.786 31.8732 297.492 31.4559C298.102 31.2985 298.354 31.1726 298.761 30.9686C299.183 30.7579 299.771 30.4639 301.092 29.9659C302.248 29.5221 303.426 29.1383 304.622 28.8159C305.937 28.4618 307.273 28.1879 308.622 27.9959C312.034 27.6264 315.48 27.7037 318.872 28.2259C321.136 28.4786 323.379 28.8963 325.582 29.4759C330.578 30.892 335.393 32.8819 339.932 35.4059C341.658 36.3803 343.445 37.2421 345.282 37.9859C346.214 38.413 347.185 38.7479 348.182 38.9859C349.555 39.2998 350.964 39.431 352.372 39.3759C354.546 39.3962 356.708 39.0583 358.772 38.3759C360.144 37.8638 361.463 37.2209 362.712 36.4559C366.003 34.725 369.388 33.1792 372.852 31.8259C375.236 30.8717 377.686 30.0897 380.182 29.4859C386.589 28.1389 393.227 28.3757 399.522 30.1759C404.299 31.4868 408.836 33.5529 412.962 36.2959C417.006 38.8472 420.678 41.9467 423.872 45.5059C427.772 49.9259 429.872 53.8759 432.092 58.2659C433.4 60.7862 434.708 64.0096 437.245 70.2592L437.552 71.0159C437.552 71.0159 439.402 75.5959 441.162 81.4759C441.624 82.9719 441.979 84.4991 442.222 86.0459C442.544 87.5094 442.675 89.0087 442.612 90.5059C442.596 92.8876 441.731 95.1854 440.172 96.9859C439.067 98.1126 437.689 98.9328 436.172 99.366C434.745 99.7683 433.262 99.9338 431.782 99.8559C430.356 99.9119 428.929 99.7943 427.532 99.5059C426.418 99.3423 425.346 98.9691 424.372 98.4059C423.454 97.8217 422.659 97.0643 422.032 96.1759C420.938 94.7457 420.068 93.1576 419.452 91.4659C418.082 87.8359 416.992 84.5259 416.192 81.9359C414.572 76.1859 413.012 71.6059 411.792 68.2859C411.115 66.2774 410.188 64.3622 409.032 62.5859C407.583 60.2051 405.593 58.2005 403.222 56.7359C401.583 55.7036 399.747 55.0226 397.832 54.7359C395.994 54.4884 394.126 54.6212 392.342 55.1259C390.543 55.6448 388.876 56.5415 387.452 57.7559C385.96 59.0749 384.779 60.7071 383.992 62.5359C382.969 64.8671 382.376 67.3639 382.242 69.9059C381.895 73.1141 381.752 75.1883 381.598 77.4066L381.598 77.4082C381.477 79.1584 381.35 80.9984 381.112 83.5559C381.039 84.3588 380.616 86.6682 379.798 91.1372M145.472 92.2459L145.594 92.4434M145.472 92.2459C145.511 92.3098 145.552 92.3757 145.594 92.4434M265.012 55.1657C265.844 54.1998 266.795 53.343 267.842 52.6158C270.282 50.8388 272.66 49.0021 275.036 47.1661C276.672 45.9025 278.307 44.6391 279.962 43.3957C280.678 42.8536 281.479 42.4345 282.332 42.1557C282.974 41.9314 283.652 41.823 284.332 41.8357C285.17 41.8202 285.992 42.0686 286.682 42.5457C287.212 42.966 287.622 43.5176 287.872 44.1458C288.118 44.6672 288.264 45.2303 288.302 45.8057C288.602 56.4257 288.909 67.0457 289.222 77.6657C289.259 78.1368 289.235 78.6106 289.152 79.0757C289.005 80.1362 288.512 81.1184 287.748 81.8691C286.985 82.6198 285.995 83.0968 284.932 83.2257C283.339 83.4553 281.713 83.1716 280.292 82.4157C279.615 82.107 278.975 81.7247 278.382 81.2757C274.13 78.1914 270.069 74.8519 266.222 71.2757C265.468 70.6039 264.797 69.8453 264.222 69.0157C263.435 67.9091 262.846 66.674 262.482 65.3657C261.847 62.8679 262.087 60.2282 263.162 57.8857C263.65 56.898 264.273 55.9826 265.012 55.1657Z" stroke="#21201F" stroke-width="2" stroke-miterlimit="10"/>
<path d="M462.275 99.0626C455.875 99.0626 450.627 93.8146 450.627 87.4146C450.627 81.0146 455.875 75.7666 462.275 75.7666C468.675 75.7666 473.923 81.0146 473.923 87.4146C473.923 93.8146 468.675 99.0626 462.275 99.0626ZM462.275 97.7826C467.811 97.7826 472.323 93.1426 472.323 87.4146C472.323 81.6866 467.811 77.0466 462.275 77.0466C456.739 77.0466 452.227 81.6866 452.227 87.4146C452.227 93.1426 456.739 97.7826 462.275 97.7826ZM458.595 91.9906V82.8066C458.595 80.9506 458.019 81.0146 457.059 80.9826C456.675 80.9826 456.611 80.7586 456.611 80.6626C456.611 80.5346 456.675 80.4066 456.835 80.3746C456.899 80.3746 456.963 80.3746 457.027 80.3746C457.859 80.4706 458.659 80.4706 459.491 80.4706C461.475 80.4706 461.955 80.3746 463.075 80.3746C466.627 80.3746 467.491 82.2626 467.491 83.8306C467.491 85.3026 466.595 86.7106 463.843 87.1266V87.2226C464.099 87.2226 464.451 87.3186 464.931 88.1506L467.459 92.6626C467.779 93.2066 468.003 93.7506 468.867 93.8146C469.219 93.8466 469.539 93.7826 469.539 94.1346C469.539 94.3906 469.347 94.4226 469.123 94.4546C468.899 94.4866 468.707 94.4546 468.483 94.4546C468.227 94.4546 468.003 94.4546 467.747 94.4546C467.459 94.4546 467.171 94.4866 466.883 94.4866C466.339 94.4866 466.243 94.4546 465.859 93.7506L463.267 88.7906C462.915 88.1186 462.531 87.5106 461.827 87.5106H460.675C460.355 87.5106 460.387 87.7986 460.387 88.0546V91.9906C460.387 94.0706 461.155 93.7506 461.987 93.8146C462.275 93.8466 462.371 94.0066 462.371 94.1346C462.371 94.3906 462.051 94.4546 461.955 94.4546C461.155 94.4546 460.323 94.3586 459.491 94.3586C458.659 94.3586 457.859 94.4546 457.027 94.4546C456.675 94.4546 456.611 94.2626 456.611 94.1346C456.611 94.0066 456.707 93.8466 456.995 93.8146C457.827 93.7506 458.595 94.0706 458.595 91.9906ZM460.387 82.3586V86.3906C460.387 86.8066 460.483 86.9346 460.963 86.9346H462.051C465.059 86.9346 465.603 85.1426 465.603 83.9586C465.603 82.7106 464.995 81.0466 462.339 80.9506C462.115 80.9506 461.859 80.9506 461.635 80.9506C460.771 80.9826 460.387 81.0786 460.387 82.3586Z" fill="#21201F"/>
</svg>
