<svg width="513" height="128" viewBox="0 0 513 128" fill="none" xmlns="http://www.w3.org/2000/svg">
<rect width="512" height="128" transform="translate(0.699219)" fill="#FEFEFE"/>
<path fill-rule="evenodd" clip-rule="evenodd" d="M39.8435 82.3059C40.1754 80.283 40.6806 78.2923 41.3535 76.3559C44.4491 67.1385 45.0337 65.1562 45.3003 64.2523C45.4944 63.5941 45.5198 63.5079 46.2235 61.616C48.9635 54.216 51.4635 47.5459 53.8735 41.2059C54.4504 39.7004 55.3438 38.3363 56.4935 37.2059C57.6624 36.1119 59.0169 35.2349 60.4935 34.616C61.8335 33.956 63.7535 33.0359 66.0935 32.0259C68.2405 30.9754 70.4977 30.1671 72.8235 29.616C74.9485 29.1147 77.1582 29.0908 79.2935 29.5459C80.1111 29.7443 80.4986 29.9283 81.3729 30.3432C81.9529 30.6186 82.7473 30.9956 84.0235 31.5459C84.0235 31.5459 86.6535 32.7059 89.5035 33.7659C92.1569 34.8492 94.91 35.6697 97.7235 36.2159C100.717 36.744 103.769 36.8551 106.794 36.5459C109.639 36.2272 112.434 35.5554 115.113 34.5459C117.273 33.8059 125.514 31.0359 132.174 29.5459C138.973 28.1571 145.928 27.6829 152.854 28.1359C154.945 28.274 157.01 28.6875 158.993 29.366C161.883 30.3829 164.536 31.975 166.794 34.0459C168.444 35.6157 169.904 37.3745 171.144 39.2859C171.515 39.8752 171.777 40.3331 171.998 40.7195C172.456 41.5201 172.739 42.0143 173.454 42.7359C174.813 44.2218 176.635 45.2049 178.623 45.5259C180.391 45.7461 182.182 45.4143 183.753 44.5759C185.365 43.7624 186.722 42.5202 187.673 40.9859C188.258 39.8836 188.779 38.7483 189.233 37.5859C189.656 36.6073 189.966 35.8752 190.203 35.3149C190.848 33.7912 190.955 33.5385 191.313 33.0559C192.276 31.7855 193.523 30.7581 194.954 30.0559C196.504 29.3319 198.163 28.869 199.863 28.6859C203.17 28.1349 206.539 28.0709 209.863 28.4959C211.538 28.6027 213.176 29.0376 214.683 29.7759C216.333 30.7319 217.74 32.0564 218.793 33.6459C219.627 34.9081 220.337 36.2476 220.913 37.6459C221.563 39.0423 221.882 39.8815 222.114 40.4935C222.41 41.2754 222.566 41.6868 223.094 42.4159C224.064 43.7547 225.344 44.8389 226.824 45.5759C227.864 46.0807 228.978 46.4182 230.123 46.5759C232.045 46.8577 234.003 46.7729 235.894 46.3259C237.623 45.9104 239.286 45.254 240.834 44.3759C243.739 42.7163 246.427 40.7007 248.834 38.3759C250.404 36.9657 251.16 36.1411 251.768 35.4793C252.453 34.7331 252.948 34.1939 254.204 33.2559C256.21 31.6661 258.468 30.4223 260.883 29.5759C262.663 28.9912 264.5 28.599 266.363 28.4059C266.893 28.3359 267.493 28.2759 270.204 28.1759C277.514 27.8859 279.023 27.8859 281.043 28.1759C282.089 28.3059 283.125 28.5064 284.144 28.7759C285.032 29.0161 285.575 29.2238 286.451 29.5593C287.034 29.7826 287.765 30.0624 288.844 30.4459C289.164 30.5611 289.457 30.6669 289.724 30.7635C290.963 31.2114 291.65 31.4601 292.053 31.5259C293.77 31.8971 295.548 31.8732 297.253 31.4559C297.863 31.2985 298.115 31.1726 298.523 30.9686C298.944 30.7579 299.532 30.4639 300.853 29.9659C302.01 29.5221 303.188 29.1383 304.383 28.8159C305.699 28.4618 307.035 28.1879 308.383 27.9959C311.796 27.6264 315.241 27.7037 318.633 28.2259C320.898 28.4786 323.14 28.8963 325.344 29.4759C330.34 30.892 335.155 32.8819 339.693 35.4059C341.419 36.3803 343.206 37.2421 345.043 37.9859C345.975 38.413 346.947 38.7479 347.943 38.9859C349.317 39.2998 350.726 39.431 352.133 39.3759C354.307 39.3962 356.47 39.0583 358.534 38.3759C359.905 37.8638 361.225 37.2209 362.473 36.4559C365.765 34.725 369.15 33.1792 372.613 31.8259C374.998 30.8717 377.447 30.0897 379.943 29.4859C386.35 28.1389 392.989 28.3757 399.284 30.1759C404.061 31.4868 408.598 33.5529 412.723 36.2959C416.768 38.8472 420.44 41.9467 423.633 45.5059C427.533 49.9259 429.633 53.8759 431.853 58.2659C433.162 60.7862 434.47 64.0096 437.006 70.2592L437.313 71.0159C437.313 71.0159 439.163 75.5959 440.923 81.4759C441.386 82.9719 441.74 84.4991 441.983 86.0459C442.306 87.5094 442.437 89.0087 442.373 90.5059C442.358 92.8876 441.493 95.1854 439.933 96.9859C438.829 98.1126 437.451 98.9328 435.933 99.366C434.507 99.7683 433.024 99.9338 431.543 99.8559C430.118 99.9119 428.691 99.7943 427.293 99.5059C426.18 99.3423 425.108 98.9691 424.133 98.4059C423.216 97.8217 422.421 97.0643 421.793 96.1759C420.7 94.7457 419.83 93.1576 419.214 91.4659C417.844 87.8359 416.753 84.5259 415.953 81.9359C414.333 76.1859 412.773 71.6059 411.553 68.2859C410.877 66.2774 409.95 64.3622 408.793 62.5859C407.345 60.2051 405.354 58.2005 402.983 56.7359C401.344 55.7036 399.509 55.0226 397.594 54.7359C395.756 54.4884 393.887 54.6212 392.103 55.1259C390.305 55.6448 388.638 56.5415 387.214 57.7559C385.722 59.0749 384.54 60.7071 383.753 62.5359C382.731 64.8671 382.138 67.3639 382.003 69.9059C381.657 73.1141 381.513 75.1883 381.36 77.4066L381.36 77.4082C381.239 79.1584 381.112 80.9984 380.873 83.5559C380.801 84.3588 380.378 86.6682 379.56 91.1372L379.313 92.4859C379.121 94.2129 378.449 95.8515 377.373 97.2159C376.549 98.1557 375.524 98.8974 374.373 99.3859C373.612 99.6667 372.82 99.858 372.013 99.9559C370.06 100.293 368.066 100.323 366.103 100.046C364.647 99.8933 363.227 99.4943 361.904 98.866C360.356 98.0935 358.993 96.999 357.904 95.6559C356.551 94.0079 355.533 92.1128 354.904 90.0759C354.053 87.6337 353.854 86.0204 353.612 84.0598C353.44 82.6568 353.245 81.0758 352.773 78.8859C352.38 76.6129 351.781 74.3804 350.983 72.2159C349.142 67.3309 345.948 63.0713 341.773 59.9359C338.708 57.8672 335.298 56.3635 331.703 55.4959C330.293 55.0975 328.814 55.0021 327.363 55.2159C325.925 55.4369 324.557 55.9843 323.363 56.8159C321.898 57.8922 320.754 59.3478 320.053 61.0259C319.405 62.4957 318.99 64.0579 318.823 65.6559C318.498 67.9141 318.485 69.3215 318.467 71.3221V71.3243C318.458 72.2733 318.449 73.3558 318.404 74.7259C318.35 76.3264 318.294 76.9272 318.224 77.6885C318.149 78.4968 318.057 79.487 317.933 82.0459C317.9 82.7211 317.872 83.3245 317.848 83.8732C317.726 86.5752 317.664 87.9513 317.173 90.0459C316.869 91.7154 316.226 93.3047 315.284 94.7159C314.343 96.0183 313.114 97.086 311.693 97.8359C310.21 98.5706 308.588 98.983 306.933 99.0459C304.343 99.3362 301.721 99.0353 299.263 98.1659C298.16 97.6908 297.024 97.2964 295.863 96.9859C294.887 96.7045 293.879 96.5466 292.863 96.5159C291.66 96.5026 290.462 96.6781 289.313 97.0359C288.203 97.4402 287.129 97.9387 286.103 98.5259C284.579 99.192 282.945 99.5749 281.284 99.6559L269.714 99.7259C266.857 99.8978 263.992 99.5592 261.253 98.7259C259.031 98.0947 256.936 97.0794 255.063 95.7259C253.881 94.8568 253.334 94.2369 251.215 91.8373C250.896 91.4763 250.541 91.0744 250.144 90.6259C247.104 87.1959 245.584 85.5059 245.144 85.0959C242.5 82.5051 239.225 80.6504 235.644 79.7159C233.358 79.1143 230.966 79.0289 228.644 79.4659C226.542 79.8667 224.551 80.7123 222.803 81.9459C221.545 82.924 220.425 84.0677 219.473 85.3459C218.781 86.1801 218.475 86.6325 217.853 87.5501C217.469 88.1175 216.964 88.8627 216.173 89.9859C215.092 91.7092 213.847 93.3234 212.454 94.8059C211.308 95.943 209.979 96.8794 208.524 97.5759C207.473 98.0543 206.363 98.3906 205.223 98.5759C203.413 98.8088 201.589 98.919 199.764 98.9059C197.564 98.8846 195.37 98.6806 193.204 98.2959C190.374 97.7859 189.574 97.2959 189.204 97.0559C188.056 96.2323 187.132 95.136 186.514 93.866C186.084 93.096 185.924 92.5959 184.394 87.6659L184.387 87.6453C183.892 86.0312 183.721 85.4734 183.123 84.8759C182.64 84.4372 182.073 84.1018 181.456 83.8902C180.838 83.6787 180.184 83.5956 179.534 83.646C178.486 83.7739 177.507 84.2369 176.743 84.9659C175.976 85.7708 175.381 86.7235 174.993 87.7659C173.933 89.9459 173.403 91.0359 172.993 91.6659C172.044 93.4057 170.727 94.9175 169.133 96.0959C167.496 97.2057 165.648 97.9681 163.704 98.3359C162.324 98.6772 160.913 98.8749 159.493 98.9259L153.044 98.5059C152.425 98.3999 151.819 98.2324 151.234 98.0059C148.036 96.7767 146.369 94.0812 145.356 92.4434L145.234 92.2459C144.764 91.4159 143.513 89.0959 142.683 83.9259C142.324 81.667 142.305 80.5073 142.278 78.8629C142.259 77.7193 142.237 76.3413 142.093 74.1959C141.663 67.7459 141.413 64.4459 139.613 60.9459C138.451 58.4779 136.67 56.3524 134.443 54.7759C132.628 53.5896 130.584 52.7959 128.443 52.4459C121.622 51.28 114.637 51.4806 107.894 53.0359C103.364 54.0359 98.8935 55.1059 93.7735 58.3259C89.8704 60.8375 86.4272 64 83.5935 67.6759C81.2539 70.8431 79.2435 74.2407 77.5935 77.8159C76.8165 79.3305 76.2254 80.5784 75.6591 81.774C74.6439 83.9175 73.708 85.8932 71.9235 88.9359C70.681 91.3633 68.9836 93.5293 66.9235 95.3159C65.4161 96.5343 63.7296 97.5125 61.9235 98.2159C60.2514 98.8791 58.4941 99.3033 56.7035 99.4759C53.6301 99.8415 50.5146 99.583 47.5435 98.7159C46.1086 98.353 44.7527 97.7293 43.5435 96.8759C41.9712 95.6699 40.7463 94.069 39.9935 92.2359C38.7835 88.9759 39.2535 85.9059 39.8435 82.3059ZM267.604 52.6158C266.557 53.343 265.606 54.1998 264.774 55.1657C264.034 55.9826 263.412 56.898 262.924 57.8857C261.849 60.2282 261.609 62.8679 262.244 65.3657C262.608 66.674 263.197 67.9091 263.984 69.0157C264.559 69.8453 265.23 70.6039 265.984 71.2757C269.831 74.8519 273.892 78.1914 278.144 81.2757C278.737 81.7247 279.377 82.107 280.054 82.4157C281.475 83.1716 283.1 83.4553 284.694 83.2257C285.756 83.0968 286.747 82.6198 287.51 81.8691C288.273 81.1184 288.767 80.1362 288.914 79.0757C288.997 78.6106 289.02 78.1368 288.984 77.6657C288.67 67.0457 288.364 56.4257 288.064 45.8057C288.026 45.2303 287.88 44.6672 287.634 44.1458C287.384 43.5176 286.973 42.966 286.444 42.5457C285.754 42.0686 284.932 41.8202 284.094 41.8357C283.413 41.823 282.736 41.9314 282.094 42.1557C281.24 42.4345 280.439 42.8536 279.724 43.3957C278.069 44.6391 276.433 45.9025 274.798 47.1661C272.421 49.0021 270.044 50.8388 267.604 52.6158Z" fill="#21201F"/>
<path d="M462.513 98.8292C456.113 98.8292 450.865 93.5812 450.865 87.1812C450.865 80.7812 456.113 75.5332 462.513 75.5332C468.913 75.5332 474.161 80.7812 474.161 87.1812C474.161 93.5812 468.913 98.8292 462.513 98.8292ZM462.513 97.5492C468.049 97.5492 472.561 92.9092 472.561 87.1812C472.561 81.4532 468.049 76.8132 462.513 76.8132C456.977 76.8132 452.465 81.4532 452.465 87.1812C452.465 92.9092 456.977 97.5492 462.513 97.5492ZM458.833 91.7572V82.5732C458.833 80.7172 458.257 80.7812 457.297 80.7492C456.913 80.7492 456.849 80.5252 456.849 80.4292C456.849 80.3012 456.913 80.1732 457.073 80.1412C457.137 80.1412 457.201 80.1412 457.265 80.1412C458.097 80.2372 458.897 80.2372 459.729 80.2372C461.713 80.2372 462.193 80.1412 463.313 80.1412C466.865 80.1412 467.729 82.0292 467.729 83.5972C467.729 85.0692 466.833 86.4772 464.081 86.8932V86.9892C464.337 86.9892 464.689 87.0852 465.169 87.9172L467.697 92.4292C468.017 92.9732 468.241 93.5172 469.105 93.5812C469.457 93.6132 469.777 93.5492 469.777 93.9012C469.777 94.1572 469.585 94.1892 469.361 94.2212C469.137 94.2532 468.945 94.2212 468.721 94.2212C468.465 94.2212 468.241 94.2212 467.985 94.2212C467.697 94.2212 467.409 94.2532 467.121 94.2532C466.577 94.2532 466.481 94.2212 466.097 93.5172L463.505 88.5572C463.153 87.8852 462.769 87.2772 462.065 87.2772H460.913C460.593 87.2772 460.625 87.5652 460.625 87.8212V91.7572C460.625 93.8372 461.393 93.5172 462.225 93.5812C462.513 93.6132 462.609 93.7732 462.609 93.9012C462.609 94.1572 462.289 94.2212 462.193 94.2212C461.393 94.2212 460.561 94.1252 459.729 94.1252C458.897 94.1252 458.097 94.2212 457.265 94.2212C456.913 94.2212 456.849 94.0292 456.849 93.9012C456.849 93.7732 456.945 93.6132 457.233 93.5812C458.065 93.5172 458.833 93.8372 458.833 91.7572ZM460.625 82.1252V86.1572C460.625 86.5732 460.721 86.7012 461.201 86.7012H462.289C465.297 86.7012 465.841 84.9092 465.841 83.7252C465.841 82.4772 465.233 80.8132 462.577 80.7172C462.353 80.7172 462.097 80.7172 461.873 80.7172C461.009 80.7492 460.625 80.8452 460.625 82.1252Z" fill="#21201F"/>
</svg>
