<svg xmlns="http://www.w3.org/2000/svg" version="1.1" xmlns:xlink="http://www.w3.org/1999/xlink" xmlns:svgjs="http://svgjs.com/svgjs" width="512" height="512" viewBox="0 0 512 512"><style>@media (prefers-color-scheme: light) { :root { filter: none; } }
</style>
  <rect width="512" height="512" fill="#fff" rx="256"/>
  <path stroke="#000" stroke-linecap="round" stroke-linejoin="round" stroke-width="3.6" d="M280.025 246.954a16.063 16.063 0 0 1 2.84-2.56c4.14-3 8.08-6.18 12.15-9.23a7.694 7.694 0 0 1 2.38-1.24 5.452 5.452 0 0 1 2-.32 3.935 3.935 0 0 1 2.35.71c.533.42.947.971 1.2 1.6.24.524.382 1.086.42 1.66l.93 31.93c.032.475.006.952-.08 1.42a4.848 4.848 0 0 1-4.22 4.15 7.516 7.516 0 0 1-4.65-.82 10.068 10.068 0 0 1-1.92-1.13c-4.253-3.09-8.32-6.43-12.18-10a12.904 12.904 0 0 1-2-2.27 11.711 11.711 0 0 1-1.74-3.66 11.315 11.315 0 0 1 .68-7.49 12.161 12.161 0 0 1 1.84-2.75Z"/>
  <path fill="#000" d="M280.025 246.954a12.17 12.17 0 0 0-1.84 2.7 11.315 11.315 0 0 0-.68 7.49 11.667 11.667 0 0 0 1.74 3.66 12.863 12.863 0 0 0 2 2.27c3.86 3.571 7.927 6.91 12.18 10 .596.447 1.24.826 1.92 1.13a7.516 7.516 0 0 0 4.65.82 4.85 4.85 0 0 0 4.22-4.15c.085-.468.112-.945.08-1.42l-.93-31.93a4.736 4.736 0 0 0-.42-1.66 3.882 3.882 0 0 0-1.2-1.6 3.935 3.935 0 0 0-2.35-.71 5.449 5.449 0 0 0-2 .32c-.86.271-1.666.69-2.38 1.24-4.07 3.05-8 6.27-12.15 9.23a16.057 16.057 0 0 0-2.84 2.61Zm-225.4 27.2a37.38 37.38 0 0 1 1.52-6c5.36-16 3.2-10.27 4.87-14.77l7.67-20.45a11.337 11.337 0 0 1 2.63-4.05 13.472 13.472 0 0 1 4-2.59c1.34-.67 3.26-1.58 5.61-2.59a31.728 31.728 0 0 1 6.75-2.42 14.821 14.821 0 0 1 6.48-.07c1.36.33 1.53.62 4.73 2 0 0 2.64 1.16 5.5 2.22a43.057 43.057 0 0 0 8.24 2.46c2.997.528 6.053.64 9.08.33a34.693 34.693 0 0 0 8.34-2c2.17-.75 10.43-3.52 17.1-5a77.795 77.795 0 0 1 20.72-1.41c2.1.129 4.172.543 6.16 1.23a22.731 22.731 0 0 1 7.81 4.69 29.757 29.757 0 0 1 4.36 5.25c1.14 1.81 1.25 2.38 2.32 3.46a8.995 8.995 0 0 0 5.18 2.79 8.667 8.667 0 0 0 5.14-.95 9.998 9.998 0 0 0 3.93-3.59c.58-1.108 1.1-2.246 1.56-3.41 1.57-3.66 1.59-3.88 2.08-4.55a10.144 10.144 0 0 1 3.65-3 15.254 15.254 0 0 1 4.92-1.37 34.134 34.134 0 0 1 10-.19c1.678.1 3.32.531 4.83 1.27a12.356 12.356 0 0 1 4.12 3.89 23.49 23.49 0 0 1 2.13 4c1.47 3.2 1.24 3.49 2.17 4.78a10.487 10.487 0 0 0 3.74 3.18c1.047.506 2.168.844 3.32 1 1.922.282 3.88.197 5.77-.25a18.78 18.78 0 0 0 5-1.95 40.316 40.316 0 0 0 8-6c3.35-3.06 3-3.36 5.39-5.13a23.028 23.028 0 0 1 6.69-3.69 25.828 25.828 0 0 1 5.49-1.18c.53-.06 1.13-.12 3.85-.23 7.32-.29 8.83-.28 10.86 0 1.049.135 2.088.339 3.11.61 1.48.39 2.05.71 4.71 1.67 1.81.65 2.72 1 3.21 1.08 1.722.377 3.508.353 5.22-.07 1.24-.32 1-.51 3.6-1.49 1.158-.45 2.34-.838 3.54-1.16 1.336-.35 2.692-.62 4.06-.81a39.679 39.679 0 0 1 10.27.22c2.267.259 4.513.68 6.72 1.26a67.175 67.175 0 0 1 14.38 5.94 48.596 48.596 0 0 0 5.36 2.59c.942.419 1.919.754 2.92 1 1.373.314 2.782.445 4.19.39 2.177.018 4.342-.32 6.41-1a21.444 21.444 0 0 0 4-1.92 98.031 98.031 0 0 1 10.16-4.63 53.941 53.941 0 0 1 7.35-2.35 40.208 40.208 0 0 1 19.37.69 46.188 46.188 0 0 1 13.47 6.13 51.851 51.851 0 0 1 10.94 9.23c3.91 4.43 6 8.39 8.24 12.78 1.36 2.63 2.73 6 5.46 12.79 0 0 1.86 4.59 3.63 10.47a36.71 36.71 0 0 1 1.06 4.58c.317 1.471.448 2.977.39 4.48a9.996 9.996 0 0 1-2.45 6.49 8.997 8.997 0 0 1-4 2.38 13.656 13.656 0 0 1-4.41.5 17.71 17.71 0 0 1-4.26-.35 9.172 9.172 0 0 1-3.16-1.11 8.354 8.354 0 0 1-2.34-2.23 17.585 17.585 0 0 1-2.59-4.73c-1.38-3.63-2.47-6.95-3.27-9.55-1.62-5.75-3.18-10.35-4.4-13.67a25.538 25.538 0 0 0-2.77-5.71 17.49 17.49 0 0 0-5.83-5.86 13.94 13.94 0 0 0-5.39-2 13.424 13.424 0 0 0-5.51.4 13.001 13.001 0 0 0-4.9 2.62 13.43 13.43 0 0 0-3.46 4.8 21.198 21.198 0 0 0-1.76 7.38c-.62 5.75-.59 7.87-1.13 13.68-.09.89-.58 3.58-1.56 8.95a9.263 9.263 0 0 1-2 4.74 8.224 8.224 0 0 1-3 2.17 9.183 9.183 0 0 1-2.36.57 19.052 19.052 0 0 1-5.92.1 12.754 12.754 0 0 1-4.21-1.19 12.032 12.032 0 0 1-4-3.22 16.45 16.45 0 0 1-3-5.58c-1.47-4.2-1-6-2.13-11.22a39.087 39.087 0 0 0-1.8-6.68 27.497 27.497 0 0 0-9.24-12.31 31.117 31.117 0 0 0-10.08-4.45 10.459 10.459 0 0 0-4.35-.28 9.655 9.655 0 0 0-4 1.61 10.206 10.206 0 0 0-3.32 4.21 15.407 15.407 0 0 0-1.23 4.64c-.48 3.34-.28 4.83-.42 9.09-.11 3.31-.23 2.35-.48 7.34-.19 4-.16 5.49-.75 8a12.518 12.518 0 0 1-1.9 4.69 10.35 10.35 0 0 1-3.6 3.12 11.723 11.723 0 0 1-4.77 1.21 17.12 17.12 0 0 1-7.68-.88 25.03 25.03 0 0 0-3.41-1.18 12.29 12.29 0 0 0-3-.47 11.243 11.243 0 0 0-3.55.52c-1.113.407-2.19.905-3.22 1.49a13.764 13.764 0 0 1-4.83 1.13l-11.6.07a24.175 24.175 0 0 1-8.47-1 19.707 19.707 0 0 1-6.2-3c-1.37-1-1.89-1.68-4.94-5.11-3.05-3.43-4.56-5.14-5-5.54a21.13 21.13 0 0 0-9.51-5.4 16.199 16.199 0 0 0-7-.25 14.786 14.786 0 0 0-5.85 2.49 17.488 17.488 0 0 0-3.34 3.41c-1.12 1.34-1.23 1.7-3.3 4.65a33.946 33.946 0 0 1-3.73 4.83 14.775 14.775 0 0 1-3.94 2.77c-1.054.48-2.167.816-3.31 1a40.336 40.336 0 0 1-5.47.33 37.507 37.507 0 0 1-6.57-.61c-2.84-.51-3.64-1-4-1.24a8.474 8.474 0 0 1-2.7-3.2c-.43-.77-.59-1.27-2.12-6.21-.5-1.63-.68-2.2-1.28-2.8a4.807 4.807 0 0 0-3.59-1.23 4.878 4.878 0 0 0-2.8 1.33 7.957 7.957 0 0 0-1.75 2.8l-1.95 3.91a13.938 13.938 0 0 1-3.87 4.44 14.544 14.544 0 0 1-5.45 2.24c-1.379.343-2.79.544-4.21.6l-6.46-.43a8.794 8.794 0 0 1-1.83-.5c-3.33-1.28-5-4.16-6-5.77-.48-.83-1.73-3.16-2.56-8.33-.61-3.85-.24-4.52-.59-9.76-.43-6.46-.68-9.77-2.49-13.28a15.8 15.8 0 0 0-5.18-6.18 15.485 15.485 0 0 0-6-2.34 52.676 52.676 0 0 0-20.59.59c-4.54 1.05-9 2.08-14.16 5.3a41.496 41.496 0 0 0-10.2 9.38 58.414 58.414 0 0 0-6 10.15c-2.18 4.24-2.9 6.4-5.69 11.15a21.2 21.2 0 0 1-5 6.39 18.85 18.85 0 0 1-10.2 4.17c-3.08.372-6.203.113-9.18-.76a12.156 12.156 0 0 1-4-1.84 11.2 11.2 0 0 1-3.55-4.65c-1.46-3.21-1.01-6.35-.4-9.92h-.01Z"/>
  <path stroke="#000" stroke-linecap="round" stroke-linejoin="round" stroke-width="4.5" d="m44.235 272.434.66-3.25.69-2.56.3-1 .29-.87.61-1.82 1-3 .92-2.79.52-1.6.44-1.41.19-.61.22-.74.17-.56.2-.59.22-.62.76-2 2.58-6.93 4.84-12.84.32-.8.39-.86 1-1.92a25.06 25.06 0 0 1 1.47-2.14 21.577 21.577 0 0 1 1.91-2.13l.52-.5.61-.54.88-.7 1.85-1.23 1.07-.63 1.21-.64.95-.43 1.38-.67 3.19-1.46.91-.4 1.09-.47 1.87-.78 1.68-.66 2.21-.73 1.17-.3 1.2-.26 1.48-.26 1-.14 2.49-.18h1.43l1.55.11 1.64.23.84.17.66.16.54.14.48.14.48.17.48.17.44.17.64.28.4.18 1.15.56 1.7.78.25.1.66.29 1.2.5 2.49 1 1.2.44 1.21.44 1.22.42 1.23.36 1.05.26 1.24.23 1 .12 1.12.1a22.9 22.9 0 0 0 2.62 0l1.92-.19 1.23-.22 1.1-.26 1.31-.39.56-.19 1.15-.39 2.63-.88 3.25-1 3.57-1.09 2.07-.59 2.13-.59 4.3-1.07.46-.1 1-.2 2.13-.38 4.7-.63c2-.22 4.026-.376 6.08-.47 2.36-.1 4.73-.11 7.09 0l1.88.11 1 .08 1.35.15 1.69.24c1.225.211 2.437.492 3.63.84l1.06.33 1 .36 1.77.7c1.059.463 2.094.98 3.1 1.55l2.52 1.57 2 1.46 1.37 1.16.83.78 1 1 1.68 1.9 1.31 1.66.63.86.64.93 1-2.49.34-.78.31-.66.41-.8.23-.41.25-.39.24-.36.28-.4.84-1.07 1-1 1-.91.92-.78 1.69-1.21 1.36-.81.41-.22.36-.19.54-.26.68-.3.77-.31 1.8-.58 2.12-.52 1.21-.23.64-.11 1.69-.25c1.3-.16 2.61-.28 3.93-.33h3.2l2.58.15 2 .22 1.19.18.65.1.72.13 1.32.29 1.68.5.88.33.86.38.83.41.7.39 1.13.7c.674.452 1.322.943 1.94 1.47l1.56 1.46 1.21 1.34.88 1.13.27.36.29.41.37.54.35.54.33.55.58 1 .44.86.28.6.69 1.47.71 1.59.56 1.38h1.3l.46-.08h.3l.24-.08.31-.11.52-.22.66-.32.36-.19.11-.06.38-.22.65-.41.43-.3 1.1-.8 1.4-1.12 1.66-1.45 1.32-1.25.46-.46.45-.47.32-.35.32-.34.22-.23.52-.52.66-.62.66-.58.47-.39.74-.57 1.08-.81.72-.5 1.36-.89.95-.58 1.76-.95 2-.91 2.14-.8c1-.34 2-.62 3.06-.86l2.16-.42 1.07-.16.49-.07.73-.09.58-.06.6-.05 1.34-.08 1.89-.08 1.78-.07 1.7-.06 2.46-.08h3.9l1.6.11 1.44.17.94.14.49.08 1 .19 1.15.26.61.15.43.12 1.38.42 1 .36 1.48.56 1.41.52 1.62.58.39.14.83-.37 1.1-.46.63-.25.51-.19.41-.15 1.46-.51 1.27-.4.71-.2.65-.17 1.4-.34 1.48-.3 1.8-.31.68-.09 1-.11 1.9-.15h3.47l1.57.08 2 .16 1.23.13 1.35.15 3.4.49c1.62.28 3.24.63 4.83 1l.38.11.8.23 1.17.35 1.07.35 3.72 1.34 2.21.9 2.4 1.06c1.75.8 3.47 1.68 5.15 2.62l.88.49.69.36.65.31 1.25.55 1 .43.4.17.3.12.17.06.15.05h.2l.42.05h1.85l.56-.05h.43l.6-.11.62-.17.18-.06h.42l.34-.18 1.53-.84.76-.4 1.49-.76 2.64-1.27 3.39-1.52 3.09-1.25 2.56-1 2-.68 3.23-.92 2-.45c1.24-.25 2.48-.45 3.73-.6a47.65 47.65 0 0 1 6.85-.32 51.235 51.235 0 0 1 10.28 1.28l1.7.41.65.16.55.15.67.19 2.48.78c1.51.51 3 1.1 4.46 1.74l3 1.43 3.12 1.73 1.09.66.8.5.8.51c1.5 1 3 2 4.38 3.09l1.8 1.43 1.73 1.49.85.76.83.78 2.16 2.17.64.69.59.67 1.5 1.78c.92 1.14 1.793 2.31 2.62 3.51l2.14 3.39 1.1 1.9.85 1.57 1.37 2.63 1.55 3.23.52 1.19 1 2.46 1.26 3.08 1.51 3.71.24.63.58 1.5.82 2.26.68 2 1.07 3.27.55 1.78.24.81.57 2.21.57 2.9.23 1.47.08.54.09.77.06.63v1.68l-.05 1.45-.09 1-.09.83-.16 1.05-.27 1.27-.53 1.86-.6 1.54-.8 1.62-1 1.65-1.14 1.73-.82.88-1 1a19.097 19.097 0 0 1-2.05 1.52l-1.89 1.09-1.62.72-.67.25-.63.22-.46.14-.44.13-.88.22-.87.18-.85.14-1.55.16h-4.7l-1.35-.09-1.51-.18-1.65-.3-1.07-.23-.52-.14-1.08-.31-1.24-.45-1.33-.6-.67-.36-.6-.35-.76-.5-.89-.66-.91-.78-.91-.88-.88-1-1-1.3a27.325 27.325 0 0 1-2-3.11l-.94-1.85-.48-1.1-.31-.76-.09-.23-.35-.93-.68-1.88a182.633 182.633 0 0 1-2.46-7.4v-.27l-2-6.66-1.79-5.24-.39-1.08-.19-.5-.17-.44-.23-.57-.34-.72-.39-.71-.23-.37-.28-.42-.22-.32-.5-.68-.5-.55-.52-.45-.31-.21-.19-.12-.21-.13-.3-.15-.28-.13-.31-.09-.73-.09h-.83l-.17.06-.3.14-.22.14-.12.08-.12.1-.15.17-.15.21-.17.3-.12.24-.17.36-.07.15-.1.28-.09.26-.08.28-.08.34-.08.44-.08.54-.08.56-.15 1.39-.17 1.66-.14 1.47-.11 1.35-.13 1.87-.19 2.71-.13 1.64-.16 1.85v.8l-.07.58-.08.58-.09.58-.06.38-.07.38-.13.77-.14.77-.46 2.54-.59 3.21-.45 1.36-.22.94-.3 1.08-.42 1.2-.56 1.3-.71 1.35-.89 1.37-1 1.33-1 1.1-1 .92-1 .76-.93.63-1.59.92-.65.32-.51.23-.27.11-.25.1-.42.15-1 .32-1.19.3-1.36.27-.39.06-.57.08-.33.05-1.13.13-2 .14h-2.4l-2.72-.27-1.2-.19-.6-.11-1.25-.28-1.42-.41-1.52-.56-1.65-.77-1.9-1.1-1.62-1.16-1.33-1.13-1.06-1-.82-.91-.3-.34-.19-.24-.41-.51-.88-1.2-.9-1.43-.87-1.61-.82-1.8-.77-2-.27-.78-.22-.71-.39-1.37-.32-1.31-.28-1.44-.18-1.12-.3-2.27-.2-1.51-.15-.88-.18-1v-.27l-.24-1.13-.17-.82-.36-1.46-.21-.71-.25-.7-.07-.18-.13-.34-.19-.46-.52-1.12-.77-1.37-1.28-1.52-1.33-1.49c-.508-.5-1.049-.964-1.62-1.39l-.29-.19-.4-.24-.62-.35-.79-.4-.92-.43-1-.41-2.03-.67-.07.32-.09.52-.11.73-.09.66-.09 1.1v3.77l-.05 1.79v2.18l-.05.74-.06.66-.07.74v.46l-.14 2-.12 2.36-.08 2-.12 1.79-.21 2-.37 2.11-.12.53-.14.57-.3 1.16-.69 2.12-.77 1.85-.83 1.57-.6 1-.32.46-.81 1.05a20.775 20.775 0 0 1-4.83 4.31l-1.22.73-.25.14-.33.18-1.11.52-2.17.81-1 .29-1 .21-1.68.28h-.36l-.61.07-.93.08h-.5l-1.91.08-2.52-.08a28.038 28.038 0 0 1-3-.42 24.94 24.94 0 0 1-3.42-.91l-1.2-.45-.72-.29-.18-.07-.37-.12-.36-.11h-.14l-.42-.1h-.33l-.48.26-.37.2-.92.45-.47.22-.41.17-.9.35-2.08.66-2.27.48c-.9.15-1.8.25-2.7.31h-.56l-11.38.07a34.299 34.299 0 0 1-6.17-.26 35.759 35.759 0 0 1-3.84-.72l-1-.27-.51-.15-.48-.15-1-.33-1.18-.42-1.34-.54a29.436 29.436 0 0 1-2.88-1.43l-1.64-1-.84-.58-.44-.32-1.34-1.08-.5-.44-.9-.89-.45-.47-.87-.95-.82-.92-.5-.57-1.17-1.31-1.07-1.21-1.66-1.62-.68-.77-.56-.62-.38-.41-.11-.12-.93-.81-.82-.62-.85-.54-.91-.45-1-.34-.27-.06-.25-.06-.24-.05-.42-.07-.43-.05h-.94l-.49.1-.44.13-.68.3-.18.1-.07.05-.1.08-.1.09-.09.09-.15.17-.56.65-.52.64-.14.17-.23.3-.13.18-.36.54-1.18 1.72-1.36 1.93-1.31 1.81-1 1.35-.51.62-.43.51-.43.47-.4.41-.17.16-.11.11-.37.34-1.73 1.47-1.6 1.16-1.6 1-1.1.57-.47.22-1.39.58c-.827.317-1.672.584-2.53.8l-2.07.43h-.36a50.339 50.339 0 0 1-5.36.4h-2.21l-2.71-.13c-1.25-.1-2.51-.24-3.75-.44l-1.07-.17-.56-.11-.94-.19-1.7-.41-1.53-.47-.75-.29-.73-.31-.69-.35-.63-.35-.68-.44a16.193 16.193 0 0 1-1.87-1.45l-.79-.75-.71-.76-1.07-1.34a21.958 21.958 0 0 1-2.26 2.16l-1 .77-.94.66-1.82 1.09-1.75.85-1.62.63-1.44.46-.79.21-.54.14-.51.13c-1.166.29-2.348.51-3.54.66l-2.8.23h-1.1l-6.46-.43h-.52l-.51-.08a20.049 20.049 0 0 1-2.88-.7l-.89-.32-.51-.2-.5-.21-1.91-1-1.7-1.1-1.47-1.17-1.27-1.2-1.37-1.49-.85-1.1-.66-1-.55-.86-.56-.94-.38-.69-.37-.7-.82-1.83-.83-2.33-.78-2.83-.67-3.37-.21-1.41-.16-1.24-.1-1.17-.06-1.07-.05-1.45v-2.67l-.05-1.09v-.63l-.14-2.08-.24-2.94-.12-1.08-.11-.78-.13-.7-.13-.54-.12-.43-.14-.37-.18-.39-.06-.11-.19-.36-.15-.29-.31-.5-.32-.42-.34-.37-.38-.31-.29-.17-.27-.13-.35-.13-.47-.13-.3-.07-.69-.14-2.05-.31-2.08-.18h-4.07c-1.18.05-2.37.15-3.55.3l-2.69.42-.92.18-.49.11-.56.12-.55.13-1 .23-1.38.34-1.37.38-1 .32-1 .35-1 .4-1 .43-2 1.11-.31.19-.3.2-.21.14-.2.14-1.23.9-.83.67-.81.7-1 .89-.87.92-1 1.1-.94 1.14-.55.72-.46.65-.43.65-.42.66-1.16 2-.49.93-.8 1.52-.75 1.53-.27.53-.26.53-.64 1.32-.49 1-.48 1-.24.49-.23.49-.28.56-.27.55-1.29 2.48-.8 1.43-.81 1.41-.49.82-.5.8-1.21 1.83-.68.92-.74.93-.8.93-.86.91-1.89 1.72-.77.62-.9.66-1.79 1.17-2.14 1.19-1.35.64-.58.25-.66.26-1.83.64a28.79 28.79 0 0 1-3.31.83l-2.69.39a34.6 34.6 0 0 1-4.33.2 33.885 33.885 0 0 1-3.63-.24 32.406 32.406 0 0 1-3.23-.56l-1.34-.33-1.26-.38-1.33-.45-1.2-.49-1.1-.5-1-.51-.85-.51-.71-.46-.57-.41-1.66-1.39-1.43-1.44-1.11-1.4a21.4 21.4 0 0 1-1.65-2.56l-.55-1.06-.37-.81-.13-.29-.13-.32-.25-.63-.43-1.27a21.77 21.77 0 0 1-.6-2.52l-.3-2.42-.06-2.25.11-2 .17-1.62.4-2.87Z"/>
</svg>
