<svg xmlns="http://www.w3.org/2000/svg" fill="none" viewBox="0 0 983 276">
  <path fill="#087236" d="M43.62 266a22.37 22.37 0 0 1-2.403-.117c-6.744-.684-12.636-3.922-16.575-9.113-3.906-5.142-5.408-11.601-4.273-18.178 1.018-5.859 4.456-14.271 15.022-21.031 5.158-3.305 11.284-6.176 18.728-8.78 2.504-.868 4.19-1.602 5.325-2.153-.1-.084-.2-.167-.284-.251-2.47-2.086-5.742-4.84-8.396-8.729-5.224-7.662-5.892-16.609-1.836-24.537 1.536-3.021 3.689-5.625 6.41-7.795-4.54-3.956-7.244-9.347-7.562-15.273-.4-7.344 2.921-14.271 9.08-19.045 3.406-2.621 6.777-3.622 9.331-4.19.885-.2 1.703-.317 2.454-.384 1.218-9.898 5.775-19.462 13.587-28.476 3.439-3.956 7.01-7.31 10.55-10.482a30.703 30.703 0 0 1-1.32-1.686c-5.224-7.194-6.175-15.874-2.603-23.769 4.156-9.214 12.602-12.318 15.389-13.337 2.921-1.068 5.742-1.886 8.496-2.637-3.739-5.875-4.607-13.186-2.203-20.113 3.305-9.481 12.168-15.857 22.05-15.857l90.502-.05c4.323 0 10.215 0 16.541 2.32a27.999 27.999 0 0 1 3.89 1.752c3.471-2.587 7.644-4.006 11.967-4.006h8.63c12.803.05 34.034.1 42.631.1 2.286 0 4.523.385 6.676 1.152 2.287-.768 4.691-1.185 7.178-1.268h50.492c.868 0 1.736.066 2.604.183a21.883 21.883 0 0 1 6.91 2.204 23.61 23.61 0 0 1 7.161-2.02c4.256-.5 10.799-.384 13.403-.317l25.488.1h.685c1.686.067 5.742.45 10.015 2.387a21.048 21.048 0 0 1 5.792-2.153c.834-.184 1.519-.267 1.919-.318a18.28 18.28 0 0 1 2.17-.133h98.531c4.59.017 9.03 1.018 13.253 2.971 5.208-2.988 10.366-2.971 12.452-2.954H655.87c14.272.016 28.309 8.179 34.185 19.863 5.057 10.031 3.906 21.248-3.138 30.762-3.188 4.307-7.294 8.113-12.252 11.334 3.823 10.115-.985 19.546-2.671 22.834l-.3.601c-1.619 3.238-3.238 6.51-4.857 9.782l-.735 1.468c-4.022 8.113-8.262 16.759-12.051 25.505-.701 1.636-1.469 3.055-2.02 4.09l-.117.233c-.167.301-.333.618-.484.935-3.054 6.126-8.379 10.232-14.855 11.618-.851 12.018-10.449 20.38-16.358 25.538-.334.284-.651.567-.935.818 7.628.818 15.841 3.472 21.599 10.165 6.059 7.06 7.278 16.224 3.255 24.537-1.452 3.004-3.288 5.257-4.874 7.06a159.464 159.464 0 0 0-6.576 7.912c-4.424 5.692-8.179 11.384-11.167 16.942a85.69 85.69 0 0 0-1.135 2.237c-1.603 3.221-3.589 7.244-6.76 11.05-7.311 8.779-15.874 10.632-21.783 10.632-23.619-.117-47.07-.1-69.754-.083h-19.713c-6.226 0-12.018-2.487-16.141-6.81a26.232 26.232 0 0 1-3.372 2.587c-4.44 2.854-8.446 3.722-11.433 4.139-.835.117-1.703.184-2.538.184l-62.226-.1a17.985 17.985 0 0 1-12.352-4.908c-2.036-1.902-3.655-4.189-4.824-6.726a136.527 136.527 0 0 1-17.86 8.012c-6.81 2.487-13.403 3.705-20.247 3.605l-46.82.1c-6.093 0-11.918-2.47-16.241-6.743-4.273 4.406-9.464 6.71-15.206 6.71H165.002c-2.404 0-4.824-.017-7.228-.05h-.734c-1.419-.017-2.838-.034-4.256-.034l-.468.034c-.534.05-1.051.067-1.569.067h-6.977c-1.586 0-3.155-.201-4.69-.618-3.823-1.018-6.61-2.838-8.563-4.607-4.206 3.472-9.314 5.241-15.239 5.241l-69.722-.033h-.116c-.518.033-1.119.067-1.803.067l-.017.033Zm27.208-133.016c-.868 0-1.97.067-3.205.334-1.987.451-4.357 1.135-6.694 2.954-4.406 3.406-6.76 8.296-6.493 13.404.267 5.024 3.055 9.531 7.662 12.352.284.167.55.333.818.5a3.294 3.294 0 0 1 1.652 2.955 3.322 3.322 0 0 1-1.77 2.887c-3.671 1.953-6.275 4.507-7.961 7.795-2.904 5.692-2.404 12.152 1.402 17.727 2.153 3.138 5.008 5.558 7.077 7.311.668.567 1.403 1.185 1.62 1.402 1.602 1.669 2.336 2.988 2.436 4.357.017.333.017.584 0 .734a3.388 3.388 0 0 1-.767 2.003c-1.403 1.686-4.774 3.455-10.333 5.391-6.943 2.421-12.602 5.075-17.325 8.096-8.513 5.458-11.25 12.018-12.052 16.558-.818 4.74.25 9.347 3.005 13.003 2.804 3.705 7.044 6.009 11.934 6.51 1.319.133 2.437.066 3.138.033h.267s.117-.017.167-.017l69.688.034c5.375 0 9.714-1.87 13.019-5.575a3.246 3.246 0 0 1 2.638-1.102 3.283 3.283 0 0 1 2.52 1.352c.134.167.217.3.317.401 1.219 1.519 3.472 3.538 7.161 4.523.968.25 1.953.384 2.954.384h6.978c.333 0 .65 0 .984-.033l.701-.051h.251c1.469 0 2.954.017 4.44.034h.734c2.387.033 4.774.05 7.178.05h108.045c4.84 0 9.047-2.42 12.502-7.177.634-.868 1.686-1.319 2.737-1.386 1.085 0 2.087.534 2.704 1.436 3.072 4.406 8.246 7.16 13.504 7.16l46.853-.1c6.059.084 11.885-1.001 17.927-3.205a132.177 132.177 0 0 0 20.331-9.48 3.359 3.359 0 0 1 2.987-.167 3.307 3.307 0 0 1 1.92 2.286c.701 2.905 2.187 5.492 4.29 7.478a11.369 11.369 0 0 0 7.795 3.088l62.193.1c.551 0 1.101-.033 1.619-.117 2.454-.35 5.425-1.001 8.763-3.138 1.669-1.085 3.205-2.453 4.674-4.189.684-.801 1.702-1.252 2.754-1.169a3.337 3.337 0 0 1 2.587 1.519c2.871 4.44 7.645 6.994 13.103 6.994h19.713c22.701 0 46.152-.017 69.654.084 4.574 0 11.1-1.419 16.759-8.229 2.67-3.205 4.456-6.827 5.908-9.748.451-.902.868-1.753 1.236-2.437 3.154-5.876 7.127-11.885 11.767-17.86a165.376 165.376 0 0 1 6.844-8.246c1.302-1.469 2.771-3.272 3.872-5.558 2.838-5.842 1.97-12.302-2.303-17.276-6.293-7.311-16.959-8.446-24.804-8.096-1.402.067-2.721-.784-3.255-2.103a3.326 3.326 0 0 1 .918-3.755 141.99 141.99 0 0 0 5.141-4.641c.451-.434 1.219-1.085 2.02-1.786 5.842-5.091 14.672-12.786 14.104-23.218a3.326 3.326 0 0 1 3.088-3.505c5.542-.417 9.965-3.389 12.452-8.363.184-.367.368-.717.568-1.085l.117-.233c.534-1.002 1.185-2.22 1.786-3.606 3.855-8.896 8.129-17.626 12.201-25.822l.735-1.469c1.619-3.271 3.255-6.56 4.874-9.83l.317-.618c1.752-3.439 5.825-11.451 1.419-19.513-.868-1.586-.318-3.589 1.251-4.49 5.325-3.071 9.632-6.81 12.82-11.117 5.491-7.428 6.409-16.09 2.537-23.802-4.791-9.514-16.391-16.158-28.209-16.174h-84.443c-2.037 0-6.26-.034-10.182 2.77-1.035.735-2.504.902-3.622.301l-.284-.167c-3.706-1.92-7.578-2.904-11.534-2.904h-98.598c-.467-.017-.934 0-1.385.067-.3.033-.751.1-1.285.2a14.838 14.838 0 0 0-5.175 2.22c-1.051.7-2.403.768-3.488.15-3.622-2.02-7.378-2.387-8.83-2.437h-.434l-25.538-.117c-2.003-.067-8.58-.2-12.502.267a17.06 17.06 0 0 0-6.393 2.087 3.347 3.347 0 0 1-3.439-.1c-1.802-1.152-3.805-1.887-5.975-2.204a11.018 11.018 0 0 0-1.653-.117h-50.292c-2.186.084-4.273.501-6.209 1.269a3.349 3.349 0 0 1-2.571-.033 13.2 13.2 0 0 0-5.291-1.119c-8.613 0-29.845-.05-42.58-.083h-8.697c-3.488-.017-6.726 1.302-9.314 3.789-1.118 1.068-2.837 1.235-4.122.384a23.407 23.407 0 0 0-4.708-2.354c-5.207-1.92-10.415-1.903-14.221-1.903l-90.519.05c-7.044 0-13.37 4.574-15.74 11.367-2.17 6.243-.634 12.903 4.023 17.377a3.352 3.352 0 0 1 .934 3.221 3.308 3.308 0 0 1-2.336 2.404c-1.019.283-2.07.567-3.122.85-3.188.869-6.476 1.753-9.798 2.972-2.353.868-8.596 3.138-11.584 9.815-2.553 5.658-1.852 11.9 1.92 17.109a24.067 24.067 0 0 0 3.004 3.388 3.338 3.338 0 0 1 1.035 2.487c0 .935-.417 1.82-1.118 2.437l-.15.134c-4.157 3.688-8.43 7.494-12.352 12.018-7.228 8.345-11.3 17.109-12.118 26.072-.034.434-.067.868-.067 1.302 0 .901-.384 1.769-1.035 2.387a3.376 3.376 0 0 1-2.437.918h-.768l.034-.017Z"/>
  <path fill="#087236" d="M627.812 202.254c.734-1.519.801-3.121-.701-4.874-4.324-5.024-15.54-4.506-21.416-3.555-9.414 1.536-18.06 6.543-24.854 13.12-4.273 4.139-8.362 8.479-12.602 12.669-4.824 4.74-12.652 9.881-19.763 9.547-6.76-.317-8.513-7.895-5.091-12.769 1.553-2.203 3.689-3.906 5.809-5.591 11.684-9.281 23.018-18.979 34.285-28.777 7.394-6.426 15.323-12.218 22.45-18.962 3.739-3.538 13.12-10.365 12.569-16.341-.167-2.136-2.571-2.353-5.542-2.303-4.407.067-13.236 0-17.643 0l-52.028-.234c-1.269.1-2.487.184-3.405 1.152-1.686 1.786-1.452 4.206-.134 6.142 2.287 3.339 6.21 4.858 9.615 6.727 2.771 1.536 5.592 4.19 4.123 7.612-1.436 3.355-5.625 5.575-8.997 6.392-6.527 1.586-14.021 1.386-20.147 4.324-3.822 1.819-5.909 6.025-2.504 9.147 5.075 4.673 15.34 8.946 9.448 17.392-3.823 5.475-10.449 9.047-15.791 12.853-5.524 3.956-11.433 8.329-14.889 14.405-2.036 3.572-5.992 17.443 1.686 17.443 29.878 0 59.539-.051 89.434.083 3.522 0 5.959-1.736 7.929-4.123 2.47-2.971 4.123-7.044 5.875-10.282 3.689-6.843 8.046-13.32 12.819-19.462a174.269 174.269 0 0 1 7.311-8.797c.835-.951 1.653-1.936 2.154-2.971v.033ZM527.478 144.384a21878 21878 0 0 0-28.159.034s-13.904.05-20.848-.034c-6.142-.083-4.173 6.043-2.704 9.715 2.204 5.508 5.692 12.802.968 18.027-5.792 6.41-19.729 7.912-27.557 10.382-2.855.901-4.173 3.689-2.02 6.143 2.587 2.954 13.77 6.843 9.981 12.452-2.754 4.106-11.016 4.623-15.373 5.391-1.969.351-4.156.517-6.009 1.302-3.655 1.552-4.49 4.657-2.203 7.878 1.853 2.604 6.493 4.374 6.977 7.912.635 4.741-7.327 5.509-10.449 6.326-7.194 1.903-15.757 3.088-21.649 7.996-2.587 2.153-4.189 7.594-1.803 9.848l62.21.1c1.653-.234 2.804-.551 4.19-1.436 2.804-1.802 5.208-6.442 6.626-9.664 1.419-3.221 4.223-10.098 4.223-10.098s6.443-13.22 9.815-19.747c1.235-2.387 2.471-4.773 3.722-7.16 4.991-9.581 10.232-19.046 15.857-28.276 2.821-4.607 5.726-9.164 8.764-13.637 2.32-3.439 6.843-7.244 7.344-11.501.15-1.318-.668-1.969-1.886-1.969l-.017.016ZM415.861 210.867c7.528-8.045 14.221-16.825 20.481-25.855 4.239-6.126 8.446-12.302 12.235-18.728 3.855-6.527 7.678-12.97 8.479-20.614.017-.217.05-.451-.017-.651-.15-.484-.584-.568-1.001-.651l-42.581-.05c-1.268 0-1.252 2.136-.901 2.937 1.102 2.621 4.607 3.422 6.894 4.624 2.654 1.402 5.775 4.557 3.872 7.745-3.021 5.091-10.215 6.159-15.406 7.511-3.572.935-12.369 3.539-8.313 8.813 1.653 2.154 4.874 2.888 6.527 5.108 2.62 3.522-.635 5.942-4.023 7.161-3.789 1.368-7.645 2.654-11.534 3.722-5.057 1.385-10.082 2.754-14.305 6.076-3.605 2.837-4.49 5.975-2.837 10.248.651 1.686 1.485 3.289 2.12 4.975 1.519 4.039.734 7.661-2.371 10.649a23.236 23.236 0 0 1-4.306 3.238c-6.076 3.555-13.387 5.942-20.447 6.326-.718.033-1.453.05-2.154-.167-.1-.033-.166-.067-.25-.1-.25-.234-.184-.134-.05-.017-3.388-1.418.033-6.86 1.302-8.746 6.627-9.748 14.639-18.378 21.899-27.625 7.395-9.414 13.621-19.963 20.181-29.995 2.62-4.006 5.191-8.045 7.494-12.251 1.068-1.953 2.604-4.19 3.172-6.36.467-1.803-1.035-3.806-2.855-3.806-22.533 0-45.151.134-67.701 0-.551 0-1.152.635-1.335 1.135-.117.334-.101.685-.017 1.019.234.934.885 1.736 1.519 2.437.884.984 1.886 1.869 2.921 2.704 3.455 2.804 8.129 4.54 11.167 7.711 6.86 7.178-3.639 12.302-9.548 13.604-5.341 1.168-31.481 3.188-26.657 13.453 2.421 5.141 9.882 5.876 13.921 9.381 3.322 2.888 6.009 7.595 4.29 12.035-1.035 2.687-2.838 4.824-5.091 6.526-2.437 1.853-5.007 3.539-7.461 5.375-5.275 3.939-9.748 8.613-12.736 14.522-1.736 3.421-1.819 6.81-.718 10.148.651 1.97 2.654 3.455 4.724 3.455l46.954-.1c4.89.05 9.414-.851 13.954-2.52 19.746-7.211 36.254-19.162 50.492-34.402h.017Zm-69.721-45.935v.05c-.034.284 0 .05 0-.05Z"/>
  <path fill="#087236" d="M314.426 144.418H204.394c-1.752 0-3.538 1.051-4.123 2.503-1.802 4.574 9.064 7.712 11.701 9.398 7.979 5.108 4.774 13.704-2.704 18.327-2.453 1.519-5.024 2.821-7.511 4.29-2.003 1.202-4.073 2.354-5.892 3.806-3.389 2.737-3.839 5.775-1.753 9.581 4.641 8.429-2.62 12.902-10.399 14.789-2.854.701-5.758 1.302-8.629 1.953-4.607.734-9.164 2.019-13.571 3.338-2.921.885-6.109 2.454-6.943 5.658-1.886 7.111 7.294 6.744 7.611 12.018.067 1.252-.684 2.437-1.669 3.222-2.036 1.602-4.807 1.936-7.127 2.988-.084.033-.167.083-.251.116-1.736.418-3.455.835-5.107 1.519-3.222 1.336-5.642 3.923-6.076 7.462-.034.267.016.534.133.784.034.384.151.751.401 1.052.25.317.701.534 1.235.684h6.977c.718-.067 1.319-.117 1.719-.117 4.173 0 8.363.084 12.536.084h108.045c2.37 0 4.173-3.973 5.208-5.592a174.981 174.981 0 0 1 5.975-8.863c4.123-5.726 8.63-11.167 13.654-16.108 3.389-3.321 6.794-6.91 6.727-11.984-.05-4.924-4.807-7.195-9.281-7.078-12.084.351-24.253 6.594-34.518 12.419-6.426 3.655-12.736 7.511-19.162 11.167-5.809 3.321-11.851 6.142-18.528 7.244-4.056.667-8.095.684-11.851-1.402-2.971-1.636-4.223-4.257-3.255-7.512.635-2.136 1.519-4.256 2.688-6.159 4.773-7.728 11.3-13.57 19.646-17.192 9.931-4.307 19.813-5.041 29.561.668 2.687 1.569 4.072 1.301 6.509-1.052 4.123-3.973 7.595-8.479 10.132-13.604a14.892 14.892 0 0 0 1.469-5.408c.251-3.522-2.37-5.809-5.859-5.274-1.402.217-2.804.651-4.156 1.168-5.809 2.22-11.567 4.507-17.376 6.743a40.248 40.248 0 0 1-4.356 1.419c-2.905.785-5.826 1.135-8.797.15-3.438-1.135-5.375-4.089-4.323-7.711.534-1.82 1.652-3.389 2.888-4.824 12.051-13.938 37.422-16.141 52.128-5.191 2.003 1.502 4.273 2.704 6.543 3.789 9.23 4.39 20.147-1.719 22.984-11.117.918-3.038 1.653-12.135-3.321-12.135l.1-.016Z"/>
  <path fill="#087236" d="M191.308 157.053c-.818-2.453-2.32-5.358-4.323-7.761-2.304-2.788-5.241-4.908-8.563-4.891-35.486.067-70.956.05-106.443.05-.634 0-1.285-.1-1.886.033-.75.167-1.586.384-2.186.835-2.704 2.087-2.921 5.141.166 7.027 5.342 3.288 12.035 4.791 16.325 9.631 6.042 6.827-.918 10.917-6.877 13.22-3.639 1.402-10.55 2.354-12.519 6.176-2.887 5.625 5.108 10.165 8.213 13.387 3.104 3.205 5.24 6.91 5.541 11.434.785 11.617-9.28 16.374-18.694 19.662-5.108 1.786-10.366 4.006-14.94 6.944-3.254 2.086-6.276 4.957-6.96 8.913-.6 3.422 1.486 5.859 4.857 6.21.718.066 1.57-.034 2.304-.034l69.871.034c5.058.016 5.775-3.856 7.628-7.478 4.891-9.565 11.801-18.01 19.88-25.071 7.545-6.593 16.892-11.601 25.054-17.693 8.363-6.243 15.557-14.088 21.182-22.885 3.372-5.291 4.373-11.734 2.353-17.709l.017-.034Zm-31.43 11.267c-.468 3.823-2.821 7.795-5.842 10.733-5.108 4.991-11.334 8.93-16.826 13.487-6.109 5.074-12.001 10.415-17.509 16.141-2.454 2.537-4.607 5.641-7.562 7.628-2.069 1.402-6.242 2.353-7.911-.167-.468-.701-.601-1.586-.618-2.421-.384-14.288 14.605-25.521 24.62-33.283 3.005-2.32 7.695-5.024 8.88-8.896 1.002-3.305-1.252-5.141-3.856-6.644-3.021-1.736-6.509-3.221-2.937-6.993 1.201-1.269 2.988-1.82 4.723-2.07 6.26-.851 13.771-.367 19.43 2.62 4.473 2.354 5.858 6.026 5.391 9.848l.017.017ZM655.82 28.127h-84.209c-1.118 0-2.788-.067-3.772.634-1.436 1.018-.668 2.771-.167 4.173 1.285 3.656 4.723 6.043 6.192 9.615 1.953 4.79.15 10.782-3.388 14.338-5.008 5.04-12.219 7.077-18.762 9.58-4.673 1.787-11.116 2.037-13.286 7.445-1.903 4.757 2.854 8.28 6.076 10.9 9.163 7.478.55 17.977-5.909 23.552-2.337 2.02-4.824 3.839-7.078 5.942-4.072 3.806-5.875 8.53-5.307 14.138.267 2.787.417 3.004 3.271 3.004h28.576a3.328 3.328 0 0 0 2.921-1.736c.167-.317.334-.617.468-.934 5.224-11.117 9.965-23.719 18.244-33 6.342-7.127 19.028-16.474 28.576-9.764.634.45 1.202 1.035 1.686 1.669 2.053 2.687 1.552 6.543-1.336 8.296-1.151.7-2.503 1.118-3.772 1.602-1.836.684-3.756 1.218-5.525 2.036-1.152.535-2.27 1.369-3.138 2.304-1.502 1.636-1.235 4.24.534 5.592 1.202.918 2.621 1.569 3.973 2.303.968.534 2.019.968 2.937 1.586 1.97 1.335 2.12 2.787.334 4.39a22.773 22.773 0 0 1-3.939 2.854c-2.003 1.152-4.14 2.053-6.159 3.171-1.936 1.069-3.939 2.12-5.675 3.472-1.085.851-1.87 1.87-2.103 3.138-.301 1.586.984 3.021 2.587 3.021 14.321 0 28.643-.033 42.964.051 1.819 0 2.888-.601 3.656-2.12.734-1.453 1.552-2.871 2.203-4.357 3.856-8.913 8.129-17.66 12.435-26.356 1.87-3.772 3.739-7.561 5.625-11.334 1.369-2.754 3.622-6.576 1.886-9.647-3.688-6.527-19.345-1.787-24.687-.635-4.139.885-9.48 1.553-13.453-.367-1.736-.851-2.854-2.437-2.137-4.423.568-1.553 2.254-2.42 3.789-2.738 15.64-3.255 41.095-5.608 51.444-19.612 8.63-11.668-5.575-21.783-16.525-21.8l-.05.017Zm-31.597 25.789c-11.183 4.056-21.098 5.057-22.617.85-1.519-4.205 6.71-9.797 17.893-13.853 11.184-4.056 21.015-5.258 22.617-.851 1.603 4.39-6.71 9.798-17.893 13.854Z"/>
  <path fill="#087236" d="M552.031 29.73c-1.902-.985-3.989-1.603-6.326-1.603 0 0-29.127 0-54.515-.017h-44.016s-.166 0-.25.034c-2.12.467-3.238 2.604-2.554 4.623 1.352 3.956 5.342 5.826 9.064 6.994 3.839 1.219 8.346 1.986 9.648 6.476.834 2.871-.601 6.01-2.788 8.046-8.012 7.428-23.001 11.584-33.183 14.906-.868.283-1.753.584-2.57.95-3.973 1.804-4.958 4.307-3.122 7.996.651 1.302 1.469 2.537 2.087 3.84 1.552 3.371.467 7.31-2.604 9.664a27.022 27.022 0 0 1-5.392 3.238c-4.506 2.003-9.147 3.756-13.703 5.658-1.436.601-2.855 1.269-4.107 2.137-1.769 1.235-2.336 2.821-1.786 4.357.852 2.286 1.72 5.074 1.152 7.577-.951 4.14-5.258 5.041-8.863 5.709-4.59.851-9.147 1.953-11.384 6.527-1.168 2.386-.133 4.439 2.521 4.59H496.899c2.02 0 3.906-.985 4.874-2.604.184-.301.35-.618.517-.935 2.07-4.056 4.741-7.762 7.729-11.283 3.321-3.906 6.76-7.745 10.165-11.601 2.103-2.37 4.34-4.657 6.293-7.127 1.318-1.686 1.752-3.906.817-5.793-1.251-2.537-4.339-3.722-7.277-4.34-4.373-.917-8.663-.25-12.919.852-6.16 1.619-11.601 4.557-16.942 7.678-5.192 3.021-10.266 6.209-15.474 9.181-6.342 3.622-13.019 6.609-20.464 7.778-3.772.601-7.594.651-11.25-.735-3.972-1.502-5.658-4.173-4.523-7.978.651-2.187 1.669-4.407 3.071-6.26 5.291-7.027 12.101-12.585 20.698-15.94 9.731-3.806 19.479-4.307 29.06.634 8.246 4.257 13.804-8.212 16.241-13.253a52.5 52.5 0 0 0 2.287-5.508c.601-1.736 0-3.606-1.853-4.424-.952-.417-2.037-.517-3.088-.484-9.581.267-17.359 7.044-27.107 6.827-5.192-.117-7.578-4.073-5.175-8.262 4.674-8.112 15.907-14.756 25.972-14.789 9.064-.033 16.976 4.04 24.17 8.763 6.026 3.956 13.57 6.493 20.831 5.291 10.399-1.719 20.598-21.081 8.479-27.39ZM398.401 86.648c12.352-14.856 22.551-31.347 31.831-48.272 1.269-2.32 3.055-5.008 1.519-7.662-1.302-2.237-5.207-2.403-5.207-2.403l-25.739-.117s-7.461-.217-10.933.183c-2.22.267-4.39 1.937-4.974 4.574-.584 2.704 1.185 4.09 3.088 5.391 1.702 1.152 3.505 2.17 5.124 3.422 4.173 3.221 3.923 6.894-.567 9.631-.518.317-1.019.634-1.586.851-4.039 1.486-19.897 3.522-18.578 10.3.551 2.787 4.807 4.473 6.527 6.476 5.057 5.825-10.282 9.363-13.454 10.031-4.957 1.052-9.798 2.487-14.021 5.442-4.24 2.97-5.124 6.159-3.171 10.916.584 1.419 1.218 2.838 1.802 4.256 1.352 3.272.668 6.21-1.619 8.797a17.52 17.52 0 0 1-2.854 2.587c-5.709 4.106-12.152 5.792-19.129 5.458-2.487-.117-4.924-.718-7.01-2.22-2.387-1.719-3.338-4.072-2.721-6.96.501-2.387 1.519-4.607 3.172-6.376 2.336-2.487 4.707-5.008 7.394-7.094 13.136-10.266 24.286-22.417 34.318-35.654 4.473-5.892 8.029-12.352 11.033-19.095.851-1.92 1.336-4.073 1.553-6.16.233-2.303-.885-4.473-3.172-4.806h-49.925c-4.339.133-6.393 3.522-5.625 7.694.518 2.788 2.754 4.724 4.19 7.028 1.319 2.103 2.437 4.34 3.054 6.743 1.286 4.89 0 9.631-3.972 12.87-6.376 5.19-15.19 3.104-21.799 7.61-2.972 2.02-2.104 6.46 0 8.714 1.652 1.736 3.572 3.238 5.09 5.074 1.236 1.486 2.454 3.172 3.005 4.974 1.269 4.09-.317 7.678-3.188 10.516-2.237 2.203-4.891 4.006-7.445 5.859-3.255 2.353-6.743 4.423-9.914 6.877-3.673 2.854-6.26 6.626-7.311 11.2-.384 1.686-.351 3.588-.017 5.308.467 2.487 1.152 2.821 3.722 2.821h54.014c3.99-.034 8.112-2.287 11.668-3.89a121.354 121.354 0 0 0 10.883-5.575c15.89-9.147 29.26-21.415 40.844-35.352l.1.033ZM306.731 28.26c-11.25 0-44.016-.1-51.244-.1-2.119 0-3.071 3.422-3.204 5.075-.134 1.652.35 3.171 1.252 4.54 1.936 2.938 5.141 4.807 7.811 6.96 2.504 2.02 5.258 4.724 3.973 8.23-1.185 3.254-7.461 4.49-10.332 5.357-4.29 1.286-8.647 2.37-12.886 3.806-3.589 1.219-12.002 2.821-11.434 8.046.384 3.521 4.557 5.14 7.244 6.61 2.471 1.351 9.548 4.723 9.281 8.178-.267 3.339-5.776 4.207-8.263 4.74-3.438.752-11.233 2.087-12.719 5.976-.567 1.486.251 3.189 1.386 4.307 2.821 2.754 10.015 5.441 8.129 10.532-.885 2.371-3.422 3.656-5.308 5.108-3.789 2.921-11.801 9.714-8.897 15.306.334.2.601.351.935.534h26.623c5.942 0 5.992-.167 8.696-5.541 5.208-10.416 10.282-20.898 15.907-31.08 8.78-15.89 17.977-31.53 26.957-47.321 2.538-4.457 4.958-8.997 7.295-13.57.3-.585.551-1.219.768-1.887.55-1.652-.218-3.789-1.953-3.789l-.017-.016ZM233.354 29.296c-3.255-1.202-6.81-1.202-10.282-1.202l-24.286.033-66.233.034c-4.723 0-7.261 6.41-3.421 9.464 3.588 2.854 9.764 1.903 12.401 6.042 2.003 3.155.134 7.411-2.47 10.082-7.311 7.478-18.795 8.329-28.609 11.918-2.053.75-4.223 1.802-5.125 3.789-2.437 5.408 4.49 8.996 7.729 11.918 1.168 1.051 2.22 2.27 2.77 3.739 1.402 3.672-1.352 7.11-3.889 9.48-5.408 5.025-11.217 9.648-16.04 15.223-4.824 5.575-8.714 12.302-9.381 19.646-.034.451-.067.935.183 1.319.384.584 1.186.651 1.887.651 2.403 0 4.79.033 7.194.05h19.062c1.084-.117 2.153-.351 3.121-.851 1.886-.969 3.171-2.788 4.34-4.557 8.396-12.719 14.905-27.158 26.606-36.922 6.059-5.041 13.871-8.697 21.666-7.511 2.838.434 5.992 2.02 6.326 4.857.317 2.737-2.27 4.99-4.891 5.842-2.62.851-5.474.818-8.028 1.836-2.554 1.018-4.857 3.706-4.006 6.326 1.202 3.722 7.327 3.939 8.429 7.695.835 2.821-1.836 5.425-4.457 6.76-5.742 2.921-12.568 3.539-17.826 7.244-1.436 1.019-2.771 2.32-3.322 3.99-.551 1.669-.083 3.772 1.419 4.69.985.601 2.203.618 3.355.618 13.387 0 26.79-.017 40.177-.034 1.118 0 2.303-.017 3.255-.584.901-.551 1.468-1.502 2.003-2.42 7.561-13.203 15.139-26.407 22.7-39.61 1.402-2.453 2.871-5.124 2.587-7.945-.317-3.288-2.887-5.675-6.009-7.044a16.141 16.141 0 0 0-4.606-1.252c-6.527-.8-13.07.952-19.647 1.069-2.303.05-5.191-.585-5.658-2.821-.885-4.173 5.224-5.191 8.112-5.575 7.294-1.002 14.355-2.187 21.499-4.14 4.624-1.268 9.18-2.754 13.604-4.59 4.239-1.753 8.446-3.89 11.5-7.31 5.642-6.294 4.924-16.726-3.689-19.914l-.05-.033Zm-47.237 24.62c-11.183 4.056-21.098 5.057-22.617.851-1.519-4.206 6.71-9.798 17.893-13.854 11.184-4.056 21.015-5.258 22.617-.851 1.603 4.39-6.71 9.798-17.893 13.854ZM896.875 137.765c-.825-1.33-1.717-2.626-2.593-3.939-.151.017-.303.05-.454.067-.387.623-.876 1.212-1.162 1.886-.892 2.155-1.767 4.309-2.525 6.498-1.902 5.421-5.067 9.899-9.596 13.417-.774.606-1.717 1.01-2.828 1.65-.151-4.63-.219-8.872 1.061-12.98 2.878-9.242 4.596-18.669 4.68-28.366 0-.572.084-1.262-.202-1.666-.539-.758-1.212-1.616-2.02-1.953-.724-.303-2.206 1.38-2.307 2.323-.185 1.667-.32 3.35-.488 5.017-.387 3.956-.69 7.929-2.087 11.683-.236.656-.674 1.279-1.162 1.784-.64.657-1.397.606-1.97-.134a12.838 12.838 0 0 1-1.229-1.92c-2.912-5.589-5.622-11.279-8.72-16.75-3.602-6.346-8.333-11.784-14.41-15.942-1.717-1.178-3.62-1.987-5.724-2.155-2.02-.151-4.04-.32-6.06-.27-7.071.152-13.485 2.459-19.293 6.415-6.397 4.36-11.531 9.831-15.588 16.531-3.637 5.993-8.098 11.481-12.205 17.188-.101.135-.253.253-.556.522-.32-2.794-.606-5.387-.926-7.98-.32-2.424-.623-4.848-1.06-7.255-.32-1.734-1.903-2.239-3.266-2.896-.202-.101-.623.068-.825.253-1.145 1.01-2.121 2.121-1.65 3.838.152.556.185 1.128.32 1.683 2.29 8.788 2.778 17.626.724 26.532-.673 2.962-1.364 5.909-2.104 9.09-.354-.488-.623-.774-.792-1.094-1.33-2.609-3.013-5.118-3.905-7.879-2.071-6.346-3.771-12.794-5.572-19.225-.842-3.013-.859-3.08-3.502-1.397-.354.236-.724.859-.69 1.246.421 4.444.673 8.922 1.481 13.316 2.02 10.976 6.818 20.605 14.798 28.518 2.626 2.592 5.387 5.067 9.141 5.841 2.845.589 5.017 2.037 6.936 4.125 2.626 2.862 5.622 5.269 9.208 6.885 5.101 2.306 10.488 3.199 16.027 3.384 7.642.269 15.167-.808 22.625-2.34 6.212-1.28 11.565-4.125 15.336-9.428 1.078-1.515 2.475-2.542 4.142-3.316 1.582-.741 3.215-1.448 4.68-2.391 13.821-8.905 22.591-21.396 26.329-37.406.067-.32.084-.74-.068-.993l.051-.017Zm-38.938 38.669c-2.559 3.922-6.212 6.33-10.774 7.104-7.256 1.246-14.529 2.458-21.835 3.333-6.599.792-12.962-.252-18.669-3.939-3.131-2.02-5.051-4.932-5.875-8.552-.118-.538-.068-1.111-.101-1.936.673.202 1.094.253 1.431.455 6.868 4.259 14.494 5.926 22.44 6.431 7.003.437 13.737-.96 20.386-2.98 4.462-1.347 8.94-2.593 13.401-3.889.219-.067.454-.067.825-.135-.034 1.532-.455 2.896-1.246 4.091l.017.017Zm-48.45-23.08c-.269-2.424-.724-4.815-1.145-7.475.371.303.573.438.724.607 3.283 3.484 5.707 7.44 6.818 12.137.977 4.074 2.037 8.148 2.913 12.239.269 1.229.033 2.559.033 4.175-3.081-.892-5.892-1.734-8.703-2.542-.892-.253-.876-.892-.758-1.633.371-2.407.993-4.832.977-7.239-.034-3.417-.489-6.835-.859-10.235v-.034Zm15.589 7.289c-1.078.674-2.239.691-3.418.404-1.161-.286-1.464-1.01-.724-1.919a12.042 12.042 0 0 1 2.475-2.323c2.054-1.414 4.31-2.39 7.138-2.458-1.532 2.576-3.064 4.815-5.471 6.296Zm7.289 10.438c.741.084 1.01.437.842 1.161a9.452 9.452 0 0 0-.135.674c-.202 1.582-1.128 2.373-2.778 2.373h-7.356c-.068-3.434 1.464-4.966 4.663-4.764 1.599.101 3.182.37 4.764.556Zm2.003-12.003c-1.127-.017-1.33-.303-.892-1.313.404-.943.842-1.869 1.33-2.93 1.515.741 2.963 1.465 4.545 2.239-1.532 1.212-3.08 2.037-4.966 2.004h-.017Zm20.488-15.623c-.741 3.283-1.616 6.229-2.037 9.242-.741 5.32-1.263 10.69-1.784 16.044-.118 1.229-.64 1.835-1.785 2.171-3.619 1.061-7.239 2.172-10.858 3.266-.253.068-.522.084-1.01.169 3.35-11.684 7.693-22.609 17.457-30.875l.017-.017Zm16.212 14.242c-.051 1.835-.489 3.704-1.044 5.471-.825 2.61-2.812 4.041-5.539 3.957-2.222-.068-4.478-.421-6.666-.926-2.205-.522-3.148-2.071-2.795-4.31 1.095-6.902 2.475-13.737 5.269-20.218.489-1.128.708-2.374 1.044-3.569-3.165-.539-5.825-.118-8.316 1.734-4.007 2.98-6.919 6.868-9.68 10.925-.64.943-1.262 1.903-1.969 2.947-7.643-4.697-15.017-4.798-22.121 1.329-.236-.42-.454-.74-.606-1.111-1.448-3.451-3.603-6.447-6.027-9.275-1.498-1.734-2.963-3.502-4.444-5.253-.606-.707-3.131-1.414-3.872-.943-.32.202-.505.91-.471 1.364.319 3.266.673 6.532 1.128 9.781.639 4.646 1.683 9.242 1.464 13.989-.067 1.566-.555 2.627-2.07 3.317-2.458 1.111-4.916 2.087-7.677 2.037-2.761-.051-4.613-1.431-5.421-4.057-.858-2.795-.387-5.606-.134-8.418.454-5.151 1.868-10.05 4.074-14.713 3.03-6.38 5.807-12.878 9.208-19.04 3.081-5.572 6.869-10.774 11.818-14.932 5.707-4.781 12.289-7.525 19.797-7.66 6.313-.117 11.717 2.239 16.195 6.65 6.565 6.448 10.858 14.326 14.023 22.861 3.35 9.04 5.034 18.4 4.798 28.046l.034.017Z"/>
  <path fill="#087236" d="M865.63 191.737c-.202.117-.337.303-.522.454-2.811 2.441-5.858 4.545-9.242 6.094-11.565 5.286-23.669 6.667-36.16 4.714-6.886-1.078-13.434-3.199-19.276-7.172-.976-.656-2.037-1.195-3.097-1.717-.303-.151-.792-.202-1.061-.05-1.01.589-1.97 1.262-3.114 2.02.707.825 1.212 1.616 1.902 2.188 5.32 4.327 11.094 7.828 17.777 9.68 7.239 2.004 14.629 2.222 22.053 1.599 11.094-.925 21.128-4.629 29.898-11.565a35.517 35.517 0 0 0 3.637-3.299c1.077-1.128.959-2.273-.455-3.586-.943-.876-1.616.252-2.34.656v-.016ZM802.433 91.572c1.314-.236 2.643-.489 3.856-1.01 5.892-2.509 11.363-5.758 16.632-9.377 2.037-1.398 4.158-2.728 6.33-3.89 2.626-1.413 5.42-1.598 8.181-.386 1.701.74 3.468 1.515 4.95 2.609 5.067 3.704 10.69 6.364 16.447 8.737 1.599.657 3.35.977 5.05 1.38.371.085.994-.084 1.196-.353.808-1.094 1.498-2.273 2.222-3.434-1.145-1.313-2.61-1.684-4.041-1.987-3.787-.841-7.39-2.205-10.807-4.006-4.125-2.172-8.165-4.495-12.289-6.65-6.364-3.333-12.408-2.693-18.131 1.65-2.004 1.532-4.04 3.03-6.162 4.377-4.915 3.131-9.629 6.633-15.167 8.703-.337.118-.607.421-.943.674.555.892.976 1.683 1.515 2.373.252.32.791.657 1.145.59h.016Z"/>
  <path fill="#087236" d="M843.998 86.841c-2.727-1.414-5.606-2.138-8.687-2.155-5.724-.05-10.993 1.616-15.959 4.293-3.569 1.92-6.751 4.326-9.225 7.576-.539.69-.892 1.515-1.414 2.424.959.252 1.666.42 2.357.606.808.219 1.481.084 2.02-.64 1.952-2.643 4.73-4.209 7.642-5.488 7.054-3.114 14.411-3.468 21.885-1.936 5.623 1.162 10.505 3.653 14.023 8.383.152.203.388.337.573.489.909-.623 1.751-1.195 2.794-1.936-.774-.892-1.397-1.768-2.171-2.475-4.125-3.77-8.855-6.616-13.788-9.158l-.05.017ZM794.387 107.884c-1.128 2.559-2.037 5.185-2.223 8.316.085.387.169 1.078.388 1.717.303.859.925 1.414 1.868 1.465 1.01.067 1.953-.152 2.458-1.111a533.115 533.115 0 0 0 4.949-9.781c.135-.286.051-.825-.134-1.111a46.954 46.954 0 0 0-2.256-3.165c-1.414-1.818-2.391-3.771-2.694-6.094a39.16 39.16 0 0 0-.976-4.815c-.135-.522-.589-1.229-1.027-1.33-1.347-.336-3.03 1.145-3.047 2.526-.034 3.754 1.246 7.188 2.677 10.572.421.993.454 1.835 0 2.828l.017-.017ZM863.627 104.433c-.589 1.128-.69 2.273.118 3.434.555.808.858 1.802 1.397 2.626 1.01 1.583 2.02 3.148 3.165 4.63.993 1.279 2.222 1.549 3.333 1.01 1.061-.522 1.751-1.835 1.38-3.215-.488-1.785-1.077-3.586-1.919-5.219-.808-1.566-1.077-3.098-.538-4.731.521-1.548 1.228-3.047 1.75-4.595.623-1.802 1.162-3.62 1.684-5.438.252-.926.017-1.616-1.128-1.784-.707-.101-1.364-.438-2.172-.724-.219.471-.555.926-.639 1.43-.405 2.459-1.768 4.445-3.014 6.499a133.635 133.635 0 0 0-3.417 6.077ZM829.806 115.796c-.219-1.767-1.212-2.761-2.996-2.996-.791-.101-1.6-.202-2.391-.219-2.744-.034-5.235.555-6.919 3.013-1.229 1.802-1.717 3.855-1.683 5.96.05 2.474 3.956 4.983 6.161 4.057 1.431-.606 2.812-1.364 4.175-2.121 2.576-1.414 3.451-3.805 3.704-6.566-.017-.387 0-.757-.051-1.144v.016Zm-4.158 2.256c-.606 1.448-1.549 2.626-2.929 3.418-.842.488-1.768.639-2.559-.051-.825-.724-.505-1.599-.084-2.407.875-1.701 2.037-3.047 3.586-3.131 2.188.05 2.609.656 1.986 2.188v-.017ZM847.786 113.961c-1.532-2.643-4.883-2.996-6.97-.724-.774.842-1.38 1.819-2.138 2.694-2.441 2.828-1.33 6.397.976 8.333 1.448 1.212 3.098 1.667 4.983 1.683 1.448 0 2.105-1.06 2.98-1.868.286-.253.522-.573.825-.808 1.246-.96 1.599-2.273 1.498-3.721.186-2.222-1.161-3.855-2.154-5.589Zm-4.074 8.03c-1.196 0-2.357-1.33-2.34-2.66.016-1.346 1.414-3.164 2.407-3.148 1.044 0 2.34 1.785 2.323 3.182 0 1.347-1.178 2.643-2.374 2.626h-.016ZM834.436 130.914c-.135-.505-.556-1.381-.707-1.364-.859.152-2.105.32-2.424.892a13.044 13.044 0 0 0-1.431 7.963c.067.471.757 1.279.993 1.229.943-.219 2.34.404 2.71-1.078.472-1.919.842-3.855 1.246-5.791-.067-.016-.118-.033-.185-.05-.068-.606-.051-1.229-.202-1.818v.017Z"/>
  <path fill="#087236" d="M918.053 194.902c-.775-2.239-1.633-4.445-2.273-6.734-.875-3.165-1.431-6.397-2.424-9.528-.219-.657-.286-1.465-.135-2.138.32-1.297.657-2.593.977-3.889.589-3.502 1.144-7.02 1.717-10.522.623-3.804 1.431-7.592 1.767-11.43 2.121-23.636-7.306-52.726-26.531-67.557-10.808-8.35-23.669-13.855-35.824-19.915-3.585-1.785-7.205-3.536-11.161-4.377-5.589-1.195-11.228-1.078-16.885-.573-4.394.388-8.737 1.078-12.76 2.98-12.071 5.69-23.215 12.693-32.71 22.238-5.387 5.421-10.942 10.657-16.902 15.471-5.218 4.226-9.393 9.428-12.423 15.421-1.936 3.838-3.603 7.828-5.32 11.784-2.357 5.471-2.761 11.38-3.603 17.188-.219 1.498-.05 3.047 0 4.562.388 10.067.808 20.151 1.162 30.218.034 1.161.05 2.323 0 3.485-.539 1.296-.892 2.676-1.162 4.124a142.985 142.985 0 0 1-1.885 8.889c-.775 3.148-1.482 6.313-2.273 9.461-.757 3.013-1.599 6.009-2.239 9.057-2.188 10.555.337 21.463 7.239 29.746 4.865 5.842 10.488 11.144 16.801 15.42 3.182 2.155 6.565 4.041 10.117 5.488 2.845 1.162 7.273 3.401 10.051 1.213 1.262-.994 2.02-2.273 2.255-3.856.606-3.754.068-7.474-.606-11.161-1.212-6.649-3.602-12.929-6.01-19.191-2.087-5.404-4.511-10.606-8.45-14.983-.522-.572-.876-1.246-1.112-1.953.909-1.077 1.684-2.272 2.425-3.484 1.969.673 4.343 2.205 4.983 2.659 4.882 3.485 9.427 7.408 13.871 11.414 4.108 3.704 8.417 6.515 13.03 9.512.673.437 1.414.943 1.044 1.767-.219.472-.993.893-1.583.977-3.771.623-7.541 1.161-11.312 1.734-.32.05-.707.134-.909.353-1.701 1.768-1.785 3.283-.337 5.303.353.488.757.977 1.178 1.397 3.098 3.031 6.684 5.337 10.741 6.852 5.572 2.087 11.329 3.401 17.238 4.007 11.178 1.144 22.02-.169 32.457-4.461 4.68-1.92 8.905-4.394 11.65-8.855.858-1.398 1.767-2.778 2.508-4.243.269-.538.252-1.38.034-1.953-.64-1.616-2.542-2.558-4.26-2.508-4.006.135-8.013.152-12.019.286-1.667.051-2.307-.976-2.93-2.306.354-.168.64-.337.96-.455 4.108-1.531 7.912-3.602 11.532-6.06 3.131-2.121 6.195-4.343 9.343-6.431 6.043-3.989 12.121-7.929 18.316-11.986.488 1.886.909 3.737 1.464 5.555.354 1.145.202 2.138-.32 3.182a469.624 469.624 0 0 0-9.073 19.091 550.235 550.235 0 0 0-4.293 9.814c-1.919 4.528-4.411 9.091-5.539 13.888-.303 1.263-.471 2.61-.067 3.839 2.087 6.245 12.71 2.02 16.228-.152 8.098-5 15.858-10.706 22.121-17.912 6.38-7.339 10.69-16.194 13.838-25.336.505-1.464.741-2.996.909-4.528.623-6.145-.303-12.256-2.121-18.131a33.1 33.1 0 0 0-.606-1.835l.101.068Zm-148.497 4.444c-1.061 1.246-2.626 1.313-3.67.05-.69-.841-1.246-1.835-1.684-2.828-1.431-3.249-3.434-6.111-5.69-8.821-.168-.202-.387-.337-.606-.522-.656.825-1.279 1.583-1.852 2.391-.168.235-.235.673-.151.959.488 1.801.96 3.603 1.599 5.354.842 2.289 1.987 4.477 2.727 6.784.556 1.717.792 3.552.96 5.37.152 1.7-.657 2.391-2.357 2.222-1.549-.151-3.097-.505-4.646-.656-1.33-.135-2.66-.135-3.99-.101-.269 0-.724.336-.791.589-.236 1.145-.37 2.323-.539 3.468 2.104.959 4.125 1.936 6.178 2.828 5.825 2.525 9.748 6.953 12.542 12.508 2.391 4.747 3.939 9.831 5.252 14.966.505 1.986 5.589 15.942 2.744 16.481-2.003.387-5.791-2.98-7.356-4.074a71.318 71.318 0 0 1-2.172-1.583c-4.646-3.451-9.141-7.104-13.282-11.161-3.519-3.468-7.609-7.171-9.343-11.902-3.216-8.821-1.852-17.474 0-26.363 2.188-10.555 4.781-21.043 9.427-30.807.623-1.296 1.683-2.441 2.727-3.468 1.061-1.043 1.987-.909 2.896.287.555.723.976 1.548 1.346 2.373 1.633 3.737 3.182 7.508 4.849 11.246.522 1.178 1.33 2.205 1.953 3.333 1.262 2.256 2.592 4.478 3.72 6.801.724 1.498.269 3.013-.791 4.259v.017Zm79.98 41.143c.337.034.691.051 1.027.101 1.482.236 1.802.623 1.751 2.088-.135 4.141-6.852 5.808-9.949 6.616-5.724 1.498-11.582 1.683-17.474 1.683-10.135 0-17.71-.269-25-4.966-.521-.337-1.111-.825-1.043-1.448.05-.538.572-.909 1.06-1.161 4.899-2.61 9.731-2.828 13.906-7.02.387-.387 1.178-.724 1.683-.623 7.071 1.515 14.057.892 20.976-.909 1.077-.286 1.717-.051 2.676.724 3.031 2.458 6.381 4.461 10.404 4.915h-.017Zm28.922-47.725c-.892.707-1.279 3.131-.556 3.989.606.691 1.482.724 2.307.236.454-.269.892-.522 1.296-.757 1.094 2.036.118 3.77-.606 5.521-.118.286-.471.488-.758.674-7.339 4.461-14.561 9.107-22.036 13.333-7.676 4.326-16.06 6.38-24.881 6.649-4.546.135-9.091.387-13.636.354-6.919-.034-13.804-.573-20.488-2.66-5.926-1.869-11.279-4.865-16.312-8.417-2.711-1.92-5.371-3.923-8.047-5.892-.993-.724-1.246-2.172-.606-3.233.202-.32.454-.623.623-.959.269-.573.656-.775 1.279-.539.859.32 1.279-.084 1.633-.875.572-1.313.471-2.256-.522-3.468-1.38-1.684-2.475-3.637-3.485-5.589-3.754-7.222-7.44-14.495-9.477-22.407-1.28-4.966-2.037-10.084-2.93-15.151-.437-2.508-.69-5.05-1.01-7.592-.118-.876-2.239-2.542-3.03-2.223-.454.186-.943.825-1.027 1.33-.522 3.233-1.01 6.482-1.363 9.748-.489 4.545-1.145 9.023-3.384 13.097-.674 1.212-1.532 2.323-2.306 3.485-.135-.034-.253-.085-.388-.118-.101-1.28-.32-2.542-.303-3.822.034-7.979-.084-15.976.236-23.955.269-6.801 1.313-13.569 4.091-19.865 2.054-4.68 5.252-8.686 8.484-12.609 5.724-6.969 11.801-13.585 18.889-19.292 4.781-3.855 9.141-8.232 13.686-12.374 8.535-7.794 18.501-12.558 29.982-14.157 7.172-1.01 14.343-1.179 21.38.757 2.66.74 5.269 1.818 7.778 2.997 7.289 3.4 14.629 6.733 21.767 10.454 18.602 9.68 28.787 25.403 32.456 45.773 1.112 6.161 2.627 12.239 3.973 18.349.775 3.452.59 6.751-1.481 9.764-.168.236-.37.455-.758.943-.151-2.121-.303-3.956-.421-5.791-.151-2.289-.875-4.293-2.979-5.471-1.01-.572-2.138-.943-3.468-1.515-.253 1.246-.589 2.272-.64 3.299-.202 4.041-.202 8.098-.505 12.138-.168 2.256-.572 4.562-1.296 6.717-1.279 3.788-2.879 7.474-4.36 11.195-.236.589-.606 1.145-.977 1.667-4.511 6.178-9.814 11.582-15.824 16.312v-.05Zm34.73 29.999c-5.573 15.336-18.148 30.184-35.976 37.103-.791.168-1.734.252-2.138-.623-.252-.522-.168-1.263.051-2.054.336-1.212 1.027-2.525 1.38-3.232.859-1.784 1.936-3.451 2.677-5.286 1.448-3.619 3.266-7.104 5.151-10.421 3.081-5.42 6.01-10.892 8.401-16.649.538-1.279 1.346-2.239 2.542-2.98 2.693-1.683 5.353-3.4 7.962-5.185.505-.353 1.078-1.144 1.027-1.666-.101-.791-.926-1.145-1.784-1.061-1.902.169-3.788.354-5.69.539-.589.05-1.044.185-1.583.017.185-4.983 1.33-10.135 4.293-14.192 1.178-1.599 2.155-3.35 3.333-4.932.758-1.01.909-1.936.32-3.03-.202-.371-.32-.775-.539-1.314-.555.405-1.111.724-1.582 1.128a5786.373 5786.373 0 0 0-10.219 8.687c-.673.572-1.296 1.263-2.272.505-.96-.741-1.195-1.801-.707-2.946 1.599-3.788 4.175-6.751 6.885-9.764 3.131-3.502 5.421-7.441 7.508-11.633.354-.707.707-1.431 1.313-1.919 3.418-2.811 4.192 6.734 4.596 8.468 3.047 12.676 10.623 27.137 5.051 42.473v-.033Z"/>
  <path fill="#087236" d="M776.475 260.909c-.017.034-.034.085-.051.118 0-.05.034-.084.051-.118ZM830.177 18.005c-.287-2.492-.994-5.202-2.879-6.734a5.302 5.302 0 0 0-.707-.488c-3.754-2.172-7.34.572-9.192 3.838-2.458 4.327-1.043 8.737-1.043 13.468 0 7.626-5.354 20.605-14.175 21.649-.673.084-1.381.067-1.987-.22-4.326-2.154 2.728-12.726 3.923-15.2 2.34-4.815 3.316-9.832 3.552-14.966-.488-2.728-.774-7.626-4.63-6.6-4.848 1.313-9.999 3.89-13.619 7.39-2.862 2.779-1.414 5.792-1.01 9.243.404 3.518.606 6.986.27 10.538-1.027 10.825-6.078 21.178-14.158 28.501-2.391 2.155-6.599 5.454-10.084 4.158-3.081-1.128-3.552-5.117-2.289-7.794 1.885-3.973 6.767-6.38 9.528-9.815 4.831-6.026 6.952-13.5 7.845-21.06.185-1.565.084-3.518-1.33-4.225-.993-.505-2.172-.135-3.216.252-3.484 1.263-6.986 2.543-10.471 3.805-8.164 2.98-8.636 11.498-11.649 18.838-9.31 22.625-34.713 33.282-44.022 56.311-6.195 15.303-7.222 32.693-3.519 48.736 3.603 15.572 12.189 31.312 20.538 44.864 3.788 6.144 8.99 1.481 10.051-3.67 1.885-9.209 4.36-17.592 4.023-27.07-.471-13.047-2.66-26.363-.303-39.325 2.273-12.508 8.316-24.191 16.447-33.888 9.091-10.858 20.555-20.218 32.07-28.417 10-7.12 22.642-10.555 31.211-19.68 8.047-8.568 12.205-20.74 10.808-32.44h.017ZM959.92 112.497c-3.973-11.498-11.498-20.016-19.949-28.4-11.279-11.178-27.255-23.77-32.692-39.09-1.044-2.946-.758-7.272-2.239-9.797-1.734-2.963-6.717-4.714-9.781-5.674-2.391-.74-5.185-1.229-7.222.22-2.727 1.918-2.509 6.01-1.633 9.225 2.087 7.626 6.279 14.646 12.02 20.083 1.801 1.717 3.838 3.384 4.629 5.74.791 2.358-.438 5.573-2.929 5.775-.943.067-1.852-.303-2.71-.707-8.384-4.007-13.855-12.172-16.481-20.858a45.361 45.361 0 0 1-1.953-13.602c.034-4.445 2.475-10.252.135-14.293-.809-1.414-2.138-2.44-3.485-3.35a37.23 37.23 0 0 0-10.151-4.814c-.741-.22-1.516-.421-2.256-.236-1.549.37-2.273 2.171-2.559 3.737-1.684 9.209 2.98 17.02 6.599 25.05.64 1.414 1.128 2.946.909 4.478-.185 1.38-.656 2.222-1.296 2.71-2.963 2.256-9.747-3.956-11.279-6.38-2.61-4.125-4.091-9.343-4.091-14.225 0-4.73 1.414-9.141-1.044-13.468-1.868-3.266-5.437-6.027-9.191-3.838a5.176 5.176 0 0 0-.707.488c-1.886 1.549-2.576 4.26-2.879 6.734-2.003 16.868 7.458 34.056 23.349 40.436 31.801 12.778 57.322 38.736 61.547 73.651.876 7.256.96 14.612.303 21.902-.623 7.02-1.852 13.063-3.232 19.797-.236 1.128-.084 2.306.084 3.451.993 7.256 1.65 14.511 4.276 21.397.657 1.7 3.114 8.973 5.353 9.141 4.377.32 13.333-23.552 15.387-27.053 8.939-15.134 18.013-32.541 18.08-50.554.034-6.363-1.01-12.222-2.895-17.693l-.017.017Z"/>
</svg>
